fira-sans_heavy-italic.sfdir
StartChar: exclam
Encoding: 33 33 2126
Width: 228
Flags: MW
HStem: -20 21G<53.5 112> -20 206<72.5 112> 676 20G<72 276 276 276>
VStem: -10 204<64 103> -10 286
LayerCount: 2
Back
Fore
SplineSet
38 270 m 1xa8
 72 696 l 1
 276 696 l 1
 190 270 l 1
 38 270 l 1xa8
105 186 m 0x70
 156 186 194 149 194 95 c 0
 194 33 144 -20 80 -20 c 0
 27 -20 -10 18 -10 73 c 0
 -10 133 40 186 105 186 c 0x70
EndSplineSet
EndChar

StartChar: quotedbl
Encoding: 34 34 993
Width: 452
Flags: MW
HStem: 406 290<96 201 77 262 96 291 310 415>
VStem: 77 399<406 696>
LayerCount: 2
Fore
SplineSet
96 696 m 1
 262 696 l 1
 201 406 l 1
 77 406 l 1
 96 696 l 1
310 696 m 1
 476 696 l 1
 415 406 l 1
 291 406 l 1
 310 696 l 1
EndSplineSet
EndChar

StartChar: numbersign
Encoding: 35 35 989
Width: 568
Flags: MW
HStem: 0 257<13 79 13 170 10 79 239 305 13 396 13 236> 131 126<13 45 -5 79 239 271 465 498> 436 126<92 127 75 160 321 353 547 578>
VStem: -5 600<131 562>
LayerCount: 2
Fore
SplineSet
513 436 m 1xb0
 465 257 l 1
 516 257 l 1xb0
 498 131 l 1
 431 131 l 1x70
 396 0 l 1
 236 0 l 1xb0
 271 131 l 1
 205 131 l 1x70
 170 0 l 1
 10 0 l 1xb0
 45 131 l 1
 -5 131 l 1x70
 13 257 l 1
 79 257 l 1
 127 436 l 1
 75 436 l 1
 92 562 l 1
 160 562 l 1
 192 680 l 1
 353 680 l 1
 321 562 l 1
 386 562 l 1
 418 680 l 1
 579 680 l 1
 547 562 l 1
 595 562 l 1
 578 436 l 1
 513 436 l 1xb0
353 436 m 1
 287 436 l 1
 239 257 l 1
 305 257 l 1
 353 436 l 1
EndSplineSet
Substitution2: "'onum' Oldstyle Figures lookup 22 subtable" numbersign.osf
Substitution2: "'tnum' Tabular Numbers lookup 21 subtable" numbersign.tf
AlternateSubs2: "'aalt' Access All Alternates lookup 1 subtable" numbersign.tf numbersign.osf
EndChar
StartChar: dollar
Encoding: 36 36 2206
Width: 548
GlyphClass: 2
Flags: MW
HStem: -6 21G<176 176>
VStem: 68 204<483 514 483 516.5> 324 203<180.5 216.5>
LayerCount: 2
Back
Fore
SplineSet
366 424 m 0
 473 384 527 320 527 227 c 0
 527 131 467 25 309 -2 c 1
 286 -165 l 1
 153 -165 l 1
 176 -6 l 1
 84 5 16 47 -24 94 c 1
 85 197 l 1
 129 154 184 132 234 132 c 0
 293 132 324 163 324 198 c 0
 324 235 302 251 240 276 c 0
 112 323 68 391 68 468 c 0
 68 565 136 658 272 683 c 1
 293 834 l 1
 426 834 l 1
 404 686 l 1
 475 675 534 642 578 598 c 1
 482 499 l 1
 432 537 390 551 353 551 c 0
 300 551 272 529 272 499 c 0
 272 467 293 453 366 424 c 0
EndSplineSet
Substitution2: "'onum' Oldstyle Figures lookup 26 subtable" dollar.osf
Substitution2: "'tnum' Tabular Numbers lookup 25 subtable" dollar.tf
AlternateSubs2: "'aalt' Access All Alternates lookup 1 subtable" dollar.tf dollar.osf
EndChar
StartChar: ampersand
Encoding: 38 38 2379
Width: 795
GlyphClass: 2
Flags: MW
HStem: -20 136<292 305> 594 122<344.5 373>
VStem: 37 208<160.5 196.5 160.5 209.5> 123 182<521.5 553 521.5 564> 403 181<541.5 565.5>
LayerCount: 2
Back
Fore
SplineSet
371 716 m 0xd8
 509 716 584 647 584 553 c 0
 584 492 552 435 433 357 c 1
 525 255 l 1
 546 289 563 324 581 371 c 1
 732 322 l 1
 697 255 658 202 617 154 c 1
 715 52 l 1
 548 -20 l 1
 491 44 l 1
 418 -5 343 -20 267 -20 c 0
 124 -20 37 56 37 164 c 0xe8
 37 255 85 312 194 375 c 1
 141 436 123 474 123 529 c 0
 123 599 175 716 371 716 c 0xd8
361 594 m 0
 328 594 305 572 305 534 c 0
 305 509 314 492 339 461 c 1
 392 498 403 530 403 553 c 0
 403 578 385 594 361 594 c 0
290 265 m 1xe0
 259 238 245 213 245 180 c 0
 245 141 267 116 317 116 c 0
 349 116 378 124 405 136 c 1
 290 265 l 1xe0
EndSplineSet
Substitution2: "'ss03' Style Set 3 lookup 36 subtable" ampersand.ss03
Substitution2: "'aalt' Access All Alternates lookup 0 subtable" ampersand.ss03
EndChar
StartChar: quotesingle
Encoding: 39 39 2133
Width: 238
Flags: MW
HStem: 406 290<77 262 96 201>
VStem: 77 185
LayerCount: 2
Back
Fore
SplineSet
77 406 m 1
 96 696 l 1
 262 696 l 1
 201 406 l 1
 77 406 l 1
EndSplineSet
EndChar

StartChar: parenleft
Encoding: 40 40 1009
Width: 313
Flags: MW
HStem: -166 1034<136 276>
VStem: 5.67 191.64
LayerCount: 2
Fore
SplineSet
394 781 m 1
 283 649 231 516 208 347 c 1
 184 182 197 44 271 -88 c 1
 136 -166 l 1
 55 -28 -20 111 14 353 c 0
 47 591 157 730 276 868 c 1
 394 781 l 1
EndSplineSet
Substitution2: "'case' Case-Sensitive Forms lookup 25 subtable" parenleft.case
Substitution2: "'dnom' Denominators lookup 14 subtable" parenleft.dnom
Substitution2: "'numr' Numerators lookup 13 subtable" parenleft.numr
Substitution2: "'sups' Superscript lookup 12 subtable" parenleftsuperior
Substitution2: "'subs' Subscript lookup 11 subtable" uni208D
AlternateSubs2: "'aalt' Access All Alternates lookup 1 subtable" uni208D parenleftsuperior parenleft.numr parenleft.dnom parenleft.case
EndChar

StartChar: parenright
Encoding: 41 41 1010
Width: 313
Flags: MW
HStem: -168 1034<59 200>
VStem: 138.1 191.74
LayerCount: 2
Fore
SplineSet
200 866 m 1
 280 728 355 589 322 347 c 1
 288 109 179 -30 59 -168 c 1
 -58 -81 l 1
 52 51 104 184 128 353 c 0
 151 518 138 656 64 788 c 1
 200 866 l 1
EndSplineSet
Substitution2: "'case' Case-Sensitive Forms lookup 25 subtable" parenright.case
Substitution2: "'dnom' Denominators lookup 14 subtable" parenright.dnom
Substitution2: "'numr' Numerators lookup 13 subtable" parenright.numr
Substitution2: "'sups' Superscript lookup 12 subtable" parenrightsuperior
Substitution2: "'subs' Subscript lookup 11 subtable" uni208E
AlternateSubs2: "'aalt' Access All Alternates lookup 1 subtable" uni208E parenrightsuperior parenright.numr parenright.dnom parenright.case
EndChar

StartChar: asterisk
Encoding: 42 42 980
Width: 443
Flags: MW
HStem: 724 20G<204 374 374 374>
VStem: 33 447<519 520>
LayerCount: 2
Fore
SplineSet
345 502 m 1
 430 409 l 1
 287 312 l 1
 245 434 l 1
 172 311 l 1
 55 408 l 1
 163 502 l 1
 33 519 l 1
 102 670 l 1
 213 608 l 1
 204 744 l 1
 374 744 l 1
 328 609 l 1
 451 673 l 1
 480 520 l 1
 345 502 l 1
EndSplineSet
EndChar

StartChar: plus
Encoding: 43 43 1115
Width: 536
Flags: MW
HStem: 257 150<58 189 37 210 366 497 58 345>
VStem: 37 481<257 407>
LayerCount: 2
Fore
SplineSet
366 407 m 1
 518 407 l 1
 497 257 l 1
 345 257 l 1
 322 97 l 1
 166 97 l 1
 189 257 l 1
 37 257 l 1
 58 407 l 1
 210 407 l 1
 231 567 l 1
 388 567 l 1
 366 407 l 1
EndSplineSet
Substitution2: "'onum' Oldstyle Figures lookup 22 subtable" plus.osf
Substitution2: "'tnum' Tabular Numbers lookup 21 subtable" plus.tf
Substitution2: "'dnom' Denominators lookup 14 subtable" plus.dnom
Substitution2: "'numr' Numerators lookup 13 subtable" plus.numr
Substitution2: "'sups' Superscript lookup 12 subtable" plussuperior
Substitution2: "'subs' Subscript lookup 11 subtable" uni208A
AlternateSubs2: "'aalt' Access All Alternates lookup 1 subtable" uni208A plussuperior plus.numr plus.dnom plus.tf plus.osf
EndChar
StartChar: comma
Encoding: 44 44 2123
Width: 242
Flags: MW
HStem: 0 21G<28 28>
VStem: -7 203<77 101.5>
LayerCount: 2
Back
Fore
SplineSet
107 186 m 0
 159 186 196 149 196 97 c 0
 196 57 179 27 139 -45 c 2
 58 -184 l 1
 -43 -184 l 1
 28 0 l 1
 5 16 -7 40 -7 69 c 0
 -7 134 43 186 107 186 c 0
EndSplineSet
EndChar

StartChar: hyphen
Encoding: 45 45 1027
Width: 398
Flags: MW
HStem: 238 150<49 362 28 383>
VStem: 28 355<238 388>
LayerCount: 2
Fore
SplineSet
49 388 m 1
 383 388 l 1
 362 238 l 1
 28 238 l 1
 49 388 l 1
EndSplineSet
Substitution2: "'case' Case-Sensitive Forms lookup 25 subtable" hyphen.case
Substitution2: "'aalt' Access All Alternates lookup 0 subtable" hyphen.case
EndChar
StartChar: period
Encoding: 46 46 2129
Width: 240
Flags: MW
HStem: -20 206<72.5 112>
VStem: -10 204<64 103>
LayerCount: 2
Back
Fore
SplineSet
105 186 m 0
 156 186 194 149 194 95 c 0
 194 33 144 -20 80 -20 c 0
 27 -20 -10 18 -10 73 c 0
 -10 133 40 186 105 186 c 0
EndSplineSet
EndChar
StartChar: slash
Encoding: 47 47 2135
Width: 508
Flags: MW
HStem: -117 939<171 362>
VStem: 4 524
LayerCount: 2
Back
Fore
SplineSet
362 822 m 1
 528 782 l 1
 171 -117 l 1
 4 -77 l 1
 362 822 l 1
EndSplineSet
Substitution2: "'frac' Diagonal Fractions lookup 18 subtable" fraction
Substitution2: "'aalt' Access All Alternates lookup 0 subtable" fraction
EndChar
StartChar: zero
Encoding: 48 48 2017
Width: 590
Flags: MW
HStem: -20 144<255.5 300.5 255.5 384.5> 553 143<309.5 354.5>
VStem: 29 193<175 221.5 175 338.5> 389 192<459.5 506>
LayerCount: 2
Back
Fore
SplineSet
351 696 m 0
 499 696 581 603 581 432 c 0
 581 254 510 -20 259 -20 c 0
 110 -20 29 76 29 248 c 0
 29 429 100 696 351 696 c 0
337 553 m 0
 282 553 257 506 234 336 c 0
 226 280 222 237 222 206 c 0
 222 144 238 124 273 124 c 0
 328 124 351 165 376 342 c 0
 384 401 389 444 389 475 c 0
 389 537 372 553 337 553 c 0
EndSplineSet
Substitution2: "'zero' Slashed Zero lookup 32 subtable" zero.zero
Substitution2: "'onum' Oldstyle Figures lookup 26 subtable" zero.osf
Substitution2: "'tnum' Tabular Numbers lookup 25 subtable" zero.tf
Substitution2: "'frac' Diagonal Fractions lookup 19 subtable" zero.numr
Substitution2: "'dnom' Denominators lookup 17 subtable" zero.dnom
Substitution2: "'numr' Numerators lookup 16 subtable" zero.numr
Substitution2: "'sups' Superscript lookup 15 subtable" uni2070
Substitution2: "'subs' Subscript lookup 14 subtable" uni2080
AlternateSubs2: "'aalt' Access All Alternates lookup 1 subtable" uni2080 uni2070 zero.numr zero.dnom zero.tf zero.osf zero.zero
EndChar

StartChar: one
Encoding: 49 49 880
Width: 470
Flags: MW
HStem: 0 21G<182 370 182 182>
VStem: 35 430<536 680>
LayerCount: 2
Fore
SplineSet
370 0 m 1
 182 0 l 1
 250 483 l 1
 101 398 l 1
 35 536 l 1
 291 680 l 1
 465 680 l 1
 370 0 l 1
EndSplineSet
Substitution2: "'onum' Oldstyle Figures lookup 22 subtable" one.osf
Substitution2: "'tnum' Tabular Numbers lookup 21 subtable" one.tf
Substitution2: "'frac' Diagonal Fractions lookup 16 subtable" one.numr
Substitution2: "'dnom' Denominators lookup 14 subtable" one.dnom
Substitution2: "'numr' Numerators lookup 13 subtable" one.numr
Substitution2: "'sups' Superscript lookup 12 subtable" onesuperior
Substitution2: "'subs' Subscript lookup 11 subtable" oneinferior
AlternateSubs2: "'aalt' Access All Alternates lookup 1 subtable" oneinferior onesuperior one.numr one.dnom one.tf one.osf
EndChar
StartChar: two
Encoding: 50 50 2019
Width: 518
Flags: MW
HStem: 0 147.5 548 148<241.5 273>
VStem: 317 202<473.5 507.5>
LayerCount: 2
Back
Fore
SplineSet
292 696 m 0
 444 696 519 615 519 517 c 0
 519 430 495 336 225 147 c 1
 483 148 l 1
 442 0 l 1
 -15 0 l 1
 2 137 l 1
 277 371 317 418 317 489 c 0
 317 526 292 548 254 548 c 0
 210 548 177 525 135 479 c 1
 31 579 l 1
 99 652 191 696 292 696 c 0
EndSplineSet
Substitution2: "'onum' Oldstyle Figures lookup 26 subtable" two.osf
Substitution2: "'tnum' Tabular Numbers lookup 25 subtable" two.tf
Substitution2: "'frac' Diagonal Fractions lookup 19 subtable" two.numr
Substitution2: "'dnom' Denominators lookup 17 subtable" two.dnom
Substitution2: "'numr' Numerators lookup 16 subtable" two.numr
Substitution2: "'sups' Superscript lookup 15 subtable" uni00B2
Substitution2: "'subs' Subscript lookup 14 subtable" uni2082
AlternateSubs2: "'aalt' Access All Alternates lookup 1 subtable" uni2082 uni00B2 two.numr two.dnom two.tf two.osf
EndChar

StartChar: three
Encoding: 51 51 882
Width: 520
Flags: MW
HStem: -20 148<170.5 222 170.5 308.5> 289 132<191 212 152 231> 553 143<249 279.5>
VStem: 295 197<194 248.5> 324 191<504 520>
LayerCount: 2
Fore
SplineSet
299 696 m 0xe8
 443 696 515 629 515 535 c 0xe8
 515 473 481 393 360 358 c 1
 432 350 492 308 492 219 c 0
 492 129 425 -20 192 -20 c 0
 80 -20 5 25 -40 91 c 1
 77 187 l 1
 111 146 146 128 195 128 c 0
 249 128 295 161 295 227 c 0
 295 270 269 289 212 289 c 2xf0
 152 289 l 1
 191 421 l 1
 231 421 l 2
 307 421 324 473 324 504 c 0
 324 536 300 553 259 553 c 0
 210 553 165 531 124 495 c 1
 41 604 l 1
 116 663 199 696 299 696 c 0xe8
EndSplineSet
Substitution2: "'onum' Oldstyle Figures lookup 22 subtable" three.osf
Substitution2: "'tnum' Tabular Numbers lookup 21 subtable" three.tf
Substitution2: "'frac' Diagonal Fractions lookup 16 subtable" three.numr
Substitution2: "'dnom' Denominators lookup 14 subtable" three.dnom
Substitution2: "'numr' Numerators lookup 13 subtable" three.numr
Substitution2: "'sups' Superscript lookup 12 subtable" threesuperior
Substitution2: "'subs' Subscript lookup 11 subtable" threeinferior
AlternateSubs2: "'aalt' Access All Alternates lookup 1 subtable" threeinferior threesuperior three.numr three.dnom three.tf three.osf
EndChar

StartChar: four
Encoding: 52 52 883
Width: 573
Flags: MW
HStem: 0 21G<263 453 263 263> 134 146<230 281 492 540> 681 20G<257 257>
VStem: 0 560<134 280>
LayerCount: 2
Fore
SplineSet
540 134 m 1
 472 134 l 1
 453 0 l 1
 263 0 l 1
 281 134 l 1
 0 134 l 1
 18 263 l 1
 257 701 l 1
 418 641 l 1
 230 280 l 1
 303 280 l 1
 346 428 l 1
 513 428 l 1
 492 280 l 1
 560 280 l 1
 540 134 l 1
EndSplineSet
Substitution2: "'onum' Oldstyle Figures lookup 22 subtable" four.osf
Substitution2: "'tnum' Tabular Numbers lookup 21 subtable" four.tf
Substitution2: "'frac' Diagonal Fractions lookup 16 subtable" four.numr
Substitution2: "'dnom' Denominators lookup 14 subtable" four.dnom
Substitution2: "'numr' Numerators lookup 13 subtable" four.numr
Substitution2: "'sups' Superscript lookup 12 subtable" foursuperior
Substitution2: "'subs' Subscript lookup 11 subtable" fourinferior
AlternateSubs2: "'aalt' Access All Alternates lookup 1 subtable" fourinferior foursuperior four.numr four.dnom four.tf four.osf
EndChar

StartChar: five
Encoding: 53 53 884
Width: 545
Flags: MW
HStem: -20 146<185.5 243 185.5 320.5> 323 131<244 401.5> 542 138<274 504 274 274>
VStem: 321 198<211 278.5>
LayerCount: 2
Fore
SplineSet
504 542 m 1
 274 542 l 1
 258 433 l 1
 291 448 325 454 353 454 c 0
 450 454 519 389 519 265 c 0
 519 149 436 -20 205 -20 c 0
 91 -20 22 30 -22 90 c 1
 94 188 l 1
 123 151 160 126 211 126 c 0
 275 126 321 170 321 252 c 0
 321 305 294 323 255 323 c 0
 233 323 211 317 180 298 c 1
 52 299 l 1
 105 680 l 1
 544 680 l 1
 504 542 l 1
EndSplineSet
Substitution2: "'onum' Oldstyle Figures lookup 22 subtable" five.osf
Substitution2: "'tnum' Tabular Numbers lookup 21 subtable" five.tf
Substitution2: "'frac' Diagonal Fractions lookup 16 subtable" five.numr
Substitution2: "'dnom' Denominators lookup 14 subtable" five.dnom
Substitution2: "'numr' Numerators lookup 13 subtable" five.numr
Substitution2: "'sups' Superscript lookup 12 subtable" fivesuperior
Substitution2: "'subs' Subscript lookup 11 subtable" fiveinferior
AlternateSubs2: "'aalt' Access All Alternates lookup 1 subtable" fiveinferior fivesuperior five.numr five.dnom five.tf five.osf
EndChar

StartChar: six
Encoding: 54 54 885
Width: 570
Flags: MW
HStem: -20 138<257 309 257 374.5> 333 131<299 437.5> 560 136<357.5 404.5>
VStem: 24 200<168 210.5 168 242.5> 359 195<249.5 296.5>
LayerCount: 2
Fore
SplineSet
386 464 m 0
 489 464 554 395 554 278 c 0
 554 167 482 -20 267 -20 c 0
 100 -20 24 77 24 230 c 0
 24 255 26 281 30 309 c 0
 64 542 204 696 397 696 c 0
 466 696 518 675 552 647 c 1
 467 536 l 1
 445 551 421 560 388 560 c 0
 327 560 277 515 251 420 c 1
 295 451 344 464 386 464 c 0
275 118 m 0
 343 118 359 224 359 275 c 0
 359 318 344 333 310 333 c 0
 288 333 261 323 233 301 c 1
 227 258 224 224 224 197 c 0
 224 139 239 118 275 118 c 0
EndSplineSet
Substitution2: "'onum' Oldstyle Figures lookup 22 subtable" six.osf
Substitution2: "'tnum' Tabular Numbers lookup 21 subtable" six.tf
Substitution2: "'frac' Diagonal Fractions lookup 16 subtable" six.numr
Substitution2: "'dnom' Denominators lookup 14 subtable" six.dnom
Substitution2: "'numr' Numerators lookup 13 subtable" six.numr
Substitution2: "'sups' Superscript lookup 12 subtable" sixsuperior
Substitution2: "'subs' Subscript lookup 11 subtable" sixinferior
AlternateSubs2: "'aalt' Access All Alternates lookup 1 subtable" sixinferior sixsuperior six.numr six.dnom six.tf six.osf
EndChar

StartChar: seven
Encoding: 55 55 886
Width: 470
Flags: MW
HStem: -20 21G<183 183> 534 146<61 295 41 519>
VStem: 12 507
LayerCount: 2
Fore
SplineSet
501 550 m 1
 183 -20 l 1
 12 40 l 1
 295 534 l 1
 41 534 l 1
 61 680 l 1
 519 680 l 1
 501 550 l 1
EndSplineSet
Substitution2: "'onum' Oldstyle Figures lookup 22 subtable" seven.osf
Substitution2: "'tnum' Tabular Numbers lookup 21 subtable" seven.tf
Substitution2: "'frac' Diagonal Fractions lookup 16 subtable" seven.numr
Substitution2: "'dnom' Denominators lookup 14 subtable" seven.dnom
Substitution2: "'numr' Numerators lookup 13 subtable" seven.numr
Substitution2: "'sups' Superscript lookup 12 subtable" sevensuperior
Substitution2: "'subs' Subscript lookup 11 subtable" seveninferior
AlternateSubs2: "'aalt' Access All Alternates lookup 1 subtable" seveninferior sevensuperior seven.numr seven.dnom seven.tf seven.osf
EndChar
StartChar: eight
Encoding: 56 56 2025
Width: 587
Flags: MW
HStem: -20 138<250.5 305 250.5 351.5> 567 129<309 356>
VStem: 5 196<161 192.5 161 200> 77 187<478 505.5 478 530> 365 194<183.5 222.5> 392 188<511.5 535>
LayerCount: 2
Back
Fore
SplineSet
453 363 m 1xe8
 526 321 559 266 559 202 c 0
 559 89 450 -20 253 -20 c 0
 91 -20 5 64 5 168 c 0xe8
 5 232 46 305 153 348 c 1
 98 387 77 433 77 484 c 0
 77 576 152 696 349 696 c 0
 491 696 580 632 580 531 c 0xd4
 580 482 549 413 453 363 c 1xe8
339 567 m 0xd4
 279 567 264 520 264 491 c 0
 264 465 276 443 309 425 c 2
 330 416 l 1
 386 456 392 501 392 522 c 0
 392 548 373 567 339 567 c 0xd4
273 118 m 0xe8
 337 118 365 161 365 206 c 0
 365 239 346 258 300 278 c 2
 265 291 l 1
 213 259 201 206 201 179 c 0
 201 143 228 118 273 118 c 0xe8
EndSplineSet
Substitution2: "'onum' Oldstyle Figures lookup 26 subtable" eight.osf
Substitution2: "'tnum' Tabular Numbers lookup 25 subtable" eight.tf
Substitution2: "'frac' Diagonal Fractions lookup 19 subtable" eight.numr
Substitution2: "'dnom' Denominators lookup 17 subtable" eight.dnom
Substitution2: "'numr' Numerators lookup 16 subtable" eight.numr
Substitution2: "'sups' Superscript lookup 15 subtable" uni2078
Substitution2: "'subs' Subscript lookup 14 subtable" uni2088
AlternateSubs2: "'aalt' Access All Alternates lookup 1 subtable" uni2088 uni2078 eight.numr eight.dnom eight.tf eight.osf
EndChar

StartChar: nine
Encoding: 57 57 888
Width: 570
Flags: MW
HStem: 229 134<158.5 298> 560 136<288 343>
VStem: 40 195<402 454 402 476> 379 199<480 516>
LayerCount: 2
Fore
SplineSet
333 696 m 0
 492 696 578 606 578 477 c 0
 578 286 482 31 60 -32 c 1
 37 105 l 1
 207 140 286 181 338 279 c 1
 299 246 261 229 205 229 c 0
 112 229 40 298 40 416 c 0
 40 536 122 696 333 696 c 0
235 428 m 0
 235 376 257 363 284 363 c 0
 312 363 344 377 371 410 c 1
 376 443 379 469 379 491 c 0
 379 541 363 560 323 560 c 0
 253 560 235 480 235 428 c 0
EndSplineSet
Substitution2: "'onum' Oldstyle Figures lookup 22 subtable" nine.osf
Substitution2: "'tnum' Tabular Numbers lookup 21 subtable" nine.tf
Substitution2: "'frac' Diagonal Fractions lookup 16 subtable" nine.numr
Substitution2: "'dnom' Denominators lookup 14 subtable" nine.dnom
Substitution2: "'numr' Numerators lookup 13 subtable" nine.numr
Substitution2: "'sups' Superscript lookup 12 subtable" ninesuperior
Substitution2: "'subs' Subscript lookup 11 subtable" nineinferior
AlternateSubs2: "'aalt' Access All Alternates lookup 1 subtable" nineinferior ninesuperior nine.numr nine.dnom nine.tf nine.osf
EndChar

StartChar: colon
Encoding: 58 58 984
Width: 241
Flags: MW
HStem: -20 21G<54.5 111> -20 206<75.5 111> 312 206<121.5 157>
VStem: -9 204<64.5 102.5> 37 204<396.5 434.5>
LayerCount: 2
Fore
SplineSet
152 518 m 0xa8
 203 518 241 478 241 427 c 0
 241 366 187 312 127 312 c 0
 74 312 37 353 37 405 c 0
 37 464 91 518 152 518 c 0xa8
106 186 m 0x70
 157 186 195 146 195 95 c 0
 195 34 141 -20 81 -20 c 0
 28 -20 -9 21 -9 73 c 0
 -9 132 45 186 106 186 c 0x70
EndSplineSet
EndChar

StartChar: semicolon
Encoding: 59 59 995
Width: 246
Flags: MW
HStem: 0 21G<32 32> 312 206<124.5 160>
VStem: -3 203<77 101.5> 40 204<396.5 434.5>
LayerCount: 2
Fore
SplineSet
155 518 m 0xd0
 206 518 244 478 244 427 c 0
 244 366 190 312 130 312 c 0
 77 312 40 353 40 405 c 0
 40 464 94 518 155 518 c 0xd0
111 186 m 0xe0
 163 186 200 149 200 97 c 0
 200 57 183 27 143 -45 c 1
 62 -184 l 1
 -39 -184 l 1
 32 0 l 1
 9 16 -3 40 -3 69 c 0
 -3 134 47 186 111 186 c 0xe0
EndSplineSet
EndChar

StartChar: less
Encoding: 60 60 1103
Width: 519
Flags: MW
HStem: 571 20G<481 481>
VStem: 22 506<249 449>
LayerCount: 2
Fore
SplineSet
528 449 m 1
 201 333 l 1
 488 215 l 1
 409 75 l 1
 22 249 l 1
 45 416 l 1
 481 591 l 1
 528 449 l 1
EndSplineSet
Substitution2: "'onum' Oldstyle Figures lookup 22 subtable" less.osf
Substitution2: "'tnum' Tabular Numbers lookup 21 subtable" less.tf
AlternateSubs2: "'aalt' Access All Alternates lookup 1 subtable" less.tf less.osf
EndChar
StartChar: equal
Encoding: 61 61 2253
Width: 518
GlyphClass: 2
Flags: MW
HStem: 147 150<21 484 42 463> 367 150<52 515 73 494>
VStem: 21 494<147 517>
LayerCount: 2
Back
Fore
SplineSet
52 367 m 1
 73 517 l 1
 515 517 l 1
 494 367 l 1
 52 367 l 1
21 147 m 1
 42 297 l 1
 484 297 l 1
 463 147 l 1
 21 147 l 1
EndSplineSet
Substitution2: "'onum' Oldstyle Figures lookup 26 subtable" equal.osf
Substitution2: "'tnum' Tabular Numbers lookup 25 subtable" equal.tf
Substitution2: "'dnom' Denominators lookup 17 subtable" equal.dnom
Substitution2: "'numr' Numerators lookup 16 subtable" equal.numr
Substitution2: "'sups' Superscript lookup 15 subtable" uni207C
AlternateSubs2: "'aalt' Access All Alternates lookup 1 subtable" uni207C equal.numr equal.dnom equal.tf equal.osf
EndChar

StartChar: greater
Encoding: 62 62 1098
Width: 518
Flags: MW
HStem: 571 20G<128 128>
VStem: 12 503<225 416>
LayerCount: 2
Fore
SplineSet
515 416 m 1
 491 249 l 1
 56 75 l 1
 12 225 l 1
 336 333 l 1
 51 459 l 1
 128 591 l 1
 515 416 l 1
EndSplineSet
Substitution2: "'onum' Oldstyle Figures lookup 22 subtable" greater.osf
Substitution2: "'tnum' Tabular Numbers lookup 21 subtable" greater.tf
AlternateSubs2: "'aalt' Access All Alternates lookup 1 subtable" greater.tf greater.osf
EndChar
StartChar: question
Encoding: 63 63 2130
Width: 483
Flags: MW
HStem: -20 21G<168.5 227> -20 206<187.5 227> 562 154<253 283.5>
VStem: 105 204<64 103> 124 175<281.5 284 281.5 372.5> 312 207<490 541.5>
LayerCount: 2
Back
Fore
SplineSet
309 716 m 0xa4
 451 716 519 648 519 564 c 0xa4
 519 366 300 394 299 284 c 0
 299 279 300 271 301 266 c 1
 130 241 l 1
 126 257 124 273 124 289 c 0xac
 124 456 312 448 312 532 c 0
 312 551 298 562 269 562 c 0
 234 562 197 542 158 507 c 1
 51 605 l 1
 115 671 197 716 309 716 c 0xa4
220 186 m 0x70
 271 186 309 149 309 95 c 0
 309 33 259 -20 195 -20 c 0
 142 -20 105 18 105 73 c 0
 105 133 155 186 220 186 c 0x70
EndSplineSet
EndChar
StartChar: at
Encoding: 64 64 2378
Width: 1008
GlyphClass: 2
Flags: MW
HStem: -227 141<391.5 503.5> 1 115<705.5 751.5 705.5 816> 6 119<467 474.5> 389 120<496.5 534.5> 577 139<413 643>
VStem: 28 172<107 268.5 107 293> 275 170<150.5 206.5 150.5 242> 813 168<321 436.5>
LayerCount: 2
Back
Fore
SplineSet
572 716 m 0xdf
 831 716 981 554 981 359 c 0
 981 212 906 1 726 1 c 0xdf
 651 1 591 51 586 100 c 1
 555 41 507 6 442 6 c 0xbf
 325 6 275 79 275 179 c 0
 275 305 338 509 553 509 c 0
 609 509 679 490 728 460 c 1
 689 161 l 2
 685 130 694 116 717 116 c 0
 786 116 813 274 813 368 c 0
 813 505 730 577 556 577 c 0
 270 577 200 349 200 188 c 0
 200 26 296 -86 487 -86 c 0
 541 -86 620 -70 671 -51 c 1
 699 -184 l 1
 635 -209 537 -227 470 -227 c 0
 192 -227 28 -58 28 182 c 0
 28 404 180 716 572 716 c 0xdf
477 125 m 0xbf
 495 125 511 136 523 154 c 1
 556 384 l 1
 546 389 539 389 530 389 c 0
 463 389 445 246 445 167 c 0
 445 134 457 125 477 125 c 0xbf
EndSplineSet
EndChar
StartChar: A
Encoding: 65 65 2
Width: 589
GlyphClass: 2
Flags: MW
HStem: 0 21G<-62 149 -62 -62 363 577 363 363> 135 144<239 348 239 356 193 348> 567 129<332 332> 676 20G<234 476 476 476>
VStem: -62 639<0 0>
AnchorPoint: "Anchor-14" 0 0 basechar 0
AnchorPoint: "Anchor-13" 0 0 basechar 0
AnchorPoint: "Anchor-12" 355 696 basechar 0
AnchorPoint: "Anchor-11" 489 0 basechar 0
AnchorPoint: "Anchor-10" 256 0 basechar 0
LayerCount: 2
Back
Fore
SplineSet
363 0 m 1xd8
 356 135 l 1
 193 135 l 1
 149 0 l 1
 -62 0 l 1
 234 696 l 1
 476 696 l 1
 577 0 l 1
 363 0 l 1xd8
239 279 m 1
 348 279 l 1
 332 567 l 1xe8
 239 279 l 1
EndSplineSet
Substitution2: "Single Substitution lookup 41 subtable" ordfeminine
Substitution2: "'c2sc' Capitals to Small Capitals lookup 27 subtable" a.sc
AlternateSubs2: "'aalt' Access All Alternates lookup 1 subtable" ordfeminine a.sc
Position2: "'cpsp' Capital Spacing lookup 0 subtable" dx=5 dy=0 dh=10 dv=0
EndChar

StartChar: D
Encoding: 68 68 20
Width: 645
GlyphClass: 2
Flags: MW
HStem: 0 145<228 237> 551 145<285 285 285 320 320 327>
VStem: 434 208<372 477>
AnchorPoint: "Anchor-11" 0 0 basechar 0
AnchorPoint: "Anchor-10" 0 0 basechar 0
AnchorPoint: "Anchor-9" 346 696 basechar 0
AnchorPoint: "Anchor-8" 0 0 basechar 0
LayerCount: 2
Fore
SplineSet
320 696 m 2
 489 696 642 645 642 432 c 0
 642 203 548 0 237 0 c 2
 6 0 l 1
 103 696 l 1
 320 696 l 2
285 551 m 1
 228 145 l 1
 267 145 l 2
 408 145 434 314 434 430 c 0
 434 524 397 551 327 551 c 2
 285 551 l 1
EndSplineSet
Substitution2: "'c2sc' Capitals to Small Capitals lookup 23 subtable" d.sc
Substitution2: "'aalt' Access All Alternates lookup 0 subtable" d.sc
Position2: "'cpsp' Capital Spacing lookup 0 subtable" dx=5 dy=0 dh=10 dv=0
EndChar
StartChar: E
Encoding: 69 69 65
Width: 511
GlyphClass: 2
Flags: MW
HStem: 0 144<229 451> 284 139<268 447 249 465> 553 143<286 512 286 286>
VStem: 7 546
AnchorPoint: "Anchor-14" 0 0 basechar 0
AnchorPoint: "Anchor-13" 0 0 basechar 0
AnchorPoint: "Anchor-12" 329 696 basechar 0
AnchorPoint: "Anchor-11" 421 0 basechar 0
AnchorPoint: "Anchor-10" 229 0 basechar 0
LayerCount: 2
Back
Fore
SplineSet
553 696 m 1
 512 553 l 1
 286 553 l 1
 268 423 l 1
 465 423 l 1
 447 284 l 1
 249 284 l 1
 229 144 l 1
 471 144 l 1
 451 0 l 1
 7 0 l 1
 104 696 l 1
 553 696 l 1
EndSplineSet
Substitution2: "'c2sc' Capitals to Small Capitals lookup 27 subtable" e.sc
Substitution2: "'aalt' Access All Alternates lookup 0 subtable" e.sc
Position2: "'cpsp' Capital Spacing lookup 0 subtable" dx=5 dy=0 dh=10 dv=0
EndChar
StartChar: F
Encoding: 70 70 93
Width: 475
GlyphClass: 2
Flags: MW
HStem: 0 21G<6 208 6 6> 258 143<264 430 244 450> 553 143<285 496 285 285>
VStem: 6 531
AnchorPoint: "Anchor-14" 0 0 basechar 0
AnchorPoint: "Anchor-13" 0 0 basechar 0
AnchorPoint: "Anchor-12" 320 696 basechar 0
AnchorPoint: "Anchor-11" 0 0 basechar 0
AnchorPoint: "Anchor-10" 0 0 basechar 0
LayerCount: 2
Back
Fore
SplineSet
537 696 m 1
 496 553 l 1
 285 553 l 1
 264 401 l 1
 450 401 l 1
 430 258 l 1
 244 258 l 1
 208 0 l 1
 6 0 l 1
 103 696 l 1
 537 696 l 1
EndSplineSet
Substitution2: "'c2sc' Capitals to Small Capitals lookup 27 subtable" f.sc
Substitution2: "'aalt' Access All Alternates lookup 0 subtable" f.sc
Position2: "'cpsp' Capital Spacing lookup 0 subtable" dx=5 dy=0 dh=10 dv=0
EndChar
StartChar: I
Encoding: 73 73 115
Width: 288
GlyphClass: 2
Flags: MW
HStem: 0 21G<6 208 6 6> 676 20G<103 305 305 305>
VStem: 6 299
AnchorPoint: "Anchor-14" 0 0 basechar 0
AnchorPoint: "Anchor-13" 0 0 basechar 0
AnchorPoint: "Anchor-12" 204 696 basechar 0
AnchorPoint: "Anchor-11" 173 0 basechar 0
AnchorPoint: "Anchor-10" 107 0 basechar 0
LayerCount: 2
Back
Fore
SplineSet
305 696 m 1
 208 0 l 1
 6 0 l 1
 103 696 l 1
 305 696 l 1
EndSplineSet
Substitution2: "'c2sc' Capitals to Small Capitals lookup 27 subtable" i.sc
Substitution2: "'aalt' Access All Alternates lookup 0 subtable" i.sc
Position2: "'cpsp' Capital Spacing lookup 0 subtable" dx=5 dy=0 dh=10 dv=0
EndChar
StartChar: J
Encoding: 74 74 134
Width: 316
GlyphClass: 2
Flags: MW
HStem: 676 20G<133 335 335 335>
VStem: -68 403
AnchorPoint: "Anchor-14" 0 0 basechar 0
AnchorPoint: "Anchor-13" 0 0 basechar 0
AnchorPoint: "Anchor-12" 234 696 basechar 0
AnchorPoint: "Anchor-11" 0 0 basechar 0
AnchorPoint: "Anchor-10" 0 0 basechar 0
LayerCount: 2
Back
Fore
SplineSet
335 696 m 1
 254 110 l 2
 226 -84 92 -149 -32 -189 c 1
 -68 -44 l 1
 24 -10 41 42 52 119 c 2
 133 696 l 1
 335 696 l 1
EndSplineSet
Substitution2: "'c2sc' Capitals to Small Capitals lookup 27 subtable" j.sc
Substitution2: "'aalt' Access All Alternates lookup 0 subtable" j.sc
Position2: "'cpsp' Capital Spacing lookup 0 subtable" dx=5 dy=0 dh=10 dv=0
EndChar
StartChar: K
Encoding: 75 75 137
Width: 647
GlyphClass: 2
Flags: MW
HStem: 0 21G<6 208 6 6 402 402 402 630> 676 20G<103 305 305 305 499 709 709 709>
VStem: 6 703<0 696>
AnchorPoint: "Anchor-14" 0 0 basechar 0
AnchorPoint: "Anchor-13" 0 0 basechar 0
AnchorPoint: "Anchor-12" 385 696 basechar 0
AnchorPoint: "Anchor-11" 0 0 basechar 0
AnchorPoint: "Anchor-10" 288 0 basechar 0
LayerCount: 2
Back
Fore
SplineSet
305 696 m 1
 208 0 l 1
 6 0 l 1
 103 696 l 1
 305 696 l 1
709 696 m 1
 471 377 l 1
 630 0 l 1
 402 0 l 1
 266 371 l 1
 499 696 l 1
 709 696 l 1
EndSplineSet
Substitution2: "'c2sc' Capitals to Small Capitals lookup 27 subtable" k.sc
Substitution2: "'aalt' Access All Alternates lookup 0 subtable" k.sc
Position2: "'cpsp' Capital Spacing lookup 0 subtable" dx=5 dy=0 dh=10 dv=0
EndChar

StartChar: L
Encoding: 76 76 58
Width: 514
GlyphClass: 2
Flags: MW
HStem: 0 158<230 445> 676 20G<103 305 305 305>
VStem: 6 481<0 158>
AnchorPoint: "Anchor-11" 225 0 basechar 0
AnchorPoint: "Anchor-10" 0 0 basechar 0
AnchorPoint: "Anchor-9" 204 696 basechar 0
AnchorPoint: "Anchor-8" 0 0 basechar 0
LayerCount: 2
Fore
SplineSet
230 158 m 1
 487 158 l 1
 445 0 l 1
 6 0 l 1
 103 696 l 1
 305 696 l 1
 230 158 l 1
EndSplineSet
Substitution2: "'c2sc' Capitals to Small Capitals lookup 23 subtable" l.sc
Substitution2: "'aalt' Access All Alternates lookup 0 subtable" l.sc
Position2: "'cpsp' Capital Spacing lookup 0 subtable" dx=5 dy=0 dh=10 dv=0
EndChar

StartChar: P
Encoding: 80 80 83
Width: 600
GlyphClass: 2
Flags: MW
HStem: 0 21G<6 208 6 6> 217 145<258 304 304 306 238 304> 553 143<285 328 285 285>
VStem: 409 208<460.5 505.5>
LayerCount: 2
Fore
SplineSet
349 696 m 2
 516 696 617 627 617 495 c 0
 617 370 534 217 306 217 c 2
 238 217 l 1
 208 0 l 1
 6 0 l 1
 103 696 l 1
 349 696 l 2
304 362 m 2
 389 362 409 438 409 483 c 0
 409 528 385 553 328 553 c 2
 285 553 l 1
 258 362 l 1
 304 362 l 2
EndSplineSet
Substitution2: "'c2sc' Capitals to Small Capitals lookup 23 subtable" p.sc
Substitution2: "'aalt' Access All Alternates lookup 0 subtable" p.sc
Position2: "'cpsp' Capital Spacing lookup 0 subtable" dx=5 dy=0 dh=10 dv=0
EndChar
StartChar: Q
Encoding: 81 81 216
Width: 678
GlyphClass: 2
Flags: MW
HStem: -20 66 -20 146<288.5 365.5> 570 146<319.5 412.5>
VStem: 25 208<203.5 297 203.5 363> 468 208<399 494>
LayerCount: 2
Back
Fore
SplineSet
479 46 m 1xb8
 583 42 635 20 682 -20 c 1
 543 -176 l 1
 498 -103 430 -20 301 -20 c 0x78
 121 -20 25 89 25 268 c 0
 25 458 112 716 400 716 c 0
 580 716 676 609 676 429 c 0
 676 292 630 125 479 46 c 1xb8
233 246 m 0x78
 233 161 260 126 317 126 c 0
 446 126 468 346 468 452 c 0
 468 536 441 570 384 570 c 0
 255 570 233 348 233 246 c 0x78
EndSplineSet
Substitution2: "'c2sc' Capitals to Small Capitals lookup 27 subtable" q.sc
Substitution2: "'aalt' Access All Alternates lookup 0 subtable" q.sc
Position2: "'cpsp' Capital Spacing lookup 0 subtable" dx=5 dy=0 dh=10 dv=0
EndChar

StartChar: S
Encoding: 83 83 90
Width: 576
GlyphClass: 2
Flags: MW
HStem: -20 154<213 277 213 361> 570 146<327 380.5>
VStem: 58 213<497.5 530.5 497.5 545> 342 214<178.5 216>
AnchorPoint: "Anchor-11" 250 0 basechar 0
AnchorPoint: "Anchor-10" 0 0 basechar 0
AnchorPoint: "Anchor-9" 361 696 basechar 0
AnchorPoint: "Anchor-8" 0 0 basechar 0
LayerCount: 2
Fore
SplineSet
353 716 m 0
 457 716 537 681 594 620 c 1
 492 515 l 1
 451 552 407 570 354 570 c 0
 300 570 271 547 271 514 c 0
 271 481 297 470 380 440 c 1
 500 400 556 337 556 238 c 0
 556 118 478 -20 244 -20 c 0
 115 -20 29 31 -25 86 c 1
 88 201 l 1
 131 158 182 134 244 134 c 0
 310 134 342 160 342 197 c 0
 342 235 319 259 244 285 c 1
 105 331 58 399 58 488 c 0
 58 602 144 716 353 716 c 0
EndSplineSet
Substitution2: "'c2sc' Capitals to Small Capitals lookup 23 subtable" s.sc
Substitution2: "'aalt' Access All Alternates lookup 0 subtable" s.sc
Position2: "'cpsp' Capital Spacing lookup 0 subtable" dx=5 dy=0 dh=10 dv=0
EndChar

StartChar: T
Encoding: 84 84 96
Width: 542
GlyphClass: 2
Flags: MW
HStem: 0 21G<133 335 133 133> 542 154<64 209 43 608 411 566 411 411>
VStem: 43 565<542 696>
AnchorPoint: "Anchor-11" 234 0 basechar 0
AnchorPoint: "Anchor-10" 0 0 basechar 0
AnchorPoint: "Anchor-9" 331 696 basechar 0
AnchorPoint: "Anchor-8" 0 0 basechar 0
LayerCount: 2
Fore
SplineSet
566 542 m 1
 411 542 l 1
 335 0 l 1
 133 0 l 1
 209 542 l 1
 43 542 l 1
 64 696 l 1
 608 696 l 1
 566 542 l 1
EndSplineSet
Substitution2: "'c2sc' Capitals to Small Capitals lookup 23 subtable" t.sc
Substitution2: "'aalt' Access All Alternates lookup 0 subtable" t.sc
Position2: "'cpsp' Capital Spacing lookup 0 subtable" dx=5 dy=0 dh=10 dv=0
EndChar
StartChar: V
Encoding: 86 86 282
Width: 567
GlyphClass: 2
Flags: MW
HStem: 0 21G<123 383 123 123> 0 143<274 274 274 383> 676 20G<36 247 247 247 444 653 653 653>
VStem: 36 617<696 696>
LayerCount: 2
Back
Fore
SplineSet
653 696 m 1xb0
 383 0 l 1
 123 0 l 1
 36 696 l 1
 247 696 l 1
 274 143 l 1x70
 444 696 l 1
 653 696 l 1xb0
EndSplineSet
Substitution2: "'c2sc' Capitals to Small Capitals lookup 27 subtable" v.sc
Substitution2: "'aalt' Access All Alternates lookup 0 subtable" v.sc
Position2: "'cpsp' Capital Spacing lookup 0 subtable" dx=5 dy=0 dh=10 dv=0
EndChar
StartChar: Z
Encoding: 90 90 306
Width: 545
GlyphClass: 2
Flags: MW
HStem: 0 161<237 474> 540 156<97 326 76 582>
VStem: -28 610
AnchorPoint: "Anchor-14" 0 0 basechar 0
AnchorPoint: "Anchor-13" 0 0 basechar 0
AnchorPoint: "Anchor-12" 333 696 basechar 0
AnchorPoint: "Anchor-11" 0 0 basechar 0
AnchorPoint: "Anchor-10" 223 0 basechar 0
LayerCount: 2
Back
Fore
SplineSet
-28 0 m 1
 -8 151 l 1
 326 540 l 1
 76 540 l 1
 97 696 l 1
 582 696 l 1
 561 543 l 1
 237 161 l 1
 516 161 l 1
 474 0 l 1
 -28 0 l 1
EndSplineSet
Substitution2: "'c2sc' Capitals to Small Capitals lookup 27 subtable" z.sc
Substitution2: "'aalt' Access All Alternates lookup 0 subtable" z.sc
Position2: "'cpsp' Capital Spacing lookup 0 subtable" dx=5 dy=0 dh=10 dv=0
EndChar
StartChar: bracketleft
Encoding: 91 91 2148
Width: 313
Flags: MW
HStem: -127 142<161 251> 684 143<255 365 255 255>
VStem: -44 429
LayerCount: 2
Back
Fore
SplineSet
385 827 m 1
 365 684 l 1
 255 684 l 1
 161 15 l 1
 271 15 l 1
 251 -127 l 1
 -44 -127 l 1
 91 827 l 1
 385 827 l 1
EndSplineSet
Substitution2: "'case' Case-Sensitive Forms lookup 29 subtable" bracketleft.case
Substitution2: "'aalt' Access All Alternates lookup 0 subtable" bracketleft.case
EndChar
StartChar: backslash
Encoding: 92 92 2119
Width: 508
Flags: MW
HStem: -117 939<231 300>
VStem: 124 284
LayerCount: 2
Back
Fore
SplineSet
300 822 m 1
 408 -77 l 1
 231 -117 l 1
 124 782 l 1
 300 822 l 1
EndSplineSet
EndChar
StartChar: bracketright
Encoding: 93 93 2149
Width: 313
Flags: MW
HStem: -127 143<-27 83 -27 247 -48 83> 685 142<87 177 67 381>
VStem: -48 429
LayerCount: 2
Back
Fore
SplineSet
381 827 m 1
 247 -127 l 1
 -48 -127 l 1
 -27 16 l 1
 83 16 l 1
 177 685 l 1
 67 685 l 1
 87 827 l 1
 381 827 l 1
EndSplineSet
Substitution2: "'case' Case-Sensitive Forms lookup 29 subtable" bracketright.case
Substitution2: "'aalt' Access All Alternates lookup 0 subtable" bracketright.case
EndChar

StartChar: asciicircum
Encoding: 94 94 1230
Width: 558
Flags: MW
HStem: 705 142<340 340>
VStem: 40 550<527 527>
LayerCount: 2
Fore
SplineSet
590 527 m 1
 405 527 l 1
 340 705 l 1
 231 527 l 1
 40 527 l 1
 271 847 l 1
 449 847 l 1
 590 527 l 1
EndSplineSet
EndChar

StartChar: underscore
Encoding: 95 95 997
Width: 508
Flags: MW
HStem: -188 150<-39 440 -60 461>
VStem: -60 521<-188 -38>
LayerCount: 2
Fore
SplineSet
-39 -38 m 1
 461 -38 l 1
 440 -188 l 1
 -60 -188 l 1
 -39 -38 l 1
EndSplineSet
EndChar

StartChar: grave
Encoding: 96 96 1259
Width: 352
Flags: MW
HStem: 691 20G<386 386> 692 20G<90 90>
VStem: 90 296<711 712>
LayerCount: 2
Fore
SplineSet
386 711 m 1xa0
 322 613 l 1xa0
 90 712 l 1x60
 182 856 l 1
 386 711 l 1xa0
EndSplineSet
Substitution2: "'case' Case-Sensitive Forms lookup 25 subtable" grave.case
Substitution2: "'smcp' Lowercase to Small Capitals lookup 24 subtable" grave.sc
Substitution2: "'c2sc' Capitals to Small Capitals lookup 23 subtable" grave.sc
AlternateSubs2: "'aalt' Access All Alternates lookup 1 subtable" grave.sc grave.case
EndChar

StartChar: a
Encoding: 97 97 134
Width: 573
GlyphClass: 2
Flags: MW
HStem: -20 21G<128 224> -20 142<128 265> -16 21G<485 485> 418 136<278.5 329>
VStem: 10 199<165 245 165 275.5>
AnchorPoint: "Anchor-11" 0 0 basechar 0
AnchorPoint: "Anchor-10" 0 0 basechar 0
AnchorPoint: "Anchor-9" 346 534 basechar 0
AnchorPoint: "Anchor-8" 493 -16 basechar 0
LayerCount: 2
Fore
SplineSet
329 554 m 0x38
 404 554 491 535 565 491 c 1
 519 172 l 2
 518 163 517 155 517 148 c 0
 517 127 524 117 541 110 c 1
 485 -16 l 1x38
 423 -12 365 15 344 72 c 1
 310 19 261 -20 187 -20 c 0x98
 69 -20 10 64 10 197 c 0
 10 354 93 554 329 554 c 0x38
321 418 m 0
 236 418 209 292 209 198 c 0
 209 132 230 122 252 122 c 0
 278 122 305 141 329 182 c 1x58
 363 412 l 1
 348 416 337 418 321 418 c 0
EndSplineSet
Substitution2: "Single Substitution lookup 30 subtable" ordfeminine
Substitution2: "'smcp' Lowercase to Small Capitals lookup 24 subtable" a.sc
AlternateSubs2: "'aalt' Access All Alternates lookup 1 subtable" ordfeminine a.sc
EndChar
StartChar: b
Encoding: 98 98 371
Width: 583
GlyphClass: 2
Flags: MW
HStem: -20 141<255.5 305.5 255.5 379> 412 142<312.5 462.5> 534 20G<382 462.5> 744 20G
VStem: 372 199<293.5 369>
AnchorPoint: "Anchor-14" 0 0 basechar 0
AnchorPoint: "Anchor-13" 0 0 basechar 0
AnchorPoint: "Anchor-12" 401 744 basechar 0
AnchorPoint: "Anchor-11" 0 0 basechar 0
AnchorPoint: "Anchor-10" 254 0 basechar 0
LayerCount: 2
Back
Fore
SplineSet
303 764 m 1xb8
 265 493 l 1
 300 530 357 554 407 554 c 0
 518 554 571 478 571 347 c 0
 571 191 514 -20 244 -20 c 0
 156 -20 77 -1 7 30 c 1
 107 744 l 1
 303 764 l 1xb8
326 412 m 0xd8
 299 412 272 396 247 359 c 1
 215 131 l 1
 228 126 245 121 266 121 c 0
 345 121 372 249 372 338 c 0
 372 400 351 412 326 412 c 0xd8
EndSplineSet
Substitution2: "'smcp' Lowercase to Small Capitals lookup 28 subtable" b.sc
Substitution2: "'aalt' Access All Alternates lookup 0 subtable" b.sc
EndChar

StartChar: c
Encoding: 99 99 147
Width: 468
GlyphClass: 2
Flags: MW
HStem: -20 153<263 294> 405 149<280.5 342>
VStem: 11 203<180 251.5 180 286>
AnchorPoint: "Anchor-11" 234 0 basechar 0
AnchorPoint: "Anchor-10" 0 0 basechar 0
AnchorPoint: "Anchor-9" 322 534 basechar 0
AnchorPoint: "Anchor-8" 0 0 basechar 0
LayerCount: 2
Fore
SplineSet
326 554 m 0
 399 554 461 527 506 480 c 1
 413 369 l 1
 385 395 357 405 327 405 c 0
 234 405 214 291 214 212 c 0
 214 148 243 133 283 133 c 0
 316 133 341 145 378 168 c 1
 448 44 l 1
 394 5 333 -20 255 -20 c 0
 100 -20 11 74 11 217 c 0
 11 355 98 554 326 554 c 0
EndSplineSet
Substitution2: "'smcp' Lowercase to Small Capitals lookup 24 subtable" c.sc
Substitution2: "'aalt' Access All Alternates lookup 0 subtable" c.sc
EndChar

StartChar: d
Encoding: 100 100 153
Width: 589
GlyphClass: 2
Flags: MW
HStem: -20 21G<124.5 219.5> 0 122<245 511 245 338> 413 141<278 303 183.5 330.5> 744 20G
VStem: 15 200<166 238.5 166 272>
LayerCount: 2
Fore
SplineSet
615 744 m 1xb8
 511 0 l 1
 338 0 l 1x78
 339 69 l 1
 307 25 257 -20 182 -20 c 0
 67 -20 15 61 15 197 c 0
 15 347 84 554 283 554 c 0
 323 554 362 538 388 511 c 1
 423 764 l 1
 615 744 l 1xb8
319 413 m 0
 237 413 215 278 215 199 c 0
 215 133 234 122 256 122 c 0
 288 122 321 166 345 205 c 1
 371 389 l 1
 356 406 342 413 319 413 c 0
EndSplineSet
Substitution2: "'smcp' Lowercase to Small Capitals lookup 24 subtable" d.sc
Substitution2: "'aalt' Access All Alternates lookup 0 subtable" d.sc
EndChar

StartChar: f
Encoding: 102 102 167
Width: 357
GlyphClass: 2
Flags: MW
HStem: -227 21G<-44 -44> 400 134<33 85 15 104 298 380> 622 142<350 379.5> 697 20G<512 512>
VStem: -91 603
LayerCount: 2
Fore
SplineSet
369 622 m 0xe8
 331 622 308 604 301 554 c 2
 298 534 l 1
 420 534 l 1
 380 400 l 1
 279 400 l 1
 234 76 l 2
 208 -112 91 -184 -44 -227 c 1
 -91 -86 l 1
 -13 -59 27 -21 39 66 c 2
 85 400 l 1
 15 400 l 1
 33 534 l 1
 104 534 l 1
 108 566 l 1
 123 677 205 764 350 764 c 0xe8
 421 764 478 741 512 717 c 1xd8
 446 602 l 1
 420 617 390 622 369 622 c 0xe8
EndSplineSet
Substitution2: "'smcp' Lowercase to Small Capitals lookup 24 subtable" f.sc
Substitution2: "'aalt' Access All Alternates lookup 0 subtable" f.sc
EndChar

StartChar: g
Encoding: 103 103 168
Width: 574
GlyphClass: 2
Flags: MW
HStem: -227 145<185 230.5 185 303> 0 21G 0 144<129 270> 418 136<282 334.5>
VStem: 11 199<186.5 255 186.5 281.5>
AnchorPoint: "Anchor-11" 0 0 basechar 0
AnchorPoint: "Anchor-10" 0 0 basechar 0
AnchorPoint: "Anchor-9" 333 534 basechar 0
AnchorPoint: "Anchor-8" 0 0 basechar 0
LayerCount: 2
Fore
SplineSet
334 554 m 0xd8
 409 554 496 535 570 491 c 1
 509 58 l 2
 481 -139 400 -227 206 -227 c 0
 139 -227 58 -203 -4 -164 c 1
 59 -40 l 1
 119 -72 165 -82 205 -82 c 0
 256 -82 303 -67 316 21 c 1
 323 63 l 1
 290 26 245 0 188 0 c 0
 70 0 11 87 11 211 c 0
 11 352 93 554 334 554 c 0xd8
327 418 m 0
 237 418 210 292 210 218 c 0
 210 155 234 144 256 144 c 0
 284 144 312 166 336 202 c 1xb8
 368 412 l 1
 353 416 342 418 327 418 c 0
EndSplineSet
Substitution2: "'smcp' Lowercase to Small Capitals lookup 24 subtable" g.sc
Substitution2: "'aalt' Access All Alternates lookup 0 subtable" g.sc
EndChar
StartChar: i
Encoding: 105 105 477
Width: 276
GlyphClass: 2
Flags: MW
HStem: 0 21G<4 198 4 4> 514 20G<78 272 272 272> 617 212<183.5 220.5>
VStem: 4 307.83
AnchorPoint: "Anchor-14" 0 0 basechar 0
AnchorPoint: "Anchor-13" 0 0 basechar 0
AnchorPoint: "Anchor-12" 215 829 basechar 0
AnchorPoint: "Anchor-11" 169 0 basechar 0
AnchorPoint: "Anchor-10" 101 0 basechar 0
LayerCount: 2
Back
Fore
SplineSet
215 829 m 0
 280 829 319 782 311 720 c 0
 303 662 252 617 189 617 c 0
 124 617 85 664 93 726 c 0
 101 784 152 829 215 829 c 0
272 534 m 1
 198 0 l 1
 4 0 l 1
 78 534 l 1
 272 534 l 1
EndSplineSet
Substitution2: "'smcp' Lowercase to Small Capitals lookup 28 subtable" i.sc
Substitution2: "'locl' Localized Forms in Latin lookup 10 subtable" i.loclTRK
Substitution2: "'locl' Localized Forms in Latin lookup 8 subtable" i.loclTRK
Substitution2: "'locl' Localized Forms in Latin lookup 6 subtable" i.loclTRK
Substitution2: "'locl' Localized Forms in Latin lookup 3 subtable" i.loclTRK
Substitution2: "'locl' Localized Forms in Latin lookup 2 subtable" i.loclTRK
AlternateSubs2: "'aalt' Access All Alternates lookup 1 subtable" i.loclTRK i.sc
EndChar

StartChar: j
Encoding: 106 106 188
Width: 271
GlyphClass: 2
Flags: MW
HStem: -227 21G<-74 -74> 514 20G<74 268 268 268> 617 212<179.5 216.5>
VStem: 89 218
AnchorPoint: "Anchor-11" 0 0 basechar 0
AnchorPoint: "Anchor-10" 0 0 basechar 0
AnchorPoint: "Anchor-9" 171 534 basechar 0
AnchorPoint: "Anchor-8" 0 0 basechar 0
LayerCount: 2
Fore
SplineSet
211 829 m 0
 276 829 315 782 307 720 c 0
 299 662 248 617 185 617 c 0
 120 617 81 664 89 726 c 0
 97 784 148 829 211 829 c 0
204 76 m 2
 178 -112 61 -184 -74 -227 c 1
 -121 -86 l 1
 -43 -59 -3 -21 9 66 c 2
 74 534 l 1
 268 534 l 1
 204 76 l 2
EndSplineSet
Substitution2: "'smcp' Lowercase to Small Capitals lookup 24 subtable" j.sc
Substitution2: "'aalt' Access All Alternates lookup 0 subtable" j.sc
EndChar

StartChar: k
Encoding: 107 107 191
Width: 581
GlyphClass: 2
Flags: MW
HStem: 0 21G<4 199 4 4 331 543 331 331> 421 133<340.5 486> 534 20G<407 486> 744 20G
VStem: 4 586<0 462> 394 196<382 397>
AnchorPoint: "Anchor-11" 264 0 basechar 0
AnchorPoint: "Anchor-10" 0 0 basechar 0
AnchorPoint: "Anchor-9" 0 0 basechar 0
AnchorPoint: "Anchor-8" 0 0 basechar 0
LayerCount: 2
Fore
SplineSet
265 478 m 1xb8
 321 533 376 554 438 554 c 0
 534 554 590 501 590 423 c 0
 590 341 547 280 457 238 c 1
 543 0 l 1
 331 0 l 1
 253 256 l 1
 365 295 394 340 394 385 c 0
 394 409 380 421 356 421 c 0xd4
 325 421 288 398 246 337 c 1xd8
 199 0 l 1
 4 0 l 1
 108 744 l 1
 305 764 l 1
 265 478 l 1xb8
EndSplineSet
Substitution2: "'smcp' Lowercase to Small Capitals lookup 24 subtable" k.sc
Substitution2: "'aalt' Access All Alternates lookup 0 subtable" k.sc
EndChar

StartChar: l
Encoding: 108 108 194
Width: 289
GlyphClass: 2
Flags: MW
HStem: -20 21G 1 21G<273 273> 744 20G
VStem: 17.14 281.86
AnchorPoint: "Anchor-11" 145 0 basechar 0
AnchorPoint: "Anchor-10" 0 0 basechar 0
AnchorPoint: "Anchor-9" 200 744 basechar 0
AnchorPoint: "Anchor-8" 0 0 basechar 0
LayerCount: 2
Fore
SplineSet
216 171 m 2x70
 212 142 222 135 235 135 c 0
 240 135 248 137 255 139 c 1
 273 1 l 1
 243 -12 198 -20 157 -20 c 0xb0
 56 -20 4 41 20 152 c 2
 103 744 l 1
 299 764 l 1
 216 171 l 2x70
EndSplineSet
Substitution2: "'smcp' Lowercase to Small Capitals lookup 24 subtable" l.sc
Substitution2: "'aalt' Access All Alternates lookup 0 subtable" l.sc
EndChar

StartChar: m
Encoding: 109 109 200
Width: 821
GlyphClass: 2
Flags: MW
HStem: 0 21G<4 198 4 4 279 473 279 279 554 748 554 554> 393 141<78 321> 514 20G<78 247 247 247> 534 20G
VStem: 608.26 197.21
LayerCount: 2
Fore
SplineSet
683 554 m 0x98
 771 554 817 495 803 393 c 2
 748 0 l 1
 554 0 l 1
 606 341 l 2
 613 383 603 393 589 393 c 0
 569 393 539 356 513 286 c 1
 473 0 l 1
 279 0 l 1
 331 341 l 2
 338 383 328 393 314 393 c 0xc8
 293 393 261 354 238 281 c 1
 198 0 l 1
 4 0 l 1
 78 534 l 1
 247 534 l 1xa8
 248 456 l 1
 287 518 350 554 408 554 c 0
 474 554 516 521 527 462 c 1
 568 518 630 554 683 554 c 0x98
EndSplineSet
Substitution2: "'smcp' Lowercase to Small Capitals lookup 24 subtable" m.sc
Substitution2: "'aalt' Access All Alternates lookup 0 subtable" m.sc
EndChar
StartChar: n
Encoding: 110 110 535
Width: 560
GlyphClass: 2
Flags: MW
HStem: 0 21G<4 198 4 4 293 487 293 293> 393 141<78 331.5> 514 20G<78 247 247 247> 534 20G
VStem: 4 540.47 341 203.47
AnchorPoint: "Anchor-14" 0 0 basechar 0
AnchorPoint: "Anchor-13" 0 0 basechar 0
AnchorPoint: "Anchor-12" 322 534 basechar 0
AnchorPoint: "Anchor-11" 0 0 basechar 0
AnchorPoint: "Anchor-10" 246 0 basechar 0
LayerCount: 2
Back
Fore
SplineSet
427 554 m 0x94
 510 554 556 495 542 393 c 2
 487 0 l 1
 293 0 l 1
 341 341 l 2
 347 383 338 393 325 393 c 0xc4
 301 393 273 353 238 278 c 1
 198 0 l 1
 4 0 l 1
 78 534 l 1
 247 534 l 1xa8
 248 446 l 1
 290 511 359 554 427 554 c 0x94
EndSplineSet
Substitution2: "'smcp' Lowercase to Small Capitals lookup 28 subtable" n.sc
Substitution2: "'aalt' Access All Alternates lookup 0 subtable" n.sc
EndChar
StartChar: p
Encoding: 112 112 593
Width: 588
GlyphClass: 2
Flags: MW
HStem: -227 21G<-28 -28> -20 141<264 306.5 256.5 396> -6 21G<196 196> 412 122<78 339.5> 534 20G
VStem: 373 199<293.5 369>
AnchorPoint: "Anchor-14" 0 0 basechar 0
AnchorPoint: "Anchor-13" 0 0 basechar 0
AnchorPoint: "Anchor-12" 331 534 basechar 0
AnchorPoint: "Anchor-11" 0 0 basechar 0
AnchorPoint: "Anchor-10" 232 -215 basechar 0
LayerCount: 2
Back
Fore
SplineSet
406 554 m 0xcc
 519 554 572 478 572 347 c 0
 572 191 503 -20 289 -20 c 0xcc
 239 -20 211 -12 196 -6 c 1
 166 -207 l 1
 -28 -227 l 1
 78 534 l 1
 251 534 l 1xb4
 252 479 l 1
 305 534 362 554 406 554 c 0xcc
327 412 m 0xd4
 300 412 273 396 248 360 c 1
 216 131 l 1
 229 126 246 121 267 121 c 0
 346 121 373 249 373 338 c 0
 373 400 352 412 327 412 c 0xd4
EndSplineSet
Substitution2: "'smcp' Lowercase to Small Capitals lookup 28 subtable" p.sc
Substitution2: "'aalt' Access All Alternates lookup 0 subtable" p.sc
EndChar

StartChar: q
Encoding: 113 113 222
Width: 572
GlyphClass: 2
Flags: MW
HStem: -227 21G<270 270> -20 21G<126 215.5> -20 142<126 267.5> 418 136<280.5 331>
VStem: 9 199<165 245 165 280>
LayerCount: 2
Fore
SplineSet
331 554 m 0xd8
 406 554 493 535 567 491 c 1
 470 -207 l 1
 270 -227 l 1
 312 36 l 1
 299 16 248 -20 183 -20 c 0
 69 -20 9 64 9 197 c 0
 9 363 95 554 331 554 c 0xd8
323 418 m 0
 238 418 208 292 208 198 c 0
 208 132 231 122 254 122 c 0
 281 122 307 141 331 182 c 1xb8
 365 412 l 1
 350 416 339 418 323 418 c 0
EndSplineSet
Substitution2: "'smcp' Lowercase to Small Capitals lookup 24 subtable" q.sc
Substitution2: "'aalt' Access All Alternates lookup 0 subtable" q.sc
EndChar
StartChar: v
Encoding: 118 118 686
Width: 514
GlyphClass: 2
Flags: MW
HStem: 0 21G<107 340 107 107> 0 143<244 244 244 340 107 244> 514 20G<21 229 229 229 365 567 567 567>
VStem: 21 546<534 534>
AnchorPoint: "Anchor-14" 0 0 basechar 0
AnchorPoint: "Anchor-13" 0 0 basechar 0
AnchorPoint: "Anchor-12" 297 534 basechar 0
AnchorPoint: "Anchor-11" 0 0 basechar 0
AnchorPoint: "Anchor-10" 224 0 basechar 0
LayerCount: 2
Back
Fore
SplineSet
567 534 m 1xb0
 340 0 l 1
 107 0 l 1
 21 534 l 1
 229 534 l 1
 244 143 l 1x70
 365 534 l 1
 567 534 l 1xb0
EndSplineSet
Substitution2: "'smcp' Lowercase to Small Capitals lookup 28 subtable" v.sc
Substitution2: "'aalt' Access All Alternates lookup 0 subtable" v.sc
EndChar
StartChar: x
Encoding: 120 120 698
Width: 518
GlyphClass: 2
Flags: MW
HStem: 0 21G<-57 151 -57 -57 286 499 286 286> 514 20G<30 244 244 244 341 545 545 545>
VStem: -57 602<0 534>
AnchorPoint: "Anchor-14" 0 0 basechar 0
AnchorPoint: "Anchor-13" 0 0 basechar 0
AnchorPoint: "Anchor-12" 292 534 basechar 0
AnchorPoint: "Anchor-11" 0 0 basechar 0
AnchorPoint: "Anchor-10" 219 0 basechar 0
LayerCount: 2
Back
Fore
SplineSet
545 534 m 1
 379 282 l 1
 499 0 l 1
 286 0 l 1
 242 178 l 1
 151 0 l 1
 -57 0 l 1
 141 283 l 1
 30 534 l 1
 244 534 l 1
 273 377 l 1
 341 534 l 1
 545 534 l 1
EndSplineSet
Substitution2: "'smcp' Lowercase to Small Capitals lookup 28 subtable" x.sc
Substitution2: "'sups' Superscript lookup 15 subtable" uni02E3
AlternateSubs2: "'aalt' Access All Alternates lookup 1 subtable" uni02E3 x.sc
EndChar
StartChar: z
Encoding: 122 122 712
Width: 460
GlyphClass: 2
Flags: MW
HStem: 0 146<229 398> 390 144<60 222 40 482>
VStem: -34 516
AnchorPoint: "Anchor-14" 0 0 basechar 0
AnchorPoint: "Anchor-13" 0 0 basechar 0
AnchorPoint: "Anchor-12" 271 534 basechar 0
AnchorPoint: "Anchor-11" 0 0 basechar 0
AnchorPoint: "Anchor-10" 182 0 basechar 0
LayerCount: 2
Back
Fore
SplineSet
482 534 m 1
 464 397 l 1
 229 146 l 1
 435 146 l 1
 398 0 l 1
 -34 0 l 1
 -16 138 l 1
 222 390 l 1
 40 390 l 1
 60 534 l 1
 482 534 l 1
EndSplineSet
Substitution2: "'smcp' Lowercase to Small Capitals lookup 28 subtable" z.sc
Substitution2: "'aalt' Access All Alternates lookup 0 subtable" z.sc
EndChar

StartChar: braceleft
Encoding: 123 123 1005
Width: 313
Flags: MW
HStem: -142 134<234.5 245> 708 134<336 363>
VStem: 22.63 185.37 49.29 183.63
LayerCount: 2
Fore
SplineSet
363 708 m 1xd0
 309 708 298 692 292 653 c 2
 271 499 l 2
 257 400 209 366 132 348 c 1
 201 336 245 305 230 199 c 2xd0
 208 45 l 2
 203 6 208 -8 261 -8 c 1
 245 -142 l 1xe0
 62 -142 10 -77 25 33 c 2
 46 186 l 2
 55 246 48 269 -4 269 c 1
 19 431 l 1
 69 431 85 456 93 516 c 2
 114 669 l 2
 130 780 177 842 381 842 c 1
 363 708 l 1xd0
EndSplineSet
Substitution2: "'case' Case-Sensitive Forms lookup 25 subtable" braceleft.case
Substitution2: "'aalt' Access All Alternates lookup 0 subtable" braceleft.case
EndChar
StartChar: bar
Encoding: 124 124 2376
Width: 348
GlyphClass: 2
Flags: MW
HStem: -107 919<159 213 31 341>
VStem: 31 310
LayerCount: 2
Back
Fore
SplineSet
341 812 m 1
 213 -107 l 1
 31 -107 l 1
 159 812 l 1
 341 812 l 1
EndSplineSet
EndChar

StartChar: braceright
Encoding: 125 125 1006
Width: 313
Flags: MW
HStem: -142 134<-27 0 -27 57> 708 134<91 101.5>
VStem: 103.06 183.64 128 185.35
LayerCount: 2
Fore
SplineSet
-27 -8 m 1xe0
 27 -8 38 8 44 47 c 2
 65 201 l 2
 79 300 127 334 204 352 c 1
 135 364 91 395 106 501 c 2xe0
 128 655 l 2
 133 694 128 708 75 708 c 1
 91 842 l 1xd0
 274 842 326 777 311 667 c 2
 290 514 l 2
 281 454 288 431 340 431 c 1
 317 269 l 1
 267 269 251 244 243 184 c 2
 222 31 l 2
 206 -80 159 -142 -45 -142 c 1
 -27 -8 l 1xe0
EndSplineSet
Substitution2: "'case' Case-Sensitive Forms lookup 25 subtable" braceright.case
Substitution2: "'aalt' Access All Alternates lookup 0 subtable" braceright.case
EndChar

StartChar: exclamdown
Encoding: 161 161 988
Width: 224
Flags: MW
HStem: -207 21G<-55 149 -55 -55> 312 206<117.5 153>
VStem: 33 204<228 452.5 396.5 434.5>
LayerCount: 2
Fore
SplineSet
148 518 m 0
 199 518 237 478 237 427 c 0
 237 366 183 312 123 312 c 0
 70 312 33 353 33 405 c 0
 33 464 87 518 148 518 c 0
149 -207 m 1
 -55 -207 l 1
 33 228 l 1
 185 228 l 1
 149 -207 l 1
EndSplineSet
Substitution2: "'case' Case-Sensitive Forms lookup 25 subtable" exclamdown.case
Substitution2: "'aalt' Access All Alternates lookup 0 subtable" exclamdown.case
EndChar
StartChar: cent
Encoding: 162 162 2204
Width: 469
GlyphClass: 2
Flags: MW
HStem: -18 21G<297 297> -8 21G<166 166> 676 20G<265 396 396 396>
VStem: 12 203<180 251.5 180 277>
LayerCount: 2
Back
Fore
SplineSet
379 168 m 1x70
 449 44 l 1
 405 12 356 -10 297 -18 c 1xb0
 276 -165 l 1
 143 -165 l 1
 166 -8 l 1
 67 22 12 105 12 217 c 0
 12 337 77 502 243 544 c 1
 265 696 l 1
 396 696 l 1
 376 550 l 1
 428 540 472 516 507 480 c 1
 414 369 l 1
 386 395 358 405 328 405 c 0
 235 405 215 291 215 212 c 0
 215 148 244 133 284 133 c 0
 317 133 342 145 379 168 c 1x70
EndSplineSet
Substitution2: "'onum' Oldstyle Figures lookup 26 subtable" cent.osf
Substitution2: "'tnum' Tabular Numbers lookup 25 subtable" cent.tf
AlternateSubs2: "'aalt' Access All Alternates lookup 1 subtable" cent.tf cent.osf
EndChar
StartChar: sterling
Encoding: 163 163 2213
Width: 554
GlyphClass: 2
Flags: MW
HStem: 0 145.5 304 95<53 107 39 120 311 464> 552 144<370 407>
VStem: -18 602<0 586>
LayerCount: 2
Back
Fore
SplineSet
380 696 m 0
 478 696 543 658 584 586 c 1
 460 505 l 1
 442 543 422 552 392 552 c 0
 348 552 328 531 322 483 c 2
 311 399 l 1
 478 399 l 1
 464 304 l 1
 298 304 l 1
 292 262 l 2
 284 212 269 175 211 145 c 1
 504 146 l 1
 462 0 l 1
 -18 0 l 1
 1 139 l 1
 84 160 93 198 99 251 c 2
 107 304 l 1
 39 304 l 1
 53 399 l 1
 120 399 l 1
 132 487 l 2
 149 614 231 696 380 696 c 0
EndSplineSet
Substitution2: "'onum' Oldstyle Figures lookup 26 subtable" sterling.osf
Substitution2: "'tnum' Tabular Numbers lookup 25 subtable" sterling.tf
AlternateSubs2: "'aalt' Access All Alternates lookup 1 subtable" sterling.tf sterling.osf
EndChar

StartChar: brokenbar
Encoding: 166 166 1219
Width: 348
Flags: MW
HStem: -107 919<159 213 31 341>
VStem: 31 310
LayerCount: 2
Fore
SplineSet
290 443 m 1
 107 443 l 1
 159 812 l 1
 341 812 l 1
 290 443 l 1
213 -107 m 1
 31 -107 l 1
 82 262 l 1
 265 262 l 1
 213 -107 l 1
EndSplineSet
EndChar
StartChar: dieresis
Encoding: 168 168 2522
Width: 488
Flags: MW
HStem: 633 185<172.5 204.5 413.5 445.5>
VStem: 95 187 335 187
LayerCount: 2
Back
Fore
SplineSet
199 818 m 0
 253 818 290 776 282 723 c 0
 275 673 232 633 177 633 c 0
 125 633 88 675 95 729 c 0
 102 778 146 818 199 818 c 0
440 818 m 0
 494 818 530 776 522 723 c 0
 515 673 473 633 418 633 c 0
 366 633 328 675 335 729 c 0
 342 778 387 818 440 818 c 0
EndSplineSet
Substitution2: "'case' Case-Sensitive Forms lookup 29 subtable" dieresis.case
Substitution2: "'smcp' Lowercase to Small Capitals lookup 28 subtable" dieresis.sc
Substitution2: "'c2sc' Capitals to Small Capitals lookup 27 subtable" dieresis.sc
AlternateSubs2: "'aalt' Access All Alternates lookup 1 subtable" dieresis.sc dieresis.case
EndChar

StartChar: copyright
Encoding: 169 169 1223
Width: 810
Flags: MW
HStem: 86 96<336 475.5 336 504.5> 230 103<402.5 435.5> 530 103<406 433 353 436> 556 20G<547 547> 681 96<336 475.5>
VStem: 52 111<361 501 361 528> 223 136<395 468.5 395 493> 648 110<361 501>
LayerCount: 2
Fore
SplineSet
406 777 m 0x9f
 603 777 758 625 758 431 c 0
 758 237 603 86 406 86 c 0
 210 86 52 237 52 431 c 0
 52 625 210 777 406 777 c 0x9f
406 681 m 0
 266 681 163 571 163 431 c 0
 163 291 266 182 406 182 c 0
 545 182 648 291 648 431 c 0
 648 571 545 681 406 681 c 0
408 633 m 0xef
 458 633 511 612 547 576 c 1x9f
 491 507 l 1
 465 527 448 530 424 530 c 0
 388 530 359 505 359 432 c 0
 359 358 384 333 421 333 c 0
 451 333 475 342 500 362 c 1
 551 287 l 1
 513 251 462 230 409 230 c 0
 294 230 223 302 223 432 c 0
 223 554 298 633 408 633 c 0xef
EndSplineSet
EndChar

StartChar: ordfeminine
Encoding: 170 170 415
Width: 488
GlyphClass: 2
Flags: MW
HStem: 0 150<13 413 -7 433> 260 121<135 252.5> 442 88<276 281 281 289> 576 120<267.5 271>
VStem: 50 175<395.5 417.5 395.5 419.5> 303 167<549.5 614.5>
LayerCount: 2
Fore
SplineSet
291 696 m 0
 416 696 470 656 470 573 c 0
 470 563 469 547 467 534 c 2
 450 417 l 2
 447 398 445 382 468 374 c 1
 420 264 l 1
 367 267 332 282 308 318 c 1
 271 274 221 260 174 260 c 0
 96 260 50 315 50 381 c 0
 50 458 103 530 276 530 c 2
 300 530 l 1
 301 534 l 2
 302 541 303 547 303 552 c 0
 303 572 289 576 253 576 c 0
 229 576 186 568 142 555 c 1
 119 663 l 1
 175 684 244 696 291 696 c 0
281 442 m 2
 244 442 225 433 225 402 c 0
 225 389 230 381 245 381 c 0
 260 381 274 388 282 395 c 1
 289 442 l 1
 281 442 l 2
13 150 m 1
 433 150 l 1
 413 0 l 1
 -7 0 l 1
 13 150 l 1
EndSplineSet
EndChar
StartChar: guillemotleft
Encoding: 171 171 2177
Width: 648
Flags: MW
HStem: -3 21G<179 179 468 468>
VStem: 16 641<222 488>
LayerCount: 2
Back
Fore
SplineSet
258 569 m 1
 368 488 l 1
 217 283 l 1
 310 78 l 1
 179 -3 l 1
 16 222 l 1
 33 344 l 1
 258 569 l 1
547 569 m 1
 657 488 l 1
 506 283 l 1
 599 78 l 1
 468 -3 l 1
 305 222 l 1
 322 344 l 1
 547 569 l 1
EndSplineSet
Substitution2: "'case' Case-Sensitive Forms lookup 29 subtable" guillemotleft.case
Substitution2: "'aalt' Access All Alternates lookup 0 subtable" guillemotleft.case
EndChar
StartChar: logicalnot
Encoding: 172 172 2263
Width: 536
GlyphClass: 2
Flags: MW
HStem: 257 150<58 341 37 518>
VStem: 37 481<257 407>
LayerCount: 2
Back
Fore
SplineSet
518 407 m 1
 474 97 l 1
 318 97 l 1
 341 257 l 1
 37 257 l 1
 58 407 l 1
 518 407 l 1
EndSplineSet
Substitution2: "'onum' Oldstyle Figures lookup 26 subtable" logicalnot.osf
Substitution2: "'tnum' Tabular Numbers lookup 25 subtable" logicalnot.tf
AlternateSubs2: "'aalt' Access All Alternates lookup 1 subtable" logicalnot.tf logicalnot.osf
EndChar

StartChar: softhyphen
Encoding: 173 173 1028
Width: 398
Flags: MW
HStem: 238 150<49 362 28 383>
VStem: 28 355<238 388>
LayerCount: 2
Fore
SplineSet
49 388 m 1
 383 388 l 1
 362 238 l 1
 28 238 l 1
 49 388 l 1
EndSplineSet
Substitution2: "'case' Case-Sensitive Forms lookup 25 subtable" softhyphen.case
Substitution2: "'aalt' Access All Alternates lookup 0 subtable" softhyphen.case
EndChar
StartChar: uni00AD
Encoding: 173 173 2169
Width: 398
Flags: MW
HStem: 238 150<28 383 49 362>
VStem: 28 355<238 388>
LayerCount: 2
Back
Fore
SplineSet
28 238 m 1
 49 388 l 1
 383 388 l 1
 362 238 l 1
 28 238 l 1
EndSplineSet
Substitution2: "'case' Case-Sensitive Forms lookup 29 subtable" uni00AD.case
Substitution2: "'aalt' Access All Alternates lookup 0 subtable" uni00AD.case
EndChar
StartChar: macron
Encoding: 175 175 2526
Width: 380
Flags: MW
HStem: 648 134<103 403 84 422>
VStem: 84 338<648 782>
LayerCount: 2
Back
Fore
SplineSet
403 648 m 1
 84 648 l 1
 103 782 l 1
 422 782 l 1
 403 648 l 1
EndSplineSet
Substitution2: "'case' Case-Sensitive Forms lookup 29 subtable" macron.case
Substitution2: "'smcp' Lowercase to Small Capitals lookup 28 subtable" macron.sc
Substitution2: "'c2sc' Capitals to Small Capitals lookup 27 subtable" macron.sc
AlternateSubs2: "'aalt' Access All Alternates lookup 1 subtable" macron.sc macron.case
EndChar

StartChar: plusminus
Encoding: 177 177 1117
Width: 536
Flags: MW
HStem: 0 150<22 443 1 464> 360 150<72 203 51 224 380 511 72 359>
VStem: 1 531<0 510>
LayerCount: 2
Fore
SplineSet
380 510 m 1
 532 510 l 1
 511 360 l 1
 359 360 l 1
 336 200 l 1
 180 200 l 1
 203 360 l 1
 51 360 l 1
 72 510 l 1
 224 510 l 1
 245 670 l 1
 402 670 l 1
 380 510 l 1
22 150 m 1
 464 150 l 1
 443 0 l 1
 1 0 l 1
 22 150 l 1
EndSplineSet
Substitution2: "'onum' Oldstyle Figures lookup 22 subtable" plusminus.osf
Substitution2: "'tnum' Tabular Numbers lookup 21 subtable" plusminus.tf
AlternateSubs2: "'aalt' Access All Alternates lookup 1 subtable" plusminus.tf plusminus.osf
EndChar

StartChar: twosuperior
Encoding: 178 178 972
Width: 388
Flags: MW
HStem: 320 105.5 651 104<181.5 202.5>
VStem: 224 145
LayerCount: 2
Fore
SplineSet
218 755 m 0
 333 755 379 686 369 619 c 0
 361 565 338 527 188 425 c 1
 350 426 l 1
 322 320 l 1
 13 320 l 1
 25 418 l 1
 181 541 219 573 224 612 c 0
 227 634 215 651 190 651 c 0
 162 651 142 638 116 610 c 1
 41 673 l 1
 83 720 145 755 218 755 c 0
EndSplineSet
EndChar

StartChar: threesuperior
Encoding: 179 179 973
Width: 388
Flags: MW
HStem: 306 104<143 171 143 217.5> 494 94<152 164 123 178> 523 20G 652 103<187.5 206>
VStem: -2 373.23 214 142
LayerCount: 2
Fore
SplineSet
221 755 m 0xd8
 328 755 379 705 371 641 c 1
 363 594 332 560 260 543 c 1xb4
 323 539 366 507 356 433 c 1
 346 369 279 306 156 306 c 0
 76 306 27 337 -2 379 c 1
 79 448 l 1
 103 420 129 410 157 410 c 0
 185 410 210 423 214 453 c 0
 218 480 203 494 164 494 c 2
 123 494 l 1
 152 588 l 1
 178 588 l 2
 213 588 227 599 231 621 c 0
 234 639 219 652 193 652 c 0xd4
 163 652 133 638 107 617 c 1
 47 693 l 1
 96 735 154 755 221 755 c 0xd8
EndSplineSet
EndChar
StartChar: acute
Encoding: 180 180 2517
Width: 358
Flags: MW
HStem: 613 243<131 337>
VStem: 93 298<712 712>
LayerCount: 2
Back
Fore
SplineSet
337 856 m 1
 391 712 l 1
 131 613 l 1
 93 712 l 1
 337 856 l 1
EndSplineSet
Substitution2: "'case' Case-Sensitive Forms lookup 29 subtable" acute.case
Substitution2: "'smcp' Lowercase to Small Capitals lookup 28 subtable" acute.sc
Substitution2: "'c2sc' Capitals to Small Capitals lookup 27 subtable" acute.sc
Substitution2: "'locl' Localized Forms in Latin lookup 7 subtable" acute.loclPLK
AlternateSubs2: "'aalt' Access All Alternates lookup 1 subtable" acute.loclPLK acute.sc acute.case
EndChar
StartChar: paragraph
Encoding: 182 182 2380
Width: 808
GlyphClass: 2
Flags: MW
HStem: 563 133<503 580 503 503>
VStem: 76.82 690.18
LayerCount: 2
Back
Fore
SplineSet
388 696 m 1
 767 696 l 1
 640 -207 l 1
 470 -228 l 1
 580 563 l 1
 503 563 l 1
 395 -207 l 1
 225 -228 l 1
 292 252 l 1
 135 254 62 345 79 476 c 0
 99 611 207 703 387 696 c 1
 387 695 l 1
 388 696 l 1
EndSplineSet
EndChar
StartChar: cedilla
Encoding: 184 184 2520
Width: 344
Flags: MW
HStem: -275 102<60.5 86 60.5 146.5> -120 136<33 170>
VStem: 121 135
LayerCount: 2
Back
Fore
SplineSet
170 16 m 1
 160 -43 l 1
 223 -51 256 -85 256 -139 c 0
 256 -193 215 -275 78 -275 c 0
 26 -275 -15 -258 -41 -240 c 1
 12 -156 l 1
 31 -167 49 -173 72 -173 c 0
 100 -173 120 -166 121 -146 c 0
 122 -126 96 -120 33 -120 c 1
 67 16 l 1
 170 16 l 1
EndSplineSet
Substitution2: "'case' Case-Sensitive Forms lookup 29 subtable" cedilla.case
Substitution2: "'smcp' Lowercase to Small Capitals lookup 28 subtable" cedilla.sc
Substitution2: "'c2sc' Capitals to Small Capitals lookup 27 subtable" cedilla.sc
AlternateSubs2: "'aalt' Access All Alternates lookup 1 subtable" cedilla.sc cedilla.case
EndChar

StartChar: onesuperior
Encoding: 185 185 971
Width: 388
Flags: MW
HStem: 724 20G<209 336 336 336>
VStem: 38 298<651 744>
LayerCount: 2
Fore
SplineSet
277 320 m 1
 140 320 l 1
 181 614 l 1
 88 558 l 1
 38 651 l 1
 209 744 l 1
 336 744 l 1
 277 320 l 1
EndSplineSet
EndChar
StartChar: uni00B9
Encoding: 185 185 2109
Width: 388
Flags: MW
HStem: 724 20G<209 336 336 336>
VStem: 38 298<651 744>
LayerCount: 2
Back
Fore
SplineSet
336 744 m 1
 277 320 l 1
 140 320 l 1
 181 614 l 1
 88 558 l 1
 38 651 l 1
 209 744 l 1
 336 744 l 1
EndSplineSet
EndChar

StartChar: ordmasculine
Encoding: 186 186 416
Width: 488
GlyphClass: 2
Flags: MW
HStem: 0 150<6 427 -15 448> 260 122<246.5 288.5 246.5 347> 574 122<259.5 301>
VStem: 50 173<414.5 458 414.5 491> 325 173<500 543>
LayerCount: 2
Fore
SplineSet
296 696 m 0
 417 696 498 635 498 517 c 0
 498 413 443 260 251 260 c 0
 131 260 50 321 50 437 c 0
 50 545 105 696 296 696 c 0
289 574 m 0
 230 574 223 483 223 433 c 0
 223 396 234 382 259 382 c 0
 318 382 325 475 325 525 c 0
 325 561 313 574 289 574 c 0
6 150 m 1
 448 150 l 1
 427 0 l 1
 -15 0 l 1
 6 150 l 1
EndSplineSet
EndChar
StartChar: guillemotright
Encoding: 187 187 2178
Width: 649
Flags: MW
HStem: -3 21G<106 106 396 396>
VStem: -5 643<78 344>
LayerCount: 2
Back
Fore
SplineSet
185 569 m 1
 348 344 l 1
 331 222 l 1
 106 -3 l 1
 -5 78 l 1
 148 283 l 1
 53 488 l 1
 185 569 l 1
475 569 m 1
 638 344 l 1
 621 222 l 1
 396 -3 l 1
 285 78 l 1
 438 283 l 1
 343 488 l 1
 475 569 l 1
EndSplineSet
Substitution2: "'case' Case-Sensitive Forms lookup 29 subtable" guillemotright.case
Substitution2: "'aalt' Access All Alternates lookup 0 subtable" guillemotright.case
EndChar

StartChar: onequarter
Encoding: 188 188 928
Width: 955
Flags: MW
HStem: 0 179<733 759 709 863 733 733> 77 102<709 743 888 915> 676 20G<202 329 329 329> 689 20G<797 797> 744 20G<695 695>
VStem: 31 899<179 603>
LayerCount: 2
Fore
SplineSet
797 709 m 1x9c
 280 -90 l 1
 177 -35 l 1
 695 764 l 1
 797 709 l 1x9c
133 272 m 1
 174 566 l 1
 81 510 l 1
 31 603 l 1
 202 696 l 1
 329 696 l 1x6c
 270 272 l 1
 133 272 l 1
915 77 m 1
 874 77 l 1x5c
 863 0 l 1
 733 0 l 1x9c
 743 77 l 1
 552 77 l 1
 565 170 l 1x5c
 716 435 l 1
 827 392 l 1
 709 179 l 1
 759 179 l 1
 800 267 l 1
 900 267 l 1
 888 179 l 1
 930 179 l 1x9c
 915 77 l 1
EndSplineSet
EndChar

StartChar: onehalf
Encoding: 189 189 925
Width: 955
Flags: MW
HStem: 0 105.5 331 104<740.5 761.5> 676 20G<202 329 329 329> 689 20G<797 797> 744 20G<695 695>
VStem: 31 898.09 783 145
LayerCount: 2
Fore
SplineSet
797 709 m 1xdc
 280 -90 l 1
 177 -35 l 1
 695 764 l 1
 797 709 l 1xdc
270 272 m 1
 133 272 l 1
 174 566 l 1
 81 510 l 1
 31 603 l 1
 202 696 l 1
 329 696 l 1xec
 270 272 l 1
777 435 m 0xda
 892 435 938 366 928 299 c 0
 920 245 897 207 747 105 c 1
 909 106 l 1
 881 0 l 1
 572 0 l 1
 584 98 l 1
 740 221 778 253 783 292 c 0
 786 314 774 331 749 331 c 0
 721 331 701 318 675 290 c 1
 600 353 l 1
 642 400 704 435 777 435 c 0xda
EndSplineSet
EndChar
StartChar: threequarters
Encoding: 190 190 2067
Width: 955
Flags: MW
HStem: 0 179<733 759 709 863 733 733> 77 102<709 743 888 915> 258 104<136 164 136 210.5> 446 49 446 94<145 157 116 171> 604 103<180.5 199> 744 20G<695 695>
VStem: -9 939<179 331>
LayerCount: 2
Back
Fore
SplineSet
695 764 m 1xaf
 797 709 l 1
 280 -90 l 1
 177 -35 l 1
 695 764 l 1xaf
349 385 m 0
 339 321 272 258 149 258 c 0
 69 258 20 289 -9 331 c 1
 72 400 l 1
 96 372 122 362 150 362 c 0
 178 362 203 375 207 405 c 0
 211 432 196 446 157 446 c 2
 116 446 l 1
 145 540 l 1
 171 540 l 2xaf
 206 540 220 551 224 573 c 0
 227 591 212 604 186 604 c 0
 156 604 126 590 100 569 c 1
 40 645 l 1
 89 687 147 707 214 707 c 0
 321 707 372 657 364 593 c 0
 356 546 325 512 253 495 c 1xb7
 316 491 359 459 349 385 c 0
930 179 m 1
 915 77 l 1
 874 77 l 1x6f
 863 0 l 1
 733 0 l 1xaf
 743 77 l 1
 552 77 l 1
 565 170 l 1x6f
 716 435 l 1
 827 392 l 1
 709 179 l 1
 759 179 l 1
 800 267 l 1
 900 267 l 1
 888 179 l 1
 930 179 l 1
EndSplineSet
EndChar
StartChar: questiondown
Encoding: 191 191 2131
Width: 482
Flags: MW
HStem: -227 154<192.5 223> 303 206<249 288.5>
VStem: -43 207<-52.5 -1 -52.5 24> 167 204<386 425> 177 175<205 207.5>
LayerCount: 2
Back
Fore
SplineSet
256 303 m 0xd0
 205 303 167 340 167 394 c 0
 167 456 217 509 281 509 c 0
 334 509 371 471 371 416 c 0
 371 356 321 303 256 303 c 0xd0
167 -227 m 0xe0
 25 -227 -43 -159 -43 -75 c 0xe0
 -43 123 176 95 177 205 c 0
 177 210 176 218 175 223 c 1
 346 248 l 1
 350 232 352 216 352 200 c 0xe8
 352 33 164 41 164 -43 c 0
 164 -62 178 -73 207 -73 c 0
 242 -73 279 -53 318 -18 c 1
 425 -116 l 1
 361 -182 279 -227 167 -227 c 0xe0
EndSplineSet
Substitution2: "'case' Case-Sensitive Forms lookup 29 subtable" questiondown.case
Substitution2: "'aalt' Access All Alternates lookup 0 subtable" questiondown.case
EndChar
StartChar: Aacute
Encoding: 193 193 3
Width: 589
GlyphClass: 2
Flags: MW
HStem: 0 21G<-62 149 -62 -62 363 577 363 363> 135 144<239 348 239 356 193 348> 567 129<332 332> 676 20G<234 476 476 476>
VStem: -62 639<0 0>
AnchorPoint: "Anchor-14" 0 0 basechar 0
AnchorPoint: "Anchor-13" 0 0 basechar 0
AnchorPoint: "Anchor-12" 381 985 basechar 0
AnchorPoint: "Anchor-11" 489 0 basechar 0
AnchorPoint: "Anchor-10" 256 0 basechar 0
LayerCount: 2
Back
Fore
SplineSet
531 841 m 1xd8
 280 742 l 1
 227 841 l 1
 457 985 l 1
 531 841 l 1xd8
363 0 m 1
 356 135 l 1
 193 135 l 1
 149 0 l 1
 -62 0 l 1
 234 696 l 1
 476 696 l 1
 577 0 l 1
 363 0 l 1
239 279 m 1
 348 279 l 1
 332 567 l 1xe8
 239 279 l 1
EndSplineSet
Substitution2: "'c2sc' Capitals to Small Capitals lookup 27 subtable" aacute.sc
Substitution2: "'aalt' Access All Alternates lookup 0 subtable" aacute.sc
Position2: "'cpsp' Capital Spacing lookup 0 subtable" dx=5 dy=0 dh=10 dv=0
EndChar
StartChar: Acircumflex
Encoding: 194 194 11
Width: 589
GlyphClass: 2
Flags: MW
HStem: 0 21G<-62 149 -62 -62 363 577 363 363> 135 144<239 348 239 356 193 348> 567 129<332 332> 676 20G<234 476 476 476>
VStem: -62 639<0 0>
AnchorPoint: "Anchor-14" 0 0 basechar 0
AnchorPoint: "Anchor-13" 473 856 basechar 0
AnchorPoint: "Anchor-12" 385 970 basechar 0
AnchorPoint: "Anchor-11" 489 0 basechar 0
AnchorPoint: "Anchor-10" 256 0 basechar 0
LayerCount: 2
Back
Fore
SplineSet
371 839 m 1xd8
 225 752 l 1
 166 829 l 1
 328 970 l 1
 444 970 l 1
 566 829 l 1
 493 752 l 1
 371 839 l 1xd8
363 0 m 1
 356 135 l 1
 193 135 l 1
 149 0 l 1
 -62 0 l 1
 234 696 l 1
 476 696 l 1
 577 0 l 1
 363 0 l 1
239 279 m 1
 348 279 l 1
 332 567 l 1xe8
 239 279 l 1
EndSplineSet
Substitution2: "'c2sc' Capitals to Small Capitals lookup 27 subtable" acircumflex.sc
Substitution2: "'aalt' Access All Alternates lookup 0 subtable" acircumflex.sc
Position2: "'cpsp' Capital Spacing lookup 0 subtable" dx=5 dy=0 dh=10 dv=0
EndChar
StartChar: Atilde
Encoding: 195 195 32
Width: 589
GlyphClass: 2
Flags: MW
HStem: 0 21G<-62 149 -62 -62 363 577 363 363> 135 144<239 348 239 356 193 348> 567 129<332 332> 676 20G<234 476 476 476> 748 138<420.5 447 420.5 455.5> 791 138<304.5 331.5>
VStem: -62 641
AnchorPoint: "Anchor-14" 0 0 basechar 0
AnchorPoint: "Anchor-13" 0 0 basechar 0
AnchorPoint: "Anchor-12" 378 930 basechar 0
AnchorPoint: "Anchor-11" 489 0 basechar 0
AnchorPoint: "Anchor-10" 256 0 basechar 0
LayerCount: 2
Back
Fore
SplineSet
317 791 m 0xd6
 292 791 277 775 257 747 c 1
 172 794 l 1
 207 867 263 929 327 929 c 0xd6
 384 929 406 886 435 886 c 0
 459 886 474 902 494 930 c 1
 579 883 l 1
 544 810 487 748 424 748 c 0xda
 377 748 346 791 317 791 c 0xd6
234 696 m 1
 476 696 l 1
 577 0 l 1
 363 0 l 1
 356 135 l 1
 193 135 l 1
 149 0 l 1
 -62 0 l 1
 234 696 l 1
239 279 m 1
 348 279 l 1
 332 567 l 1xe6
 239 279 l 1
EndSplineSet
Substitution2: "'c2sc' Capitals to Small Capitals lookup 27 subtable" atilde.sc
Substitution2: "'aalt' Access All Alternates lookup 0 subtable" atilde.sc
Position2: "'cpsp' Capital Spacing lookup 0 subtable" dx=5 dy=0 dh=10 dv=0
EndChar
StartChar: Aring
Encoding: 197 197 29
Width: 589
GlyphClass: 2
Flags: MW
HStem: 0 21G<-62 149 -62 -62 363 577 363 363> 135 144<239 348 239 356 193 348> 567 129<332 332> 676 20G<234 476 476 476> 719 100<360 387 360 413.5> 914 98<371 398.5>
VStem: 227 109<843 869 843 891> 422 110<860.5 888>
AnchorPoint: "Anchor-14" 0 0 basechar 0
AnchorPoint: "Anchor-13" 0 0 basechar 0
AnchorPoint: "Anchor-12" 398 1012 basechar 0
AnchorPoint: "Anchor-11" 489 0 basechar 0
AnchorPoint: "Anchor-10" 256 0 basechar 0
LayerCount: 2
Back
Fore
SplineSet
360 719 m 0xdf
 274 719 227 775 227 851 c 0
 227 931 294 1012 398 1012 c 0
 485 1012 532 956 532 880 c 0
 532 798 467 719 360 719 c 0xdf
388 914 m 0
 354 914 336 882 336 856 c 0
 336 830 350 819 370 819 c 0
 404 819 422 846 422 875 c 0
 422 901 409 914 388 914 c 0
363 0 m 1
 356 135 l 1
 193 135 l 1
 149 0 l 1
 -62 0 l 1
 234 696 l 1
 476 696 l 1xd7
 577 0 l 1
 363 0 l 1
239 279 m 1
 348 279 l 1
 332 567 l 1xe7
 239 279 l 1
EndSplineSet
Substitution2: "'c2sc' Capitals to Small Capitals lookup 27 subtable" aring.sc
Substitution2: "'aalt' Access All Alternates lookup 0 subtable" aring.sc
Position2: "'cpsp' Capital Spacing lookup 0 subtable" dx=5 dy=0 dh=10 dv=0
EndChar
StartChar: AE
Encoding: 198 198 33
Width: 847
GlyphClass: 2
Flags: MW
HStem: 0 144<583 791> 135 144<278 399 278 400 215 399> 282 139<579 788 579 579> 553 143<571 814 571 571>
VStem: 398 175 400.5 180.5
AnchorPoint: "Anchor-14" 0 0 basechar 0
AnchorPoint: "Anchor-13" 0 0 basechar 0
AnchorPoint: "Anchor-12" 541 696 basechar 0
AnchorPoint: "Anchor-11" 0 0 basechar 0
AnchorPoint: "Anchor-10" 0 0 basechar 0
LayerCount: 2
Back
Fore
SplineSet
814 553 m 1xb8
 571 553 l 1
 575 421 l 1
 806 421 l 1
 788 282 l 1
 579 282 l 1
 583 144 l 1xb8
 811 144 l 1
 791 0 l 1
 401 0 l 1xb4
 400 135 l 1
 215 135 l 1x54
 155 0 l 1
 -64 0 l 1
 288 696 l 1
 854 696 l 1
 814 553 l 1xb8
278 279 m 1x58
 399 279 l 1
 397 549 l 1
 278 279 l 1x58
EndSplineSet
Substitution2: "'c2sc' Capitals to Small Capitals lookup 27 subtable" ae.sc
Substitution2: "'aalt' Access All Alternates lookup 0 subtable" ae.sc
Position2: "'cpsp' Capital Spacing lookup 0 subtable" dx=5 dy=0 dh=10 dv=0
EndChar
StartChar: Ccedilla
Encoding: 199 199 45
Width: 571
GlyphClass: 2
Flags: MW
HStem: -275 102<244.5 270 244.5 330.5> -17 21G<348 348> -15 21G<243 243> 568 148<333.5 420>
VStem: 25 209<226.5 325.5 226.5 367> 305 135
AnchorPoint: "Anchor-14" 0 0 basechar 0
AnchorPoint: "Anchor-13" 0 0 basechar 0
AnchorPoint: "Anchor-12" 410 696 basechar 0
AnchorPoint: "Anchor-11" 0 0 basechar 0
AnchorPoint: "Anchor-10" 290 -275 basechar 0
LayerCount: 2
Back
Fore
SplineSet
545 76 m 1xdc
 496 32 427 -7 348 -17 c 1
 344 -43 l 1xdc
 407 -51 440 -85 440 -139 c 0
 440 -193 399 -275 262 -275 c 0
 210 -275 169 -258 143 -240 c 1
 196 -156 l 1
 215 -167 233 -173 256 -173 c 0
 284 -173 304 -166 305 -146 c 0
 306 -126 280 -120 217 -120 c 1
 243 -15 l 1xbc
 106 8 25 105 25 270 c 0
 25 464 122 716 395 716 c 0
 491 716 564 684 613 626 c 1
 504 520 l 1
 475 550 443 568 397 568 c 0
 270 568 234 377 234 274 c 0
 234 179 271 135 337 135 c 0
 386 135 427 162 471 194 c 1
 545 76 l 1xdc
EndSplineSet
Substitution2: "'c2sc' Capitals to Small Capitals lookup 27 subtable" ccedilla.sc
Substitution2: "'aalt' Access All Alternates lookup 0 subtable" ccedilla.sc
Position2: "'cpsp' Capital Spacing lookup 0 subtable" dx=5 dy=0 dh=10 dv=0
EndChar
StartChar: Egrave
Encoding: 200 200 80
Width: 511
GlyphClass: 2
Flags: MW
HStem: 0 144<229 451> 284 139<268 447 249 465> 553 143<286 512 286 286>
VStem: 7 546
AnchorPoint: "Anchor-14" 0 0 basechar 0
AnchorPoint: "Anchor-13" 0 0 basechar 0
AnchorPoint: "Anchor-12" 355 986 basechar 0
AnchorPoint: "Anchor-11" 421 0 basechar 0
AnchorPoint: "Anchor-10" 229 0 basechar 0
LayerCount: 2
Back
Fore
SplineSet
275 986 m 1
 505 842 l 1
 452 743 l 1
 201 842 l 1
 275 986 l 1
553 696 m 1
 512 553 l 1
 286 553 l 1
 268 423 l 1
 465 423 l 1
 447 284 l 1
 249 284 l 1
 229 144 l 1
 471 144 l 1
 451 0 l 1
 7 0 l 1
 104 696 l 1
 553 696 l 1
EndSplineSet
Substitution2: "'c2sc' Capitals to Small Capitals lookup 27 subtable" egrave.sc
Substitution2: "'aalt' Access All Alternates lookup 0 subtable" egrave.sc
Position2: "'cpsp' Capital Spacing lookup 0 subtable" dx=5 dy=0 dh=10 dv=0
EndChar
StartChar: Eacute
Encoding: 201 201 66
Width: 511
GlyphClass: 2
Flags: MW
HStem: 0 144<229 451> 284 139<268 447 249 465> 553 143<286 512 286 286>
VStem: 7 546
AnchorPoint: "Anchor-14" 0 0 basechar 0
AnchorPoint: "Anchor-13" 0 0 basechar 0
AnchorPoint: "Anchor-12" 355 985 basechar 0
AnchorPoint: "Anchor-11" 421 0 basechar 0
AnchorPoint: "Anchor-10" 229 0 basechar 0
LayerCount: 2
Back
Fore
SplineSet
431 985 m 1
 505 841 l 1
 254 742 l 1
 201 841 l 1
 431 985 l 1
553 696 m 1
 512 553 l 1
 286 553 l 1
 268 423 l 1
 465 423 l 1
 447 284 l 1
 249 284 l 1
 229 144 l 1
 471 144 l 1
 451 0 l 1
 7 0 l 1
 104 696 l 1
 553 696 l 1
EndSplineSet
Substitution2: "'c2sc' Capitals to Small Capitals lookup 27 subtable" eacute.sc
Substitution2: "'aalt' Access All Alternates lookup 0 subtable" eacute.sc
Position2: "'cpsp' Capital Spacing lookup 0 subtable" dx=5 dy=0 dh=10 dv=0
EndChar
StartChar: Ecircumflex
Encoding: 202 202 70
Width: 511
GlyphClass: 2
Flags: MW
HStem: 0 144<229 451> 284 139<268 447 249 465> 553 143<286 512 286 286>
VStem: 7 546
AnchorPoint: "Anchor-14" 0 0 basechar 0
AnchorPoint: "Anchor-13" 447 856 basechar 0
AnchorPoint: "Anchor-12" 359 970 basechar 0
AnchorPoint: "Anchor-11" 421 0 basechar 0
AnchorPoint: "Anchor-10" 229 0 basechar 0
LayerCount: 2
Back
Fore
SplineSet
467 752 m 1
 345 839 l 1
 199 752 l 1
 140 829 l 1
 302 970 l 1
 418 970 l 1
 540 829 l 1
 467 752 l 1
553 696 m 1
 512 553 l 1
 286 553 l 1
 268 423 l 1
 465 423 l 1
 447 284 l 1
 249 284 l 1
 229 144 l 1
 471 144 l 1
 451 0 l 1
 7 0 l 1
 104 696 l 1
 553 696 l 1
EndSplineSet
Substitution2: "'c2sc' Capitals to Small Capitals lookup 27 subtable" ecircumflex.sc
Substitution2: "'aalt' Access All Alternates lookup 0 subtable" ecircumflex.sc
Position2: "'cpsp' Capital Spacing lookup 0 subtable" dx=5 dy=0 dh=10 dv=0
EndChar
StartChar: Igrave
Encoding: 204 204 126
Width: 288
GlyphClass: 2
Flags: MW
HStem: 0 21G<6 208 6 6> 676 20G<103 305 305 305>
VStem: 6 374
AnchorPoint: "Anchor-14" 0 0 basechar 0
AnchorPoint: "Anchor-13" 0 0 basechar 0
AnchorPoint: "Anchor-12" 230 986 basechar 0
AnchorPoint: "Anchor-11" 173 0 basechar 0
AnchorPoint: "Anchor-10" 107 0 basechar 0
LayerCount: 2
Back
Fore
SplineSet
150 986 m 1
 380 842 l 1
 327 743 l 1
 76 842 l 1
 150 986 l 1
305 696 m 1
 208 0 l 1
 6 0 l 1
 103 696 l 1
 305 696 l 1
EndSplineSet
Substitution2: "'c2sc' Capitals to Small Capitals lookup 27 subtable" igrave.sc
Substitution2: "'aalt' Access All Alternates lookup 0 subtable" igrave.sc
Position2: "'cpsp' Capital Spacing lookup 0 subtable" dx=5 dy=0 dh=10 dv=0
EndChar
StartChar: Iacute
Encoding: 205 205 117
Width: 288
GlyphClass: 2
Flags: MW
HStem: 0 21G<6 208 6 6> 676 20G<103 305 305 305>
VStem: 6 374
AnchorPoint: "Anchor-14" 0 0 basechar 0
AnchorPoint: "Anchor-13" 0 0 basechar 0
AnchorPoint: "Anchor-12" 230 985 basechar 0
AnchorPoint: "Anchor-11" 173 0 basechar 0
AnchorPoint: "Anchor-10" 107 0 basechar 0
LayerCount: 2
Back
Fore
SplineSet
306 985 m 1
 380 841 l 1
 129 742 l 1
 76 841 l 1
 306 985 l 1
305 696 m 1
 208 0 l 1
 6 0 l 1
 103 696 l 1
 305 696 l 1
EndSplineSet
Substitution2: "'c2sc' Capitals to Small Capitals lookup 27 subtable" iacute.sc
Substitution2: "'aalt' Access All Alternates lookup 0 subtable" iacute.sc
Position2: "'cpsp' Capital Spacing lookup 0 subtable" dx=5 dy=0 dh=10 dv=0
EndChar
StartChar: Icircumflex
Encoding: 206 206 120
Width: 288
GlyphClass: 2
Flags: MW
HStem: 0 21G<6 208 6 6> 676 20G<103 305 305 305>
VStem: 6 409
AnchorPoint: "Anchor-14" 0 0 basechar 0
AnchorPoint: "Anchor-13" 322 856 basechar 0
AnchorPoint: "Anchor-12" 234 970 basechar 0
AnchorPoint: "Anchor-11" 173 0 basechar 0
AnchorPoint: "Anchor-10" 107 0 basechar 0
LayerCount: 2
Back
Fore
SplineSet
342 752 m 1
 220 839 l 1
 74 752 l 1
 15 829 l 1
 177 970 l 1
 293 970 l 1
 415 829 l 1
 342 752 l 1
305 696 m 1
 208 0 l 1
 6 0 l 1
 103 696 l 1
 305 696 l 1
EndSplineSet
Substitution2: "'c2sc' Capitals to Small Capitals lookup 27 subtable" icircumflex.sc
Substitution2: "'aalt' Access All Alternates lookup 0 subtable" icircumflex.sc
Position2: "'cpsp' Capital Spacing lookup 0 subtable" dx=5 dy=0 dh=10 dv=0
EndChar
StartChar: Idieresis
Encoding: 207 207 122
Width: 288
GlyphClass: 2
Flags: MW
HStem: 0 21G<6 208 6 6> 676 20G<103 305 305 305> 759 185<84.5 116.5 325.5 357.5>
VStem: 7 187 247 187
AnchorPoint: "Anchor-14" 0 0 basechar 0
AnchorPoint: "Anchor-13" 0 0 basechar 0
AnchorPoint: "Anchor-12" 232 944 basechar 0
AnchorPoint: "Anchor-11" 173 0 basechar 0
AnchorPoint: "Anchor-10" 107 0 basechar 0
LayerCount: 2
Back
Fore
SplineSet
111 944 m 0
 165 944 202 902 194 849 c 0
 187 799 144 759 89 759 c 0
 37 759 0 801 7 855 c 0
 14 904 58 944 111 944 c 0
352 944 m 0
 406 944 442 902 434 849 c 0
 427 799 385 759 330 759 c 0
 278 759 240 801 247 855 c 0
 254 904 299 944 352 944 c 0
305 696 m 1
 208 0 l 1
 6 0 l 1
 103 696 l 1
 305 696 l 1
EndSplineSet
Substitution2: "'c2sc' Capitals to Small Capitals lookup 27 subtable" idieresis.sc
Substitution2: "'aalt' Access All Alternates lookup 0 subtable" idieresis.sc
Position2: "'cpsp' Capital Spacing lookup 0 subtable" dx=5 dy=0 dh=10 dv=0
EndChar

StartChar: Eth
Encoding: 208 208 21
Width: 654
GlyphClass: 2
Flags: MW
HStem: 0 145<237 246> 295 116<30 56 14 72 274 382> 551 145<294 329 329 336 294 294>
VStem: 443 208<372 477>
AnchorPoint: "Anchor-11" 0 0 basechar 0
AnchorPoint: "Anchor-10" 0 0 basechar 0
AnchorPoint: "Anchor-9" 355 696 basechar 0
AnchorPoint: "Anchor-8" 0 0 basechar 0
LayerCount: 2
Fore
SplineSet
329 696 m 2
 498 696 651 645 651 432 c 0
 651 203 557 0 246 0 c 2
 15 0 l 1
 56 295 l 1
 14 295 l 1
 30 411 l 1
 72 411 l 1
 112 696 l 1
 329 696 l 2
276 145 m 2
 417 145 443 314 443 430 c 0
 443 524 406 551 336 551 c 2
 294 551 l 1
 274 411 l 1
 398 411 l 1
 382 295 l 1
 258 295 l 1
 237 145 l 1
 276 145 l 2
EndSplineSet
Substitution2: "'c2sc' Capitals to Small Capitals lookup 23 subtable" eth.sc
Substitution2: "'aalt' Access All Alternates lookup 0 subtable" eth.sc
Position2: "'cpsp' Capital Spacing lookup 0 subtable" dx=5 dy=0 dh=10 dv=0
EndChar
StartChar: Ntilde
Encoding: 209 209 169
Width: 639
GlyphClass: 2
Flags: MW
HStem: 0 21G<6 182 6 6 305 559 305 305> 0 169<442 442 442 559 305 442> 527 169<220 220> 676 20G<103 353 353 353 480 656 656 656> 748 138<445.5 472 445.5 480.5> 791 138<329.5 356.5>
VStem: 6 650
AnchorPoint: "Anchor-14" 0 0 basechar 0
AnchorPoint: "Anchor-13" 0 0 basechar 0
AnchorPoint: "Anchor-12" 403 930 basechar 0
AnchorPoint: "Anchor-11" 0 0 basechar 0
AnchorPoint: "Anchor-10" 283 0 basechar 0
LayerCount: 2
Back
Fore
SplineSet
449 748 m 0x9a
 402 748 371 791 342 791 c 0
 317 791 302 775 282 747 c 1
 197 794 l 1
 232 867 288 929 352 929 c 0x96
 409 929 431 886 460 886 c 0
 484 886 499 902 519 930 c 1
 604 883 l 1
 569 810 512 748 449 748 c 0x9a
656 696 m 1x56
 559 0 l 1
 305 0 l 1
 220 527 l 1xa6
 225 440 230 344 211 205 c 2
 182 0 l 1
 6 0 l 1
 103 696 l 1
 353 696 l 1
 442 169 l 1
 435 268 431 348 450 484 c 2
 480 696 l 1
 656 696 l 1x56
EndSplineSet
Substitution2: "'c2sc' Capitals to Small Capitals lookup 27 subtable" ntilde.sc
Substitution2: "'aalt' Access All Alternates lookup 0 subtable" ntilde.sc
Position2: "'cpsp' Capital Spacing lookup 0 subtable" dx=5 dy=0 dh=10 dv=0
EndChar
StartChar: Oacute
Encoding: 211 211 172
Width: 678
GlyphClass: 2
Flags: MW
HStem: -20 146<288.5 381.5 288.5 446> 570 146<319.5 412.5>
VStem: 25 208<206 299.5 206 363> 468 208<396.5 491.5>
AnchorPoint: "Anchor-14" 0 0 basechar 0
AnchorPoint: "Anchor-13" 644 696 basechar 0
AnchorPoint: "Anchor-12" 425 985 basechar 0
AnchorPoint: "Anchor-11" 0 0 basechar 0
AnchorPoint: "Anchor-10" 303 0 basechar 0
LayerCount: 2
Back
Fore
SplineSet
501 985 m 1
 575 841 l 1
 324 742 l 1
 271 841 l 1
 501 985 l 1
400 716 m 0
 580 716 676 609 676 429 c 0
 676 241 591 -20 301 -20 c 0
 121 -20 25 89 25 268 c 0
 25 458 112 716 400 716 c 0
384 570 m 0
 255 570 233 348 233 251 c 0
 233 161 260 126 317 126 c 0
 446 126 468 346 468 447 c 0
 468 536 441 570 384 570 c 0
EndSplineSet
Substitution2: "'c2sc' Capitals to Small Capitals lookup 27 subtable" oacute.sc
Substitution2: "'locl' Localized Forms in Latin lookup 7 subtable" Oacute.loclPLK
AlternateSubs2: "'aalt' Access All Alternates lookup 1 subtable" Oacute.loclPLK oacute.sc
Position2: "'cpsp' Capital Spacing lookup 0 subtable" dx=5 dy=0 dh=10 dv=0
EndChar

StartChar: Otilde
Encoding: 213 213 81
Width: 678
GlyphClass: 2
Flags: MW
HStem: -20 146<288.5 381.5 288.5 446> 570 146<319.5 412.5> 748 138<464.5 491 464.5 499.5> 791 138<348.5 375.5>
VStem: 25 208<203.5 297 203.5 363> 468 208<399 494>
AnchorPoint: "Anchor-11" 0 0 basechar 0
AnchorPoint: "Anchor-10" -15 534 basechar 0
AnchorPoint: "Anchor-9" 399 696 basechar 0
AnchorPoint: "Anchor-8" 0 0 basechar 0
LayerCount: 2
Fore
SplineSet
468 748 m 0xec
 421 748 390 791 361 791 c 0
 336 791 321 775 301 747 c 1
 216 794 l 1
 251 867 307 929 371 929 c 0xdc
 428 929 450 886 479 886 c 0
 503 886 518 902 538 930 c 1
 623 883 l 1
 588 810 531 748 468 748 c 0xec
400 716 m 0
 580 716 676 609 676 429 c 0
 676 241 591 -20 301 -20 c 0
 121 -20 25 89 25 268 c 0
 25 458 112 716 400 716 c 0
384 570 m 0
 255 570 233 348 233 246 c 0
 233 161 260 126 317 126 c 0
 446 126 468 346 468 452 c 0
 468 536 441 570 384 570 c 0
EndSplineSet
Substitution2: "'c2sc' Capitals to Small Capitals lookup 23 subtable" otilde.sc
Substitution2: "'aalt' Access All Alternates lookup 0 subtable" otilde.sc
Position2: "'cpsp' Capital Spacing lookup 0 subtable" dx=5 dy=0 dh=10 dv=0
EndChar
StartChar: Odieresis
Encoding: 214 214 183
Width: 678
GlyphClass: 2
Flags: MW
HStem: -20 146<288.5 381.5 288.5 446> 570 146<319.5 412.5> 759 185<279.5 311.5 520.5 552.5>
VStem: 25 208<206 299.5 206 363> 202 187 442 187 468 208<396.5 491.5>
AnchorPoint: "Anchor-14" 0 0 basechar 0
AnchorPoint: "Anchor-13" 644 696 basechar 0
AnchorPoint: "Anchor-12" 427 944 basechar 0
AnchorPoint: "Anchor-11" 0 0 basechar 0
AnchorPoint: "Anchor-10" 303 0 basechar 0
LayerCount: 2
Back
Fore
SplineSet
306 944 m 0xec
 360 944 397 902 389 849 c 0
 382 799 339 759 284 759 c 0
 232 759 195 801 202 855 c 0
 209 904 253 944 306 944 c 0xec
547 944 m 0
 601 944 637 902 629 849 c 0
 622 799 580 759 525 759 c 0
 473 759 435 801 442 855 c 0
 449 904 494 944 547 944 c 0
400 716 m 0xd2
 580 716 676 609 676 429 c 0
 676 241 591 -20 301 -20 c 0
 121 -20 25 89 25 268 c 0
 25 458 112 716 400 716 c 0xd2
384 570 m 0
 255 570 233 348 233 251 c 0
 233 161 260 126 317 126 c 0
 446 126 468 346 468 447 c 0
 468 536 441 570 384 570 c 0
EndSplineSet
Substitution2: "'c2sc' Capitals to Small Capitals lookup 27 subtable" odieresis.sc
Substitution2: "'aalt' Access All Alternates lookup 0 subtable" odieresis.sc
Position2: "'cpsp' Capital Spacing lookup 0 subtable" dx=5 dy=0 dh=10 dv=0
EndChar

StartChar: Uacute
Encoding: 218 218 102
Width: 632
GlyphClass: 2
Flags: MW
HStem: -20 148<265 324 265 373.5> 676 20G<93 295 295 295 457 659 659 659>
VStem: 25.74 202.3
AnchorPoint: "Anchor-11" 0 0 basechar 0
AnchorPoint: "Anchor-10" 0 0 basechar 0
AnchorPoint: "Anchor-9" 376 696 basechar 0
AnchorPoint: "Anchor-8" 414 0 basechar 0
LayerCount: 2
Fore
SplineSet
550 841 m 1
 299 742 l 1
 246 841 l 1
 476 985 l 1
 550 841 l 1
595 235 m 2
 575 93 469 -20 278 -20 c 0
 85 -20 8 85 29 237 c 2
 93 696 l 1
 295 696 l 1
 231 241 l 2
 220 164 236 128 294 128 c 0
 354 128 382 166 393 243 c 2
 457 696 l 1
 659 696 l 1
 595 235 l 2
EndSplineSet
Substitution2: "'c2sc' Capitals to Small Capitals lookup 23 subtable" uacute.sc
Substitution2: "'aalt' Access All Alternates lookup 0 subtable" uacute.sc
Position2: "'cpsp' Capital Spacing lookup 0 subtable" dx=5 dy=0 dh=10 dv=0
EndChar

StartChar: Ucircumflex
Encoding: 219 219 104
Width: 632
GlyphClass: 2
Flags: MW
HStem: -20 148<265 324 265 373.5> 676 20G<93 295 295 295 457 659 659 659>
VStem: 25.74 202.3
AnchorPoint: "Anchor-11" 0 0 basechar 0
AnchorPoint: "Anchor-10" 0 0 basechar 0
AnchorPoint: "Anchor-9" 376 696 basechar 0
AnchorPoint: "Anchor-8" 414 0 basechar 0
LayerCount: 2
Fore
SplineSet
404 839 m 1
 258 752 l 1
 199 829 l 1
 361 970 l 1
 477 970 l 1
 599 829 l 1
 526 752 l 1
 404 839 l 1
595 235 m 2
 575 93 469 -20 278 -20 c 0
 85 -20 8 85 29 237 c 2
 93 696 l 1
 295 696 l 1
 231 241 l 2
 220 164 236 128 294 128 c 0
 354 128 382 166 393 243 c 2
 457 696 l 1
 659 696 l 1
 595 235 l 2
EndSplineSet
Substitution2: "'c2sc' Capitals to Small Capitals lookup 23 subtable" ucircumflex.sc
Substitution2: "'aalt' Access All Alternates lookup 0 subtable" ucircumflex.sc
Position2: "'cpsp' Capital Spacing lookup 0 subtable" dx=5 dy=0 dh=10 dv=0
EndChar
StartChar: Udieresis
Encoding: 220 220 260
Width: 632
GlyphClass: 2
Flags: MW
HStem: -20 148<265 324 265 373.5> 676 20G<93 295 295 295 457 659 659 659> 759 185<256.5 288.5 497.5 529.5>
VStem: 25.74 202.3 179 187 419 187
AnchorPoint: "Anchor-14" 0 0 basechar 0
AnchorPoint: "Anchor-13" 669 696 basechar 0
AnchorPoint: "Anchor-12" 404 944 basechar 0
AnchorPoint: "Anchor-11" 414 0 basechar 0
AnchorPoint: "Anchor-10" 279 0 basechar 0
LayerCount: 2
Back
Fore
SplineSet
283 944 m 0xec
 337 944 374 902 366 849 c 0
 359 799 316 759 261 759 c 0
 209 759 172 801 179 855 c 0
 186 904 230 944 283 944 c 0xec
524 944 m 0
 578 944 614 902 606 849 c 0
 599 799 557 759 502 759 c 0
 450 759 412 801 419 855 c 0
 426 904 471 944 524 944 c 0
659 696 m 1
 595 235 l 2
 575 93 469 -20 278 -20 c 0
 85 -20 8 85 29 237 c 2
 93 696 l 1
 295 696 l 1
 231 241 l 2
 220 164 236 128 294 128 c 0xf0
 354 128 382 166 393 243 c 2
 457 696 l 1
 659 696 l 1
EndSplineSet
Substitution2: "'c2sc' Capitals to Small Capitals lookup 27 subtable" udieresis.sc
Substitution2: "'aalt' Access All Alternates lookup 0 subtable" udieresis.sc
Position2: "'cpsp' Capital Spacing lookup 0 subtable" dx=5 dy=0 dh=10 dv=0
EndChar

StartChar: Yacute
Encoding: 221 221 120
Width: 608
GlyphClass: 2
Flags: MW
HStem: 0 21G<166 368 166 166> 676 20G<45 262 262 262 467 683 683 683>
VStem: 45 638<696 696>
AnchorPoint: "Anchor-11" 0 0 basechar 0
AnchorPoint: "Anchor-10" -102 534 basechar 0
AnchorPoint: "Anchor-9" 364 696 basechar 0
AnchorPoint: "Anchor-8" 0 0 basechar 0
LayerCount: 2
Fore
SplineSet
538 841 m 1
 287 742 l 1
 234 841 l 1
 464 985 l 1
 538 841 l 1
404 257 m 1
 368 0 l 1
 166 0 l 1
 202 256 l 1
 45 696 l 1
 262 696 l 1
 325 412 l 1
 467 696 l 1
 683 696 l 1
 404 257 l 1
EndSplineSet
Substitution2: "'c2sc' Capitals to Small Capitals lookup 23 subtable" yacute.sc
Substitution2: "'aalt' Access All Alternates lookup 0 subtable" yacute.sc
Position2: "'cpsp' Capital Spacing lookup 0 subtable" dx=5 dy=0 dh=10 dv=0
EndChar

StartChar: Thorn
Encoding: 222 222 84
Width: 600
GlyphClass: 2
Flags: MW
HStem: 0 21G<6 208 6 6> 106 145<243 288 288 290 223 288> 450 143<291 313 271 334> 676 20G<103 305 305 305>
VStem: 394 208<356.5 401.5>
AnchorPoint: "Anchor-11" 0 0 basechar 0
AnchorPoint: "Anchor-10" 0 0 basechar 0
AnchorPoint: "Anchor-9" 204 696 basechar 0
AnchorPoint: "Anchor-8" 0 0 basechar 0
LayerCount: 2
Fore
SplineSet
334 593 m 2
 501 593 602 527 602 386 c 0
 602 271 534 106 290 106 c 2
 223 106 l 1
 208 0 l 1
 6 0 l 1
 103 696 l 1
 305 696 l 1
 291 593 l 1
 334 593 l 2
288 251 m 2
 375 251 394 333 394 380 c 0
 394 423 370 450 313 450 c 2
 271 450 l 1
 243 251 l 1
 288 251 l 2
EndSplineSet
Substitution2: "'c2sc' Capitals to Small Capitals lookup 23 subtable" thorn.sc
Substitution2: "'aalt' Access All Alternates lookup 0 subtable" thorn.sc
Position2: "'cpsp' Capital Spacing lookup 0 subtable" dx=5 dy=0 dh=10 dv=0
EndChar

StartChar: germandbls
Encoding: 223 223 233
Width: 600
GlyphClass: 2
Flags: MW
HStem: -227 21G<-69 -69> -20 150<326 353.5 326 433> 629 135<321 352>
VStem: 271 172<392 438> 374 186<558 605> 383 201<173 220.5>
LayerCount: 2
Fore
SplineSet
443 424 m 0xf0
 443 360 584 344 584 193 c 0
 584 97 519 -20 347 -20 c 0
 300 -20 254 -7 222 10 c 1
 295 139 l 1
 308 132 321 130 331 130 c 0
 376 130 383 165 383 181 c 0xe4
 383 260 271 269 271 375 c 0xf0
 271 501 374 508 374 595 c 0
 374 615 363 629 341 629 c 0
 301 629 281 596 273 536 c 2
 209 76 l 2
 183 -112 66 -184 -69 -227 c 1
 -116 -86 l 1
 -45 -61 0 -29 10 44 c 2
 78 531 l 2
 98 675 196 764 360 764 c 0
 494 764 560 698 560 611 c 0xe8
 560 505 443 490 443 424 c 0xf0
EndSplineSet
Substitution2: "'smcp' Lowercase to Small Capitals lookup 24 subtable" germandbls.sc
Substitution2: "'aalt' Access All Alternates lookup 0 subtable" germandbls.sc
EndChar
StartChar: agrave
Encoding: 224 224 356
Width: 574
GlyphClass: 2
Flags: MW
HStem: -20 21G<129 225> -20 142<129 266> -16 21G<486 486> 418 136<279.5 330> 692 20G<237 237> 695 20G<534 534>
VStem: 11 199<165 245 165 275.5>
AnchorPoint: "Anchor-14" 0 0 basechar 0
AnchorPoint: "Anchor-13" 0 0 basechar 0
AnchorPoint: "Anchor-12" 387 856 basechar 0
AnchorPoint: "Anchor-11" 494 -16 basechar 0
AnchorPoint: "Anchor-10" 277 0 basechar 0
LayerCount: 2
Back
Fore
SplineSet
322 862 m 1x36
 534 715 l 1
 476 616 l 1x96
 237 712 l 1x3a
 322 862 l 1x36
330 554 m 0
 405 554 492 535 566 491 c 1
 520 172 l 2
 519 163 518 155 518 148 c 0
 518 127 525 117 542 110 c 1
 486 -16 l 1x36
 424 -12 366 15 345 72 c 1
 311 19 262 -20 188 -20 c 0
 70 -20 11 64 11 197 c 0
 11 354 94 554 330 554 c 0
322 418 m 0
 237 418 210 292 210 198 c 0
 210 132 231 122 253 122 c 0
 279 122 306 141 330 182 c 1x56
 364 412 l 1
 349 416 338 418 322 418 c 0
EndSplineSet
Substitution2: "'smcp' Lowercase to Small Capitals lookup 28 subtable" agrave.sc
Substitution2: "'aalt' Access All Alternates lookup 0 subtable" agrave.sc
EndChar
StartChar: atilde
Encoding: 227 227 366
Width: 574
GlyphClass: 2
Flags: MW
HStem: -20 21G<129 225> -20 142<129 266> -16 21G<486 486> 418 136<279.5 330> 622 138<417.5 444 417.5 452.5> 665 138<301.5 328.5> 737 20G<576 576>
VStem: 11 199<165 245 165 275.5>
AnchorPoint: "Anchor-14" 0 0 basechar 0
AnchorPoint: "Anchor-13" 0 0 basechar 0
AnchorPoint: "Anchor-12" 375 804 basechar 0
AnchorPoint: "Anchor-11" 494 -16 basechar 0
AnchorPoint: "Anchor-10" 277 0 basechar 0
LayerCount: 2
Back
Fore
SplineSet
421 622 m 0x39
 374 622 343 665 314 665 c 0
 289 665 274 649 254 621 c 1
 169 668 l 1x35
 204 741 260 803 324 803 c 0
 381 803 403 760 432 760 c 0
 456 760 471 776 491 804 c 1x39
 576 757 l 1x33
 541 684 484 622 421 622 c 0x39
330 554 m 0x93
 405 554 492 535 566 491 c 1
 520 172 l 2
 519 163 518 155 518 148 c 0
 518 127 525 117 542 110 c 1
 486 -16 l 1x33
 424 -12 366 15 345 72 c 1
 311 19 262 -20 188 -20 c 0
 70 -20 11 64 11 197 c 0
 11 354 94 554 330 554 c 0x93
322 418 m 0
 237 418 210 292 210 198 c 0
 210 132 231 122 253 122 c 0
 279 122 306 141 330 182 c 1x53
 364 412 l 1
 349 416 338 418 322 418 c 0
EndSplineSet
Substitution2: "'smcp' Lowercase to Small Capitals lookup 28 subtable" atilde.sc
Substitution2: "'aalt' Access All Alternates lookup 0 subtable" atilde.sc
EndChar

StartChar: adieresis
Encoding: 228 228 138
Width: 573
GlyphClass: 2
Flags: MW
HStem: -20 21G<128 224> -20 142<128 265> -16 21G<485 485> 418 136<278.5 329> 633 185<233 262 474 503>
VStem: 10 199<165 245 165 275.5> 154 187 394 187
AnchorPoint: "Anchor-11" 0 0 basechar 0
AnchorPoint: "Anchor-10" 0 0 basechar 0
AnchorPoint: "Anchor-9" 370 758 basechar 0
AnchorPoint: "Anchor-8" 493 -16 basechar 0
LayerCount: 2
Fore
SplineSet
258 818 m 0x3b
 312 818 349 776 341 723 c 0
 334 673 288 633 236 633 c 0
 184 633 147 675 154 729 c 0
 161 778 208 818 258 818 c 0x3b
499 818 m 0
 553 818 589 776 581 723 c 0
 574 673 529 633 477 633 c 0
 425 633 387 675 394 729 c 0
 401 778 449 818 499 818 c 0
329 554 m 0
 404 554 491 535 565 491 c 1
 519 172 l 2
 518 163 517 155 517 148 c 0
 517 127 524 117 541 110 c 1
 485 -16 l 1x3c
 423 -12 365 15 344 72 c 1
 310 19 261 -20 187 -20 c 0
 69 -20 10 64 10 197 c 0x9c
 10 354 93 554 329 554 c 0
321 418 m 0x5c
 236 418 209 292 209 198 c 0
 209 132 230 122 252 122 c 0
 278 122 305 141 329 182 c 1
 363 412 l 1
 348 416 337 418 321 418 c 0x5c
EndSplineSet
Substitution2: "'smcp' Lowercase to Small Capitals lookup 24 subtable" adieresis.sc
Substitution2: "'aalt' Access All Alternates lookup 0 subtable" adieresis.sc
EndChar

StartChar: aring
Encoding: 229 229 142
Width: 573
GlyphClass: 2
Flags: MW
HStem: -20 21G<128 224> -20 142<128 265> -16 21G<485 485> 418 136<278.5 329> 593 100<356 379 356 403> 788 98<372 395>
VStem: 10 199<165 245 165 275.5>
AnchorPoint: "Anchor-11" 0 0 basechar 0
AnchorPoint: "Anchor-10" 0 0 basechar 0
AnchorPoint: "Anchor-9" 346 534 basechar 0
AnchorPoint: "Anchor-8" 493 -16 basechar 0
LayerCount: 2
Fore
SplineSet
394 886 m 0x3e
 490 886 537 817 526 737 c 0
 516 661 450 593 356 593 c 0
 260 593 213 663 225 743 c 1
 235 819 300 886 394 886 c 0x3e
384 788 m 0
 360 788 338 771 333 737 c 0
 328 707 345 693 367 693 c 0
 391 693 411 709 417 743 c 1
 421 773 406 788 384 788 c 0
329 554 m 0
 404 554 491 535 565 491 c 1
 519 172 l 2
 518 163 517 155 517 148 c 0
 517 127 524 117 541 110 c 1
 485 -16 l 1x3e
 423 -12 365 15 344 72 c 1
 310 19 261 -20 187 -20 c 0x9e
 69 -20 10 64 10 197 c 0
 10 354 93 554 329 554 c 0
321 418 m 0
 236 418 209 292 209 198 c 0
 209 132 230 122 252 122 c 0
 278 122 305 141 329 182 c 1x5e
 363 412 l 1
 348 416 337 418 321 418 c 0
EndSplineSet
Substitution2: "'smcp' Lowercase to Small Capitals lookup 24 subtable" aring.sc
Substitution2: "'aalt' Access All Alternates lookup 0 subtable" aring.sc
EndChar
StartChar: ae
Encoding: 230 230 368
Width: 847
GlyphClass: 2
Flags: MW
HStem: -20 140<568.5 609> 222 108<287 288 288 317> 412 142<267.5 281> 429 125<598.5 627.5>
VStem: -1 204<148 175.5> -1 849<83 444.5> 654 194<380.5 401>
AnchorPoint: "Anchor-14" 0 0 basechar 0
AnchorPoint: "Anchor-13" 0 0 basechar 0
AnchorPoint: "Anchor-12" 461 534 basechar 0
AnchorPoint: "Anchor-11" 0 0 basechar 0
AnchorPoint: "Anchor-10" 360 0 basechar 0
LayerCount: 2
Back
Fore
SplineSet
297 554 m 0xd4
 376 554 420 529 454 489 c 1
 494 528 563 554 634 554 c 0
 773 554 848 488 848 401 c 0
 848 252 664 205 509 191 c 1
 514 131 547 120 590 120 c 0
 634 120 672 137 722 169 c 1
 789 56 l 1
 730 13 654 -20 564 -20 c 0
 466 -20 399 11 361 65 c 1
 301 1 237 -20 166 -20 c 0
 65 -20 -1 39 -1 127 c 0xda
 -1 224 55 330 287 330 c 2
 333 330 l 1
 338 347 344 359 349 370 c 1
 343 400 307 412 255 412 c 0
 227 412 175 405 120 387 c 1xe4
 92 513 l 1
 162 540 238 554 297 554 c 0xd4
611 429 m 0xda
 557 429 529 367 517 302 c 1
 638 309 654 372 654 389 c 0
 654 413 644 429 611 429 c 0xda
317 222 m 1
 288 222 l 2
 236 222 203 200 203 159 c 0
 203 137 214 119 243 119 c 0
 271 119 294 138 321 162 c 1
 318 178 317 194 317 222 c 1
EndSplineSet
Substitution2: "'smcp' Lowercase to Small Capitals lookup 28 subtable" ae.sc
Substitution2: "'aalt' Access All Alternates lookup 0 subtable" ae.sc
EndChar
StartChar: ccedilla
Encoding: 231 231 383
Width: 469
GlyphClass: 2
Flags: MW
HStem: -275 102<182.5 208 182.5 268.5> -19 21G<286 286> -12 21G<182 182> 405 149<281.5 343>
VStem: 12 203<180 251.5 180 286> 243 135
AnchorPoint: "Anchor-14" 0 0 basechar 0
AnchorPoint: "Anchor-13" 0 0 basechar 0
AnchorPoint: "Anchor-12" 323 534 basechar 0
AnchorPoint: "Anchor-11" 0 0 basechar 0
AnchorPoint: "Anchor-10" 216 -275 basechar 0
LayerCount: 2
Back
Fore
SplineSet
449 44 m 1xd8
 402 10 350 -13 286 -19 c 1
 282 -43 l 1
 345 -51 378 -85 378 -139 c 0
 378 -193 337 -275 200 -275 c 0
 148 -275 107 -258 81 -240 c 1
 134 -156 l 1
 153 -167 171 -173 194 -173 c 0
 222 -173 242 -166 243 -146 c 0
 244 -126 218 -120 155 -120 c 1xdc
 182 -12 l 1xb8
 73 14 12 99 12 217 c 0
 12 355 99 554 327 554 c 0
 400 554 462 527 507 480 c 1
 414 369 l 1
 386 395 358 405 328 405 c 0
 235 405 215 291 215 212 c 0
 215 148 244 133 284 133 c 0
 317 133 342 145 379 168 c 1
 449 44 l 1xd8
EndSplineSet
Substitution2: "'smcp' Lowercase to Small Capitals lookup 28 subtable" ccedilla.sc
Substitution2: "'aalt' Access All Alternates lookup 0 subtable" ccedilla.sc
EndChar

StartChar: egrave
Encoding: 232 232 164
Width: 542
GlyphClass: 2
Flags: MW
HStem: -20 140<265.5 306> 429 125<281 324.5> 691 20G<499 499> 692 20G<203 203>
VStem: 12 194 351 194<380.5 401>
AnchorPoint: "Anchor-11" 251 0 basechar 0
AnchorPoint: "Anchor-10" 0 0 basechar 0
AnchorPoint: "Anchor-9" 316 534 basechar 0
AnchorPoint: "Anchor-8" 412 11 basechar 0
LayerCount: 2
Fore
SplineSet
435 613 m 1xec
 203 712 l 1xdc
 295 856 l 1
 499 711 l 1
 435 613 l 1xec
545 401 m 0
 545 252 362 205 206 191 c 1
 211 137 244 120 287 120 c 0
 331 120 369 137 419 169 c 1
 486 56 l 1
 427 13 351 -20 261 -20 c 0
 90 -20 12 75 12 211 c 0
 12 356 94 554 331 554 c 0
 470 554 545 488 545 401 c 0
214 302 m 1
 335 309 351 372 351 389 c 0
 351 413 341 429 308 429 c 0
 254 429 226 367 214 302 c 1
EndSplineSet
Substitution2: "'smcp' Lowercase to Small Capitals lookup 24 subtable" egrave.sc
Substitution2: "'aalt' Access All Alternates lookup 0 subtable" egrave.sc
EndChar

StartChar: eacute
Encoding: 233 233 158
Width: 542
GlyphClass: 2
Flags: MW
HStem: -20 140<265.5 306> 429 125<281 324.5>
VStem: 12 194 351 194<380.5 401>
AnchorPoint: "Anchor-11" 251 0 basechar 0
AnchorPoint: "Anchor-10" 0 0 basechar 0
AnchorPoint: "Anchor-9" 316 534 basechar 0
AnchorPoint: "Anchor-8" 412 11 basechar 0
LayerCount: 2
Fore
SplineSet
221 613 m 1
 183 712 l 1
 427 856 l 1
 481 712 l 1
 221 613 l 1
545 401 m 0
 545 252 362 205 206 191 c 1
 211 137 244 120 287 120 c 0
 331 120 369 137 419 169 c 1
 486 56 l 1
 427 13 351 -20 261 -20 c 0
 90 -20 12 75 12 211 c 0
 12 356 94 554 331 554 c 0
 470 554 545 488 545 401 c 0
214 302 m 1
 335 309 351 372 351 389 c 0
 351 413 341 429 308 429 c 0
 254 429 226 367 214 302 c 1
EndSplineSet
Substitution2: "'smcp' Lowercase to Small Capitals lookup 24 subtable" eacute.sc
Substitution2: "'aalt' Access All Alternates lookup 0 subtable" eacute.sc
EndChar

StartChar: edieresis
Encoding: 235 235 162
Width: 542
GlyphClass: 2
Flags: MW
HStem: -20 140<265.5 306> 429 125<281 324.5> 633 185<203 232 444 473>
VStem: 12 194 124 187 351 194<380.5 401> 364 187
AnchorPoint: "Anchor-11" 251 0 basechar 0
AnchorPoint: "Anchor-10" 0 0 basechar 0
AnchorPoint: "Anchor-9" 340 758 basechar 0
AnchorPoint: "Anchor-8" 412 11 basechar 0
LayerCount: 2
Fore
SplineSet
206 633 m 0xea
 154 633 117 675 124 729 c 0
 131 778 178 818 228 818 c 0
 282 818 319 776 311 723 c 0
 304 673 258 633 206 633 c 0xea
469 818 m 0
 523 818 559 776 551 723 c 0
 544 673 499 633 447 633 c 0
 395 633 357 675 364 729 c 0
 371 778 419 818 469 818 c 0
331 554 m 0xf4
 470 554 545 488 545 401 c 0
 545 252 362 205 206 191 c 1
 211 137 244 120 287 120 c 0
 331 120 369 137 419 169 c 1
 486 56 l 1
 427 13 351 -20 261 -20 c 0
 90 -20 12 75 12 211 c 0
 12 356 94 554 331 554 c 0xf4
214 302 m 1
 335 309 351 372 351 389 c 0
 351 413 341 429 308 429 c 0
 254 429 226 367 214 302 c 1
EndSplineSet
Substitution2: "'smcp' Lowercase to Small Capitals lookup 24 subtable" edieresis.sc
Substitution2: "'aalt' Access All Alternates lookup 0 subtable" edieresis.sc
EndChar

StartChar: igrave
Encoding: 236 236 183
Width: 276
GlyphClass: 2
Flags: MW
HStem: 0 21G<4 198 4 4> 514 20G<78 272 272 272> 691 20G<358 358> 692 20G<62 62>
VStem: 4 354
AnchorPoint: "Anchor-11" 0 0 basechar 0
AnchorPoint: "Anchor-10" 0 0 basechar 0
AnchorPoint: "Anchor-9" 175 534 basechar 0
AnchorPoint: "Anchor-8" 169 0 basechar 0
LayerCount: 2
Fore
SplineSet
358 711 m 1xe8
 294 613 l 1xe8
 62 712 l 1xd8
 154 856 l 1
 358 711 l 1xe8
198 0 m 1
 4 0 l 1
 78 534 l 1
 272 534 l 1
 198 0 l 1
EndSplineSet
Substitution2: "'smcp' Lowercase to Small Capitals lookup 24 subtable" igrave.sc
Substitution2: "'aalt' Access All Alternates lookup 0 subtable" igrave.sc
EndChar
StartChar: iacute
Encoding: 237 237 479
Width: 276
GlyphClass: 2
Flags: MW
HStem: 0 21G<4 198 4 4> 514 20G<78 272 272 272>
VStem: 4 348
AnchorPoint: "Anchor-14" 0 0 basechar 0
AnchorPoint: "Anchor-13" 0 0 basechar 0
AnchorPoint: "Anchor-12" 205 856 basechar 0
AnchorPoint: "Anchor-11" 169 0 basechar 0
AnchorPoint: "Anchor-10" 101 0 basechar 0
LayerCount: 2
Back
Fore
SplineSet
298 856 m 1
 352 712 l 1
 92 613 l 1
 54 712 l 1
 298 856 l 1
272 534 m 1
 198 0 l 1
 4 0 l 1
 78 534 l 1
 272 534 l 1
EndSplineSet
Substitution2: "'smcp' Lowercase to Small Capitals lookup 28 subtable" iacute.sc
Substitution2: "'aalt' Access All Alternates lookup 0 subtable" iacute.sc
EndChar
StartChar: icircumflex
Encoding: 238 238 482
Width: 276
GlyphClass: 2
Flags: MW
HStem: 0 21G<4 198 4 4> 514 20G<78 272 272 272>
VStem: -6 400<689 689>
AnchorPoint: "Anchor-14" 0 0 basechar 0
AnchorPoint: "Anchor-13" 0 0 basechar 0
AnchorPoint: "Anchor-12" 214 840 basechar 0
AnchorPoint: "Anchor-11" 169 0 basechar 0
AnchorPoint: "Anchor-10" 101 0 basechar 0
LayerCount: 2
Back
Fore
SplineSet
52 612 m 1
 -6 689 l 1
 157 840 l 1
 273 840 l 1
 394 689 l 1
 319 612 l 1
 199 708 l 1
 52 612 l 1
272 534 m 1
 198 0 l 1
 4 0 l 1
 78 534 l 1
 272 534 l 1
EndSplineSet
Substitution2: "'smcp' Lowercase to Small Capitals lookup 28 subtable" icircumflex.sc
Substitution2: "'aalt' Access All Alternates lookup 0 subtable" icircumflex.sc
EndChar
StartChar: idieresis
Encoding: 239 239 484
Width: 276
GlyphClass: 2
Flags: MW
HStem: 0 21G<4 198 4 4> 514 20G<78 272 272 272> 633 185<65.5 97.5 306.5 338.5>
VStem: -12 187 228 187
AnchorPoint: "Anchor-14" 0 0 basechar 0
AnchorPoint: "Anchor-13" 0 0 basechar 0
AnchorPoint: "Anchor-12" 204 818 basechar 0
AnchorPoint: "Anchor-11" 169 0 basechar 0
AnchorPoint: "Anchor-10" 101 0 basechar 0
LayerCount: 2
Back
Fore
SplineSet
92 818 m 0
 146 818 183 776 175 723 c 0
 168 673 125 633 70 633 c 0
 18 633 -19 675 -12 729 c 0
 -5 778 39 818 92 818 c 0
333 818 m 0
 387 818 423 776 415 723 c 0
 408 673 366 633 311 633 c 0
 259 633 221 675 228 729 c 0
 235 778 280 818 333 818 c 0
272 534 m 1
 198 0 l 1
 4 0 l 1
 78 534 l 1
 272 534 l 1
EndSplineSet
Substitution2: "'smcp' Lowercase to Small Capitals lookup 28 subtable" idieresis.sc
Substitution2: "'aalt' Access All Alternates lookup 0 subtable" idieresis.sc
EndChar

StartChar: eth
Encoding: 240 240 154
Width: 572
GlyphClass: 2
Flags: MW
HStem: -20 141<244.5 289.5 244.5 335> 348 134<259.5 279 170.5 309.5> 556 20G<135 135> 743 20G<167 167>
VStem: 8 198<165 220 165 262.5> 362 198
LayerCount: 2
Fore
SplineSet
415 672 m 1
 519 591 560 493 560 373 c 0
 560 343 558 313 553 281 c 0
 531 121 424 -20 246 -20 c 0
 109 -20 8 58 8 197 c 0
 8 328 88 482 253 482 c 0
 305 482 340 468 372 444 c 1
 360 493 341 530 299 568 c 1
 247 521 l 1
 135 576 l 1
 186 624 l 1
 158 631 133 636 114 639 c 1
 167 763 l 1
 209 757 247 749 302 730 c 1
 388 811 l 1
 473 726 l 1
 415 672 l 1
262 121 m 0
 317 121 339 171 352 253 c 0
 356 277 359 302 362 326 c 1
 344 340 323 348 296 348 c 0
 223 348 206 249 206 191 c 0
 206 139 227 121 262 121 c 0
EndSplineSet
Substitution2: "'smcp' Lowercase to Small Capitals lookup 24 subtable" eth.sc
Substitution2: "'aalt' Access All Alternates lookup 0 subtable" eth.sc
EndChar
StartChar: ntilde
Encoding: 241 241 550
Width: 560
GlyphClass: 2
Flags: MW
HStem: 0 21G<4 198 4 4 293 487 293 293> 393 141<78 331.5> 514 20G<78 247 247 247> 534 20G 622 138<392.5 419 392.5 427.5> 665 138<276.5 303.5> 737 20G<551 551>
VStem: 4 547 341 203.47
AnchorPoint: "Anchor-14" 0 0 basechar 0
AnchorPoint: "Anchor-13" 0 0 basechar 0
AnchorPoint: "Anchor-12" 350 804 basechar 0
AnchorPoint: "Anchor-11" 0 0 basechar 0
AnchorPoint: "Anchor-10" 246 0 basechar 0
LayerCount: 2
Back
Fore
SplineSet
396 622 m 0x99
 349 622 318 665 289 665 c 0
 264 665 249 649 229 621 c 1
 144 668 l 1x95
 179 741 235 803 299 803 c 0
 356 803 378 760 407 760 c 0
 431 760 446 776 466 804 c 1x99
 551 757 l 1x93
 516 684 459 622 396 622 c 0x99
427 554 m 0x9280
 510 554 556 495 542 393 c 2
 487 0 l 1
 293 0 l 1
 341 341 l 2
 347 383 338 393 325 393 c 0xc280
 301 393 273 353 238 278 c 1
 198 0 l 1
 4 0 l 1
 78 534 l 1
 247 534 l 1xa3
 248 446 l 1
 290 511 359 554 427 554 c 0x9280
EndSplineSet
Substitution2: "'smcp' Lowercase to Small Capitals lookup 28 subtable" ntilde.sc
Substitution2: "'aalt' Access All Alternates lookup 0 subtable" ntilde.sc
EndChar

StartChar: oacute
Encoding: 243 243 209
Width: 572
GlyphClass: 2
Flags: MW
HStem: -20 142<245 305.5 245 364> 412 142<264.5 325.5>
VStem: 13 198<172.5 235.5 172.5 290.5> 360 198
AnchorPoint: "Anchor-11" 0 0 basechar 0
AnchorPoint: "Anchor-10" 0 0 basechar 0
AnchorPoint: "Anchor-9" 314 534 basechar 0
AnchorPoint: "Anchor-8" 0 0 basechar 0
LayerCount: 2
Fore
SplineSet
479 712 m 1
 219 613 l 1
 181 712 l 1
 425 856 l 1
 479 712 l 1
323 554 m 0
 471 554 559 465 558 323 c 0
 557 165 481 -20 247 -20 c 0
 100 -20 13 66 13 211 c 0
 13 370 89 554 323 554 c 0
307 412 m 0
 222 412 211 270 211 201 c 0
 211 144 227 122 263 122 c 0
 348 122 359 264 360 333 c 0
 361 390 344 412 307 412 c 0
EndSplineSet
Substitution2: "'smcp' Lowercase to Small Capitals lookup 24 subtable" oacute.sc
Substitution2: "'locl' Localized Forms in Latin lookup 7 subtable" oacute.loclPLK
AlternateSubs2: "'aalt' Access All Alternates lookup 1 subtable" oacute.loclPLK oacute.sc
EndChar

StartChar: otilde
Encoding: 245 245 218
Width: 572
GlyphClass: 2
Flags: MW
HStem: -20 142<245 305.5 245 364> 412 142<264.5 325.5> 622 138<384.5 411 384.5 419.5> 665 138<268.5 295.5> 737 20G<543 543>
VStem: 13 198<172.5 235.5 172.5 290.5> 360 198
AnchorPoint: "Anchor-11" 0 0 basechar 0
AnchorPoint: "Anchor-10" 0 0 basechar 0
AnchorPoint: "Anchor-9" 314 534 basechar 0
AnchorPoint: "Anchor-8" 0 0 basechar 0
LayerCount: 2
Fore
SplineSet
388 622 m 0xe6
 341 622 310 665 281 665 c 0
 256 665 241 649 221 621 c 1
 136 668 l 1xd6
 171 741 227 803 291 803 c 0
 348 803 370 760 399 760 c 0
 423 760 438 776 458 804 c 1xe6
 543 757 l 1xce
 508 684 451 622 388 622 c 0xe6
323 554 m 0xce
 471 554 559 465 558 323 c 0
 557 165 481 -20 247 -20 c 0
 100 -20 13 66 13 211 c 0
 13 370 89 554 323 554 c 0xce
307 412 m 0
 222 412 211 270 211 201 c 0
 211 144 227 122 263 122 c 0
 348 122 359 264 360 333 c 0
 361 390 344 412 307 412 c 0
EndSplineSet
Substitution2: "'smcp' Lowercase to Small Capitals lookup 24 subtable" otilde.sc
Substitution2: "'aalt' Access All Alternates lookup 0 subtable" otilde.sc
EndChar

StartChar: odieresis
Encoding: 246 246 212
Width: 572
GlyphClass: 2
Flags: MW
HStem: -20 142<245 305.5 245 364> 412 142<264.5 325.5> 633 185<201 230 442 471>
VStem: 13 198<172.5 235.5 172.5 290.5> 122 187 360 198 362 187
AnchorPoint: "Anchor-11" 0 0 basechar 0
AnchorPoint: "Anchor-10" 0 0 basechar 0
AnchorPoint: "Anchor-9" 338 758 basechar 0
AnchorPoint: "Anchor-8" 0 0 basechar 0
LayerCount: 2
Fore
SplineSet
226 818 m 0xea
 280 818 317 776 309 723 c 0
 302 673 256 633 204 633 c 0
 152 633 115 675 122 729 c 0
 129 778 176 818 226 818 c 0xea
467 818 m 0
 521 818 557 776 549 723 c 0
 542 673 497 633 445 633 c 0
 393 633 355 675 362 729 c 0
 369 778 417 818 467 818 c 0
323 554 m 0xf4
 471 554 559 465 558 323 c 0
 557 165 481 -20 247 -20 c 0
 100 -20 13 66 13 211 c 0
 13 370 89 554 323 554 c 0xf4
307 412 m 0
 222 412 211 270 211 201 c 0
 211 144 227 122 263 122 c 0
 348 122 359 264 360 333 c 0
 361 390 344 412 307 412 c 0
EndSplineSet
Substitution2: "'smcp' Lowercase to Small Capitals lookup 24 subtable" odieresis.sc
Substitution2: "'aalt' Access All Alternates lookup 0 subtable" odieresis.sc
EndChar

StartChar: divide
Encoding: 247 247 1091
Width: 518
Flags: MW
HStem: -20 21G<186.5 243> -20 206<207.5 243> 257 150<58 479 37 500> 478 206<276.5 312>
VStem: 123 204<64.5 102.5> 192 204<562.5 600.5>
LayerCount: 2
Fore
SplineSet
307 684 m 0xb4
 358 684 396 644 396 593 c 0
 396 532 342 478 282 478 c 0
 229 478 192 519 192 571 c 0
 192 630 246 684 307 684 c 0xb4
58 407 m 1
 500 407 l 1
 479 257 l 1
 37 257 l 1
 58 407 l 1
238 186 m 0x78
 289 186 327 146 327 95 c 0
 327 34 273 -20 213 -20 c 0
 160 -20 123 21 123 73 c 0
 123 132 177 186 238 186 c 0x78
EndSplineSet
Substitution2: "'onum' Oldstyle Figures lookup 22 subtable" divide.osf
Substitution2: "'tnum' Tabular Numbers lookup 21 subtable" divide.tf
AlternateSubs2: "'aalt' Access All Alternates lookup 1 subtable" divide.tf divide.osf
EndChar
StartChar: ugrave
Encoding: 249 249 670
Width: 554
GlyphClass: 2
Flags: MW
HStem: -20 21G<92.5 176> 0 21G<307 476 307 307> 0 138<233.5 476 233.5 307> 514 20G<73 267 267 267 356 550 550 550> 692 20G<202 202> 695 20G<499 499>
VStem: 16.12 203.88 16.12 533.88
AnchorPoint: "Anchor-14" 0 0 basechar 0
AnchorPoint: "Anchor-13" 560 534 basechar 0
AnchorPoint: "Anchor-12" 352 856 basechar 0
AnchorPoint: "Anchor-11" 484 0 basechar 0
AnchorPoint: "Anchor-10" 251 0 basechar 0
LayerCount: 2
Back
Fore
SplineSet
287 862 m 1x55
 499 715 l 1
 441 616 l 1x55
 202 712 l 1x59
 287 862 l 1x55
550 534 m 1
 476 0 l 1
 307 0 l 1x55
 309 67 l 1
 265 15 208 -20 144 -20 c 0x96
 41 -20 5 49 19 151 c 2
 73 534 l 1
 267 534 l 1
 220 189 l 2
 214 147 225 138 242 138 c 0
 262 138 287 163 309 201 c 1x36
 356 534 l 1
 550 534 l 1
EndSplineSet
Substitution2: "'smcp' Lowercase to Small Capitals lookup 28 subtable" ugrave.sc
Substitution2: "'aalt' Access All Alternates lookup 0 subtable" ugrave.sc
EndChar

StartChar: ucircumflex
Encoding: 251 251 242
Width: 554
GlyphClass: 2
Flags: MW
HStem: -20 21G<92.5 176> 0 21G<307 476 307 307> 0 138<233.5 476 233.5 307> 514 20G<73 267 267 267 356 550 550 550>
VStem: 16.12 203.88 16.12 533.88
AnchorPoint: "Anchor-11" 0 0 basechar 0
AnchorPoint: "Anchor-10" 0 0 basechar 0
AnchorPoint: "Anchor-9" 312 534 basechar 0
AnchorPoint: "Anchor-8" 484 0 basechar 0
LayerCount: 2
Fore
SplineSet
134 689 m 1x54
 297 840 l 1
 413 840 l 1
 534 689 l 1
 459 612 l 1
 339 708 l 1
 192 612 l 1
 134 689 l 1x54
476 0 m 1
 307 0 l 1x54
 309 67 l 1
 265 15 208 -20 144 -20 c 0x98
 41 -20 5 49 19 151 c 2
 73 534 l 1
 267 534 l 1
 220 189 l 2
 214 147 225 138 242 138 c 0
 262 138 287 163 309 201 c 1x38
 356 534 l 1
 550 534 l 1
 476 0 l 1
EndSplineSet
Substitution2: "'smcp' Lowercase to Small Capitals lookup 24 subtable" ucircumflex.sc
Substitution2: "'aalt' Access All Alternates lookup 0 subtable" ucircumflex.sc
EndChar
StartChar: udieresis
Encoding: 252 252 664
Width: 554
GlyphClass: 2
Flags: MW
HStem: -20 21G<92.5 176> 0 21G<307 476 307 307> 0 138<233.5 476 233.5 307> 514 20G<73 267 267 267 356 550 550 550> 633 185<202.5 234.5 443.5 475.5>
VStem: 16.12 203.88 16.12 536.86 125 187 365 187
AnchorPoint: "Anchor-14" 0 0 basechar 0
AnchorPoint: "Anchor-13" 560 534 basechar 0
AnchorPoint: "Anchor-12" 341 818 basechar 0
AnchorPoint: "Anchor-11" 484 0 basechar 0
AnchorPoint: "Anchor-10" 251 0 basechar 0
LayerCount: 2
Back
Fore
SplineSet
229 818 m 0x5980
 283 818 320 776 312 723 c 0
 305 673 262 633 207 633 c 0
 155 633 118 675 125 729 c 0
 132 778 176 818 229 818 c 0x5980
470 818 m 0
 524 818 560 776 552 723 c 0
 545 673 503 633 448 633 c 0
 396 633 358 675 365 729 c 0
 372 778 417 818 470 818 c 0
550 534 m 1
 476 0 l 1
 307 0 l 1x5a
 309 67 l 1
 265 15 208 -20 144 -20 c 0x9c
 41 -20 5 49 19 151 c 2
 73 534 l 1
 267 534 l 1
 220 189 l 2
 214 147 225 138 242 138 c 0
 262 138 287 163 309 201 c 1x3c
 356 534 l 1
 550 534 l 1
EndSplineSet
Substitution2: "'smcp' Lowercase to Small Capitals lookup 28 subtable" udieresis.sc
Substitution2: "'aalt' Access All Alternates lookup 0 subtable" udieresis.sc
EndChar
StartChar: yacute
Encoding: 253 253 700
Width: 520
GlyphClass: 2
Flags: MW
HStem: -228 135<-22 -18> 0 21G<96 96 344 344> 514 20G<21 223 223 223 370 573 573 573>
VStem: -22 595
AnchorPoint: "Anchor-14" 0 0 basechar 0
AnchorPoint: "Anchor-13" 0 0 basechar 0
AnchorPoint: "Anchor-12" 327 856 basechar 0
AnchorPoint: "Anchor-11" 0 0 basechar 0
AnchorPoint: "Anchor-10" 204 -215 basechar 0
LayerCount: 2
Back
Fore
SplineSet
420 856 m 1
 474 712 l 1
 214 613 l 1
 176 712 l 1
 420 856 l 1
573 534 m 1
 344 0 l 2
 280 -148 158 -223 -18 -228 c 1
 -22 -93 l 1
 80 -83 127 -59 165 1 c 1
 96 0 l 1
 21 534 l 1
 223 534 l 1
 234 122 l 1
 370 534 l 1
 573 534 l 1
EndSplineSet
Substitution2: "'smcp' Lowercase to Small Capitals lookup 28 subtable" yacute.sc
Substitution2: "'aalt' Access All Alternates lookup 0 subtable" yacute.sc
EndChar

StartChar: thorn
Encoding: 254 254 221
Width: 587
GlyphClass: 2
Flags: MW
HStem: -227 21G<-28 -28> -20 141<267.5 306.5 256.5 398.5> -8 21G<197 197> 412 142<313.5 462.5> 534 20G<383.5 462.5> 744 20G
VStem: 373 199<293.5 369>
LayerCount: 2
Fore
SplineSet
406 554 m 0xce
 519 554 572 478 572 347 c 0
 572 191 511 -20 286 -20 c 0xce
 249 -20 213 -13 197 -8 c 1xae
 168 -207 l 1
 -28 -227 l 1
 108 744 l 1
 304 764 l 1
 266 495 l 1
 302 531 361 554 406 554 c 0xce
267 121 m 0
 346 121 373 249 373 338 c 0
 373 400 352 412 327 412 c 0
 300 412 273 396 248 359 c 1xd6
 216 131 l 1
 229 126 246 121 267 121 c 0
EndSplineSet
Substitution2: "'smcp' Lowercase to Small Capitals lookup 24 subtable" thorn.sc
Substitution2: "'aalt' Access All Alternates lookup 0 subtable" thorn.sc
EndChar

StartChar: ydieresis
Encoding: 255 255 260
Width: 520
GlyphClass: 2
Flags: MW
HStem: -228 21G<-18 -18> -228 135<-22 -18> 1 21G<161 161> 514 20G<21 223 223 223 370 573 573 573> 633 185<184 213 425 454>
VStem: 105 187 345 187
AnchorPoint: "Anchor-11" 0 0 basechar 0
AnchorPoint: "Anchor-10" 0 0 basechar 0
AnchorPoint: "Anchor-9" 321 758 basechar 0
AnchorPoint: "Anchor-8" 0 0 basechar 0
LayerCount: 2
Fore
SplineSet
209 818 m 0xbe
 263 818 300 776 292 723 c 0
 285 673 239 633 187 633 c 0
 135 633 98 675 105 729 c 0
 112 778 159 818 209 818 c 0xbe
450 818 m 0
 504 818 540 776 532 723 c 0
 525 673 480 633 428 633 c 0
 376 633 338 675 345 729 c 0
 352 778 400 818 450 818 c 0
344 0 m 2
 280 -148 158 -223 -18 -228 c 1
 -22 -93 l 1x7c
 80 -83 126 -59 161 1 c 1
 96 0 l 1
 21 534 l 1
 223 534 l 1
 234 122 l 1
 370 534 l 1
 573 534 l 1
 344 0 l 2
EndSplineSet
Substitution2: "'smcp' Lowercase to Small Capitals lookup 24 subtable" ydieresis.sc
Substitution2: "'aalt' Access All Alternates lookup 0 subtable" ydieresis.sc
EndChar
StartChar: Amacron
Encoding: 256 256 27
Width: 589
GlyphClass: 2
Flags: MW
HStem: 0 21G<-62 149 -62 -62 363 577 363 363> 135 144<239 348 239 356 193 348> 567 129<332 332> 676 20G<234 476 476 476> 774 134<225 525 206 544>
VStem: -62 639<0 0>
AnchorPoint: "Anchor-14" 0 0 basechar 0
AnchorPoint: "Anchor-13" 0 0 basechar 0
AnchorPoint: "Anchor-12" 377 908 basechar 0
AnchorPoint: "Anchor-11" 489 0 basechar 0
AnchorPoint: "Anchor-10" 256 0 basechar 0
LayerCount: 2
Back
Fore
SplineSet
544 908 m 1xdc
 525 774 l 1
 206 774 l 1
 225 908 l 1
 544 908 l 1xdc
363 0 m 1
 356 135 l 1
 193 135 l 1
 149 0 l 1
 -62 0 l 1
 234 696 l 1
 476 696 l 1
 577 0 l 1
 363 0 l 1
239 279 m 1
 348 279 l 1
 332 567 l 1xec
 239 279 l 1
EndSplineSet
Substitution2: "'c2sc' Capitals to Small Capitals lookup 27 subtable" amacron.sc
Substitution2: "'aalt' Access All Alternates lookup 0 subtable" amacron.sc
Position2: "'cpsp' Capital Spacing lookup 0 subtable" dx=5 dy=0 dh=10 dv=0
EndChar

StartChar: Abreve
Encoding: 258 258 3
Width: 589
GlyphClass: 2
Flags: MW
HStem: 0 21G<-62 149 -62 -62 363 363 363 577> 135 144<239 348 239 356 193 348> 567 129<332 332> 676 20G<234 476 476 476> 746 134<343.5 387.5 343.5 411.5>
VStem: -62 639<0 0> 196 100<933 948>
AnchorPoint: "Anchor-11" 0 0 basechar 0
AnchorPoint: "Anchor-10" 66 534 basechar 0
AnchorPoint: "Anchor-9" 355 696 basechar 0
AnchorPoint: "Anchor-8" 489 0 basechar 0
LayerCount: 2
Fore
SplineSet
353 746 m 0xda
 234 746 190 841 196 933 c 1
 296 948 l 1
 300 911 322 880 365 880 c 0
 410 880 440 913 455 950 c 1
 558 931 l 1
 538 839 470 746 353 746 c 0xda
356 135 m 1
 193 135 l 1
 149 0 l 1
 -62 0 l 1
 234 696 l 1
 476 696 l 1
 577 0 l 1
 363 0 l 1
 356 135 l 1
348 279 m 1
 332 567 l 1xec
 239 279 l 1
 348 279 l 1
EndSplineSet
Substitution2: "'c2sc' Capitals to Small Capitals lookup 23 subtable" abreve.sc
Substitution2: "'aalt' Access All Alternates lookup 0 subtable" abreve.sc
Position2: "'cpsp' Capital Spacing lookup 0 subtable" dx=5 dy=0 dh=10 dv=0
EndChar
StartChar: abreve
Encoding: 259 259 337
Width: 574
GlyphClass: 2
Flags: MW
HStem: -20 21G<129 225> -20 142<129 266> -16 21G<486 486> 418 136<279.5 330> 626 134<346.5 390.5 346.5 412.5>
VStem: 11 199<165 245 165 275.5> 197 102<823 838>
AnchorPoint: "Anchor-14" 0 0 basechar 0
AnchorPoint: "Anchor-13" 0 0 basechar 0
AnchorPoint: "Anchor-12" 380 840 basechar 0
AnchorPoint: "Anchor-11" 494 -16 basechar 0
AnchorPoint: "Anchor-10" 277 0 basechar 0
LayerCount: 2
Back
Fore
SplineSet
354 626 m 0x3a
 235 626 191 721 197 823 c 1
 299 838 l 1
 302 791 325 760 368 760 c 0
 413 760 444 793 461 840 c 1
 559 821 l 1
 539 719 471 626 354 626 c 0x3a
330 554 m 0
 405 554 492 535 566 491 c 1
 520 172 l 2
 519 163 518 155 518 148 c 0
 518 127 525 117 542 110 c 1
 486 -16 l 1x3c
 424 -12 366 15 345 72 c 1
 311 19 262 -20 188 -20 c 0
 70 -20 11 64 11 197 c 0x9c
 11 354 94 554 330 554 c 0
322 418 m 0x5c
 237 418 210 292 210 198 c 0
 210 132 231 122 253 122 c 0
 279 122 306 141 330 182 c 1
 364 412 l 1
 349 416 338 418 322 418 c 0x5c
EndSplineSet
Substitution2: "'smcp' Lowercase to Small Capitals lookup 28 subtable" abreve.sc
Substitution2: "'aalt' Access All Alternates lookup 0 subtable" abreve.sc
EndChar

StartChar: Aogonek
Encoding: 260 260 8
Width: 589
GlyphClass: 2
Flags: MW
HStem: -254 115<317 404.5> 0 21G<-62 149 -62 -62 481 577 481 481> 135 144<239 348 239 356 193 348> 567 129<332 332> 676 20G<234 476 476 476>
VStem: 215 137<-117.5 -107.5>
AnchorPoint: "Anchor-11" 0 0 basechar 0
AnchorPoint: "Anchor-10" 66 534 basechar 0
AnchorPoint: "Anchor-9" 355 696 basechar 0
AnchorPoint: "Anchor-8" 489 0 basechar 0
LayerCount: 2
Fore
SplineSet
481 0 m 1xec
 370 -36 352 -82 352 -106 c 0
 352 -129 367 -139 395 -139 c 0
 414 -139 435 -136 457 -131 c 1
 431 -246 l 1
 409 -251 384 -254 358 -254 c 0
 276 -254 215 -214 215 -143 c 0
 215 -72 261 -14 361 29 c 1
 356 135 l 1
 193 135 l 1
 149 0 l 1
 -62 0 l 1
 234 696 l 1
 476 696 l 1
 577 0 l 1
 481 0 l 1xec
348 279 m 1
 332 567 l 1x74
 239 279 l 1
 348 279 l 1
EndSplineSet
Substitution2: "'c2sc' Capitals to Small Capitals lookup 23 subtable" aogonek.sc
Substitution2: "'aalt' Access All Alternates lookup 0 subtable" aogonek.sc
Position2: "'cpsp' Capital Spacing lookup 0 subtable" dx=5 dy=0 dh=10 dv=0
EndChar

StartChar: aogonek
Encoding: 261 261 141
Width: 573
GlyphClass: 2
Flags: MW
HStem: -270 115<321 408.5> -20 21G<128 224> -20 142<128 265> 418 136<278.5 329>
VStem: 10 199<165 245 165 275.5> 219 137<-133.5 -122>
AnchorPoint: "Anchor-11" 0 0 basechar 0
AnchorPoint: "Anchor-10" 0 0 basechar 0
AnchorPoint: "Anchor-9" 346 534 basechar 0
AnchorPoint: "Anchor-8" 493 -16 basechar 0
LayerCount: 2
Fore
SplineSet
517 148 m 0xd8
 517 127 524 117 541 110 c 1
 485 -16 l 1
 374 -52 356 -98 356 -122 c 0
 356 -145 371 -155 399 -155 c 0
 418 -155 439 -152 461 -147 c 1
 435 -262 l 1
 413 -267 388 -270 362 -270 c 0
 280 -270 219 -230 219 -159 c 0xdc
 219 -85 270 -24 382 20 c 1
 365 33 352 51 344 72 c 1
 310 19 261 -20 187 -20 c 0
 69 -20 10 64 10 197 c 0
 10 354 93 554 329 554 c 0
 404 554 491 535 565 491 c 1
 519 172 l 2
 518 163 517 155 517 148 c 0xd8
363 412 m 1
 348 416 337 418 321 418 c 0
 236 418 209 292 209 198 c 0
 209 132 230 122 252 122 c 0
 278 122 305 141 329 182 c 1xb8
 363 412 l 1
EndSplineSet
Substitution2: "'smcp' Lowercase to Small Capitals lookup 24 subtable" aogonek.sc
Substitution2: "'aalt' Access All Alternates lookup 0 subtable" aogonek.sc
EndChar
StartChar: Cacute
Encoding: 262 262 43
Width: 571
GlyphClass: 2
Flags: MW
HStem: -20 155<304 355.5> 568 148<333.5 420>
VStem: 25 209<226.5 325.5 226.5 367>
AnchorPoint: "Anchor-14" 0 0 basechar 0
AnchorPoint: "Anchor-13" 0 0 basechar 0
AnchorPoint: "Anchor-12" 436 985 basechar 0
AnchorPoint: "Anchor-11" 0 0 basechar 0
AnchorPoint: "Anchor-10" 294 0 basechar 0
LayerCount: 2
Back
Fore
SplineSet
512 985 m 1
 586 841 l 1
 335 742 l 1
 282 841 l 1
 512 985 l 1
395 716 m 0
 491 716 564 684 613 626 c 1
 504 520 l 1
 475 550 443 568 397 568 c 0
 270 568 234 377 234 274 c 0
 234 179 271 135 337 135 c 0
 386 135 427 162 471 194 c 1
 545 76 l 1
 488 25 403 -20 308 -20 c 0
 132 -20 25 81 25 270 c 0
 25 464 122 716 395 716 c 0
EndSplineSet
Substitution2: "'c2sc' Capitals to Small Capitals lookup 27 subtable" cacute.sc
Substitution2: "'locl' Localized Forms in Latin lookup 7 subtable" Cacute.loclPLK
AlternateSubs2: "'aalt' Access All Alternates lookup 1 subtable" Cacute.loclPLK cacute.sc
Position2: "'cpsp' Capital Spacing lookup 0 subtable" dx=5 dy=0 dh=10 dv=0
EndChar

StartChar: cacute
Encoding: 263 263 148
Width: 468
GlyphClass: 2
Flags: MW
HStem: -20 153<263 294> 405 149<280.5 342>
VStem: 11 203<180 251.5 180 286>
AnchorPoint: "Anchor-11" 234 0 basechar 0
AnchorPoint: "Anchor-10" 0 0 basechar 0
AnchorPoint: "Anchor-9" 322 534 basechar 0
AnchorPoint: "Anchor-8" 0 0 basechar 0
LayerCount: 2
Fore
SplineSet
487 712 m 1
 227 613 l 1
 189 712 l 1
 433 856 l 1
 487 712 l 1
326 554 m 0
 399 554 461 527 506 480 c 1
 413 369 l 1
 385 395 357 405 327 405 c 0
 234 405 214 291 214 212 c 0
 214 148 243 133 283 133 c 0
 316 133 341 145 378 168 c 1
 448 44 l 1
 394 5 333 -20 255 -20 c 0
 100 -20 11 74 11 217 c 0
 11 355 98 554 326 554 c 0
EndSplineSet
Substitution2: "'smcp' Lowercase to Small Capitals lookup 24 subtable" cacute.sc
Substitution2: "'locl' Localized Forms in Latin lookup 7 subtable" cacute.loclPLK
AlternateSubs2: "'aalt' Access All Alternates lookup 1 subtable" cacute.loclPLK cacute.sc
EndChar

StartChar: Ccircumflex
Encoding: 264 264 18
Width: 571
GlyphClass: 2
Flags: MW
HStem: -20 155<304 355.5> 568 148<333.5 420>
VStem: 25 209<226.5 325.5 226.5 367>
AnchorPoint: "Anchor-11" 294 0 basechar 0
AnchorPoint: "Anchor-10" 0 0 basechar 0
AnchorPoint: "Anchor-9" 410 696 basechar 0
AnchorPoint: "Anchor-8" 0 0 basechar 0
LayerCount: 2
Fore
SplineSet
438 839 m 1
 292 752 l 1
 233 829 l 1
 395 970 l 1
 511 970 l 1
 633 829 l 1
 560 752 l 1
 438 839 l 1
395 716 m 0
 491 716 564 684 613 626 c 1
 504 520 l 1
 475 550 443 568 397 568 c 0
 270 568 234 377 234 274 c 0
 234 179 271 135 337 135 c 0
 386 135 427 162 471 194 c 1
 545 76 l 1
 488 25 403 -20 308 -20 c 0
 132 -20 25 81 25 270 c 0
 25 464 122 716 395 716 c 0
EndSplineSet
Substitution2: "'c2sc' Capitals to Small Capitals lookup 23 subtable" ccircumflex.sc
Substitution2: "'aalt' Access All Alternates lookup 0 subtable" ccircumflex.sc
Position2: "'cpsp' Capital Spacing lookup 0 subtable" dx=5 dy=0 dh=10 dv=0
EndChar
StartChar: ccircumflex
Encoding: 265 265 384
Width: 469
GlyphClass: 2
Flags: MW
HStem: -20 153<264 295> 405 149<281.5 343>
VStem: 12 203<180 251.5 180 286>
AnchorPoint: "Anchor-14" 0 0 basechar 0
AnchorPoint: "Anchor-13" 0 0 basechar 0
AnchorPoint: "Anchor-12" 362 840 basechar 0
AnchorPoint: "Anchor-11" 0 0 basechar 0
AnchorPoint: "Anchor-10" 235 0 basechar 0
LayerCount: 2
Back
Fore
SplineSet
200 612 m 1
 142 689 l 1
 305 840 l 1
 421 840 l 1
 542 689 l 1
 467 612 l 1
 347 708 l 1
 200 612 l 1
327 554 m 0
 400 554 462 527 507 480 c 1
 414 369 l 1
 386 395 358 405 328 405 c 0
 235 405 215 291 215 212 c 0
 215 148 244 133 284 133 c 0
 317 133 342 145 379 168 c 1
 449 44 l 1
 395 5 334 -20 256 -20 c 0
 101 -20 12 74 12 217 c 0
 12 355 99 554 327 554 c 0
EndSplineSet
Substitution2: "'smcp' Lowercase to Small Capitals lookup 28 subtable" ccircumflex.sc
Substitution2: "'aalt' Access All Alternates lookup 0 subtable" ccircumflex.sc
EndChar

StartChar: Cdotaccent
Encoding: 266 266 19
Width: 571
GlyphClass: 2
Flags: MW
HStem: -20 155<304 355.5> 568 148<333.5 420> 743 212<413.5 450.5>
VStem: 25 209<226.5 325.5 226.5 367> 323 218
AnchorPoint: "Anchor-11" 294 0 basechar 0
AnchorPoint: "Anchor-10" 0 0 basechar 0
AnchorPoint: "Anchor-9" 410 696 basechar 0
AnchorPoint: "Anchor-8" 0 0 basechar 0
LayerCount: 2
Fore
SplineSet
445 955 m 0
 510 955 549 908 541 846 c 0
 533 788 482 743 419 743 c 0
 354 743 315 790 323 852 c 0
 331 910 382 955 445 955 c 0
395 716 m 0xd0
 491 716 564 684 613 626 c 1
 504 520 l 1
 475 550 443 568 397 568 c 0
 270 568 234 377 234 274 c 0
 234 179 271 135 337 135 c 0
 386 135 427 162 471 194 c 1
 545 76 l 1
 488 25 403 -20 308 -20 c 0
 132 -20 25 81 25 270 c 0
 25 464 122 716 395 716 c 0xd0
EndSplineSet
Substitution2: "'c2sc' Capitals to Small Capitals lookup 23 subtable" cdotaccent.sc
Substitution2: "'aalt' Access All Alternates lookup 0 subtable" cdotaccent.sc
Position2: "'cpsp' Capital Spacing lookup 0 subtable" dx=5 dy=0 dh=10 dv=0
EndChar

StartChar: cdotaccent
Encoding: 267 267 152
Width: 468
GlyphClass: 2
Flags: MW
HStem: -20 153<263 294> 405 149<280.5 342> 617 212<330.5 367.5>
VStem: 11 203<180 251.5 180 286> 240 218
AnchorPoint: "Anchor-11" 234 0 basechar 0
AnchorPoint: "Anchor-10" 0 0 basechar 0
AnchorPoint: "Anchor-9" 322 534 basechar 0
AnchorPoint: "Anchor-8" 0 0 basechar 0
LayerCount: 2
Fore
SplineSet
362 829 m 0
 427 829 466 782 458 720 c 0
 450 662 399 617 336 617 c 0
 271 617 232 664 240 726 c 0
 248 784 299 829 362 829 c 0
326 554 m 0
 399 554 461 527 506 480 c 1
 413 369 l 1
 385 395 357 405 327 405 c 0
 234 405 214 291 214 212 c 0
 214 148 243 133 283 133 c 0
 316 133 341 145 378 168 c 1
 448 44 l 1
 394 5 333 -20 255 -20 c 0
 100 -20 11 74 11 217 c 0xf0
 11 355 98 554 326 554 c 0
EndSplineSet
Substitution2: "'smcp' Lowercase to Small Capitals lookup 24 subtable" cdotaccent.sc
Substitution2: "'aalt' Access All Alternates lookup 0 subtable" cdotaccent.sc
EndChar

StartChar: Ccaron
Encoding: 268 268 16
Width: 571
GlyphClass: 2
Flags: MW
HStem: -20 155<304 355.5> 568 148<333.5 420>
VStem: 25 209<226.5 325.5 226.5 367>
AnchorPoint: "Anchor-11" 294 0 basechar 0
AnchorPoint: "Anchor-10" 0 0 basechar 0
AnchorPoint: "Anchor-9" 410 696 basechar 0
AnchorPoint: "Anchor-8" 0 0 basechar 0
LayerCount: 2
Fore
SplineSet
632 888 m 1
 471 747 l 1
 355 747 l 1
 232 888 l 1
 306 964 l 1
 428 878 l 1
 574 964 l 1
 632 888 l 1
395 716 m 0
 491 716 564 684 613 626 c 1
 504 520 l 1
 475 550 443 568 397 568 c 0
 270 568 234 377 234 274 c 0
 234 179 271 135 337 135 c 0
 386 135 427 162 471 194 c 1
 545 76 l 1
 488 25 403 -20 308 -20 c 0
 132 -20 25 81 25 270 c 0
 25 464 122 716 395 716 c 0
EndSplineSet
Substitution2: "'c2sc' Capitals to Small Capitals lookup 23 subtable" ccaron.sc
Substitution2: "'aalt' Access All Alternates lookup 0 subtable" ccaron.sc
Position2: "'cpsp' Capital Spacing lookup 0 subtable" dx=5 dy=0 dh=10 dv=0
EndChar

StartChar: ccaron
Encoding: 269 269 149
Width: 468
GlyphClass: 2
Flags: MW
HStem: -20 153<263 294> 405 149<280.5 342> 733 20G<153 153 553 553>
VStem: 11 203<180 251.5 180 286>
AnchorPoint: "Anchor-11" 234 0 basechar 0
AnchorPoint: "Anchor-10" 0 0 basechar 0
AnchorPoint: "Anchor-9" 322 534 basechar 0
AnchorPoint: "Anchor-8" 0 0 basechar 0
LayerCount: 2
Fore
SplineSet
553 753 m 1
 391 602 l 1
 275 602 l 1
 153 753 l 1
 225 830 l 1
 345 734 l 1
 493 830 l 1
 553 753 l 1
326 554 m 0
 399 554 461 527 506 480 c 1
 413 369 l 1
 385 395 357 405 327 405 c 0
 234 405 214 291 214 212 c 0
 214 148 243 133 283 133 c 0
 316 133 341 145 378 168 c 1
 448 44 l 1
 394 5 333 -20 255 -20 c 0
 100 -20 11 74 11 217 c 0
 11 355 98 554 326 554 c 0
EndSplineSet
Substitution2: "'smcp' Lowercase to Small Capitals lookup 24 subtable" ccaron.sc
Substitution2: "'aalt' Access All Alternates lookup 0 subtable" ccaron.sc
EndChar

StartChar: Dcaron
Encoding: 270 270 22
Width: 645
GlyphClass: 2
Flags: MW
HStem: 0 145<228 237> 551 145<285 285 285 320 320 327>
VStem: 434 208<372 477>
AnchorPoint: "Anchor-11" 0 0 basechar 0
AnchorPoint: "Anchor-10" 0 0 basechar 0
AnchorPoint: "Anchor-9" 346 696 basechar 0
AnchorPoint: "Anchor-8" 0 0 basechar 0
LayerCount: 2
Fore
SplineSet
568 888 m 1
 407 747 l 1
 291 747 l 1
 168 888 l 1
 242 964 l 1
 364 878 l 1
 510 964 l 1
 568 888 l 1
320 696 m 2
 489 696 642 645 642 432 c 0
 642 203 548 0 237 0 c 2
 6 0 l 1
 103 696 l 1
 320 696 l 2
285 551 m 1
 228 145 l 1
 267 145 l 2
 408 145 434 314 434 430 c 0
 434 524 397 551 327 551 c 2
 285 551 l 1
EndSplineSet
Substitution2: "'c2sc' Capitals to Small Capitals lookup 23 subtable" dcaron.sc
Substitution2: "'aalt' Access All Alternates lookup 0 subtable" dcaron.sc
Position2: "'cpsp' Capital Spacing lookup 0 subtable" dx=5 dy=0 dh=10 dv=0
EndChar
StartChar: dcaron
Encoding: 271 271 393
Width: 705
GlyphClass: 2
Flags: MW
HStem: -20 21G<120.5 215.5> 0 122<241 507 241 334> 413 141<274 299 179.5 326.5> 740 20G<656 656> 744 20G
VStem: 11 200<166 238.5 166 272>
AnchorPoint: "Anchor-14" 291 267 basechar 0
AnchorPoint: "Anchor-13" 625 744 basechar 0
AnchorPoint: "Anchor-12" 337 744 basechar 0
AnchorPoint: "Anchor-11" 0 0 basechar 0
AnchorPoint: "Anchor-10" 253 0 basechar 0
LayerCount: 2
Back
Fore
SplineSet
419 764 m 1xac
 611 744 l 1
 507 0 l 1
 334 0 l 1x6c
 335 69 l 1
 303 25 253 -20 178 -20 c 0
 63 -20 11 61 11 197 c 0
 11 347 80 554 279 554 c 0
 319 554 358 538 384 511 c 1
 419 764 l 1xac
656 760 m 1xb4
 792 743 l 1x6c
 713 509 l 1
 616 517 l 1
 656 760 l 1xb4
315 413 m 0
 233 413 211 278 211 199 c 0
 211 133 230 122 252 122 c 0
 284 122 317 166 341 205 c 1
 367 389 l 1
 352 406 338 413 315 413 c 0
EndSplineSet
Substitution2: "'smcp' Lowercase to Small Capitals lookup 28 subtable" dcaron.sc
Substitution2: "'aalt' Access All Alternates lookup 0 subtable" dcaron.sc
EndChar
StartChar: dcroat
Encoding: 273 273 395
Width: 599
GlyphClass: 2
Flags: MW
HStem: -20 21G<125.5 220.5> 0 122<246 512 246 339> 413 141<279 304 184.5 331.5> 590 106<285 400 284 415 609 643> 744 20G
VStem: 16 200<166 238.5 166 272>
AnchorPoint: "Anchor-14" 296 267 basechar 0
AnchorPoint: "Anchor-13" 630 744 basechar 0
AnchorPoint: "Anchor-12" 342 744 basechar 0
AnchorPoint: "Anchor-11" 0 0 basechar 0
AnchorPoint: "Anchor-10" 258 0 basechar 0
LayerCount: 2
Back
Fore
SplineSet
658 696 m 1xbc
 643 590 l 1
 594 590 l 1
 512 0 l 1
 339 0 l 1x7c
 340 69 l 1
 308 25 258 -20 183 -20 c 0
 68 -20 16 61 16 197 c 0
 16 347 85 554 284 554 c 0
 324 554 363 538 389 511 c 1
 400 590 l 1
 284 590 l 1
 285 696 l 1
 415 696 l 1
 424 764 l 1
 616 744 l 1
 609 696 l 1
 658 696 l 1xbc
346 205 m 1
 372 389 l 1
 357 406 343 413 320 413 c 0
 238 413 216 278 216 199 c 0
 216 133 235 122 257 122 c 0
 289 122 322 166 346 205 c 1
EndSplineSet
Substitution2: "'smcp' Lowercase to Small Capitals lookup 28 subtable" dcroat.sc
Substitution2: "'aalt' Access All Alternates lookup 0 subtable" dcroat.sc
EndChar
StartChar: Emacron
Encoding: 274 274 83
Width: 511
GlyphClass: 2
Flags: MW
HStem: 0 144<229 451> 284 139<268 447 249 465> 553 143<286 512 286 286> 774 134<199 499 180 518>
VStem: 7 546
AnchorPoint: "Anchor-14" 0 0 basechar 0
AnchorPoint: "Anchor-13" 0 0 basechar 0
AnchorPoint: "Anchor-12" 351 908 basechar 0
AnchorPoint: "Anchor-11" 421 0 basechar 0
AnchorPoint: "Anchor-10" 229 0 basechar 0
LayerCount: 2
Back
Fore
SplineSet
499 774 m 1
 180 774 l 1
 199 908 l 1
 518 908 l 1
 499 774 l 1
553 696 m 1
 512 553 l 1
 286 553 l 1
 268 423 l 1
 465 423 l 1
 447 284 l 1
 249 284 l 1
 229 144 l 1
 471 144 l 1
 451 0 l 1
 7 0 l 1
 104 696 l 1
 553 696 l 1
EndSplineSet
Substitution2: "'c2sc' Capitals to Small Capitals lookup 27 subtable" emacron.sc
Substitution2: "'aalt' Access All Alternates lookup 0 subtable" emacron.sc
Position2: "'cpsp' Capital Spacing lookup 0 subtable" dx=5 dy=0 dh=10 dv=0
EndChar
StartChar: emacron
Encoding: 275 275 427
Width: 543
GlyphClass: 2
Flags: MW
HStem: -20 140<265.5 306> 429 125<281 324.5> 648 134<191 491 172 510>
VStem: 12 194 12 533<143 444.5> 351 194<380.5 401>
AnchorPoint: "Anchor-14" 0 0 basechar 0
AnchorPoint: "Anchor-13" 0 0 basechar 0
AnchorPoint: "Anchor-12" 343 782 basechar 0
AnchorPoint: "Anchor-11" 412 11 basechar 0
AnchorPoint: "Anchor-10" 251 0 basechar 0
LayerCount: 2
Back
Fore
SplineSet
510 782 m 1xe8
 491 648 l 1
 172 648 l 1
 191 782 l 1
 510 782 l 1xe8
545 401 m 0xf4
 545 252 362 205 206 191 c 1
 211 137 244 120 287 120 c 0
 331 120 369 137 419 169 c 1
 486 56 l 1
 427 13 351 -20 261 -20 c 0
 90 -20 12 75 12 211 c 0
 12 356 94 554 331 554 c 0
 470 554 545 488 545 401 c 0xf4
214 302 m 1
 335 309 351 372 351 389 c 0
 351 413 341 429 308 429 c 0
 254 429 226 367 214 302 c 1
EndSplineSet
Substitution2: "'smcp' Lowercase to Small Capitals lookup 28 subtable" emacron.sc
Substitution2: "'aalt' Access All Alternates lookup 0 subtable" emacron.sc
EndChar

StartChar: Ebreve
Encoding: 276 276 26
Width: 510
GlyphClass: 2
Flags: MW
HStem: 0 144<228 450> 284 139<267 446 248 464> 553 143<285 511 285 285> 746 134<316.5 360.5 316.5 384.5>
VStem: 169 100<933 948>
AnchorPoint: "Anchor-11" 228 0 basechar 0
AnchorPoint: "Anchor-10" -48 534 basechar 0
AnchorPoint: "Anchor-9" 328 696 basechar 0
AnchorPoint: "Anchor-8" 420 0 basechar 0
LayerCount: 2
Fore
SplineSet
326 746 m 0
 207 746 163 841 169 933 c 1
 269 948 l 1
 273 911 295 880 338 880 c 0
 383 880 413 913 428 950 c 1
 531 931 l 1
 511 839 443 746 326 746 c 0
511 553 m 1
 285 553 l 1
 267 423 l 1
 464 423 l 1
 446 284 l 1
 248 284 l 1
 228 144 l 1
 470 144 l 1
 450 0 l 1
 6 0 l 1
 103 696 l 1
 552 696 l 1
 511 553 l 1
EndSplineSet
Substitution2: "'c2sc' Capitals to Small Capitals lookup 23 subtable" ebreve.sc
Substitution2: "'aalt' Access All Alternates lookup 0 subtable" ebreve.sc
Position2: "'cpsp' Capital Spacing lookup 0 subtable" dx=5 dy=0 dh=10 dv=0
EndChar

StartChar: ebreve
Encoding: 277 277 159
Width: 542
GlyphClass: 2
Flags: MW
HStem: -20 140<265.5 306> 429 125<281 324.5> 626 134<324.5 368.5 324.5 390.5>
VStem: 12 194 175 102<823 838> 351 194<380.5 401>
AnchorPoint: "Anchor-11" 251 0 basechar 0
AnchorPoint: "Anchor-10" 0 0 basechar 0
AnchorPoint: "Anchor-9" 316 534 basechar 0
AnchorPoint: "Anchor-8" 412 11 basechar 0
LayerCount: 2
Fore
SplineSet
332 626 m 0xec
 213 626 169 721 175 823 c 1
 277 838 l 1
 280 791 303 760 346 760 c 0
 391 760 422 793 439 840 c 1
 537 821 l 1
 517 719 449 626 332 626 c 0xec
545 401 m 0
 545 252 362 205 206 191 c 1
 211 137 244 120 287 120 c 0
 331 120 369 137 419 169 c 1
 486 56 l 1
 427 13 351 -20 261 -20 c 0
 90 -20 12 75 12 211 c 0xf4
 12 356 94 554 331 554 c 0
 470 554 545 488 545 401 c 0
214 302 m 1
 335 309 351 372 351 389 c 0
 351 413 341 429 308 429 c 0
 254 429 226 367 214 302 c 1
EndSplineSet
Substitution2: "'smcp' Lowercase to Small Capitals lookup 24 subtable" ebreve.sc
Substitution2: "'aalt' Access All Alternates lookup 0 subtable" ebreve.sc
EndChar
StartChar: Edotaccent
Encoding: 278 278 78
Width: 511
GlyphClass: 2
Flags: MW
HStem: 0 144<229 451> 284 139<268 447 249 465> 553 143<286 512 286 286> 743 212<336.5 373.5>
VStem: 7 546
AnchorPoint: "Anchor-14" 0 0 basechar 0
AnchorPoint: "Anchor-13" 0 0 basechar 0
AnchorPoint: "Anchor-12" 367 955 basechar 0
AnchorPoint: "Anchor-11" 421 0 basechar 0
AnchorPoint: "Anchor-10" 229 0 basechar 0
LayerCount: 2
Back
Fore
SplineSet
368 955 m 0
 433 955 472 908 464 846 c 0
 456 788 405 743 342 743 c 0
 277 743 238 790 246 852 c 0
 254 910 305 955 368 955 c 0
553 696 m 1
 512 553 l 1
 286 553 l 1
 268 423 l 1
 465 423 l 1
 447 284 l 1
 249 284 l 1
 229 144 l 1
 471 144 l 1
 451 0 l 1
 7 0 l 1
 104 696 l 1
 553 696 l 1
EndSplineSet
Substitution2: "'c2sc' Capitals to Small Capitals lookup 27 subtable" edotaccent.sc
Substitution2: "'aalt' Access All Alternates lookup 0 subtable" edotaccent.sc
Position2: "'cpsp' Capital Spacing lookup 0 subtable" dx=5 dy=0 dh=10 dv=0
EndChar

StartChar: edotaccent
Encoding: 279 279 163
Width: 542
GlyphClass: 2
Flags: MW
HStem: -20 140<265.5 306> 429 125<281 324.5> 617 212<324.5 361.5>
VStem: 12 194 234 218 351 194<380.5 401>
AnchorPoint: "Anchor-11" 251 0 basechar 0
AnchorPoint: "Anchor-10" 0 0 basechar 0
AnchorPoint: "Anchor-9" 316 534 basechar 0
AnchorPoint: "Anchor-8" 412 11 basechar 0
LayerCount: 2
Fore
SplineSet
330 617 m 0xf8
 265 617 226 664 234 726 c 0
 242 784 293 829 356 829 c 0
 421 829 460 782 452 720 c 0
 444 662 393 617 330 617 c 0xf8
545 401 m 0xf4
 545 252 362 205 206 191 c 1
 211 137 244 120 287 120 c 0
 331 120 369 137 419 169 c 1
 486 56 l 1
 427 13 351 -20 261 -20 c 0
 90 -20 12 75 12 211 c 0
 12 356 94 554 331 554 c 0
 470 554 545 488 545 401 c 0xf4
214 302 m 1
 335 309 351 372 351 389 c 0
 351 413 341 429 308 429 c 0
 254 429 226 367 214 302 c 1
EndSplineSet
Substitution2: "'smcp' Lowercase to Small Capitals lookup 24 subtable" edotaccent.sc
Substitution2: "'aalt' Access All Alternates lookup 0 subtable" edotaccent.sc
EndChar
StartChar: Eogonek
Encoding: 280 280 84
Width: 511
GlyphClass: 2
Flags: MW
HStem: -254 115<249 336.5> 0 144<229 237 413 451 413 413> 284 139<268 447 249 465> 553 143<286 512 286 286>
VStem: 7 546 147 137<-117.5 -115>
AnchorPoint: "Anchor-14" 0 0 basechar 0
AnchorPoint: "Anchor-13" 0 0 basechar 0
AnchorPoint: "Anchor-12" 329 696 basechar 0
AnchorPoint: "Anchor-11" 421 0 basechar 0
AnchorPoint: "Anchor-10" 229 0 basechar 0
LayerCount: 2
Back
Fore
SplineSet
512 553 m 1x78
 286 553 l 1
 268 423 l 1
 465 423 l 1
 447 284 l 1
 249 284 l 1
 229 144 l 1
 471 144 l 1
 451 0 l 1
 413 0 l 1
 302 -36 284 -82 284 -106 c 0
 284 -129 299 -139 327 -139 c 0
 346 -139 367 -136 389 -131 c 1
 363 -246 l 1
 341 -251 316 -254 290 -254 c 0
 208 -254 147 -214 147 -143 c 0
 147 -87 175 -39 237 0 c 1xf4
 7 0 l 1
 104 696 l 1
 553 696 l 1
 512 553 l 1x78
EndSplineSet
Substitution2: "'c2sc' Capitals to Small Capitals lookup 27 subtable" eogonek.sc
Substitution2: "'aalt' Access All Alternates lookup 0 subtable" eogonek.sc
Position2: "'cpsp' Capital Spacing lookup 0 subtable" dx=5 dy=0 dh=10 dv=0
EndChar

StartChar: eogonek
Encoding: 281 281 166
Width: 542
GlyphClass: 2
Flags: MW
HStem: -243 115<233.5 326> -16 21G 429 125<281 324.5>
VStem: 12 194 134 139 351 194<380.5 401>
AnchorPoint: "Anchor-11" 251 0 basechar 0
AnchorPoint: "Anchor-10" 0 0 basechar 0
AnchorPoint: "Anchor-9" 316 534 basechar 0
AnchorPoint: "Anchor-8" 412 11 basechar 0
LayerCount: 2
Fore
SplineSet
545 401 m 0xf4
 545 252 362 205 206 191 c 1
 211 137 244 120 287 120 c 0xf4
 331 120 369 137 419 169 c 1
 486 56 l 1
 448 29 404 5 354 -8 c 1
 294 -36 276 -66 273 -87 c 0
 269 -115 285 -128 316 -128 c 0
 336 -128 357 -125 379 -120 c 1
 353 -235 l 1
 331 -240 305 -243 279 -243 c 0
 188 -243 123 -196 134 -114 c 0xec
 140 -71 167 -39 205 -16 c 1
 73 3 12 91 12 211 c 0
 12 356 94 554 331 554 c 0
 470 554 545 488 545 401 c 0xf4
214 302 m 1
 335 309 351 372 351 389 c 0
 351 413 341 429 308 429 c 0
 254 429 226 367 214 302 c 1
EndSplineSet
Substitution2: "'smcp' Lowercase to Small Capitals lookup 24 subtable" eogonek.sc
Substitution2: "'aalt' Access All Alternates lookup 0 subtable" eogonek.sc
EndChar
StartChar: Ecaron
Encoding: 282 282 68
Width: 511
GlyphClass: 2
Flags: MW
HStem: 0 144<229 451> 284 139<268 447 249 465> 553 143<286 512 286 286>
VStem: 7 546
AnchorPoint: "Anchor-14" 0 0 basechar 0
AnchorPoint: "Anchor-13" 0 0 basechar 0
AnchorPoint: "Anchor-12" 353 964 basechar 0
AnchorPoint: "Anchor-11" 421 0 basechar 0
AnchorPoint: "Anchor-10" 229 0 basechar 0
LayerCount: 2
Back
Fore
SplineSet
493 964 m 1
 551 888 l 1
 390 747 l 1
 274 747 l 1
 151 888 l 1
 225 964 l 1
 347 878 l 1
 493 964 l 1
553 696 m 1
 512 553 l 1
 286 553 l 1
 268 423 l 1
 465 423 l 1
 447 284 l 1
 249 284 l 1
 229 144 l 1
 471 144 l 1
 451 0 l 1
 7 0 l 1
 104 696 l 1
 553 696 l 1
EndSplineSet
Substitution2: "'c2sc' Capitals to Small Capitals lookup 27 subtable" ecaron.sc
Substitution2: "'aalt' Access All Alternates lookup 0 subtable" ecaron.sc
Position2: "'cpsp' Capital Spacing lookup 0 subtable" dx=5 dy=0 dh=10 dv=0
EndChar
StartChar: ecaron
Encoding: 283 283 412
Width: 543
GlyphClass: 2
Flags: MW
HStem: -20 140<265.5 306> 429 125<281 324.5> 733 20G<146 146 546 546>
VStem: 12 194 12 534<143 753> 351 194<380.5 401>
AnchorPoint: "Anchor-14" 0 0 basechar 0
AnchorPoint: "Anchor-13" 0 0 basechar 0
AnchorPoint: "Anchor-12" 348 830 basechar 0
AnchorPoint: "Anchor-11" 412 11 basechar 0
AnchorPoint: "Anchor-10" 251 0 basechar 0
LayerCount: 2
Back
Fore
SplineSet
384 602 m 1xe8
 268 602 l 1
 146 753 l 1
 218 830 l 1
 338 734 l 1
 486 830 l 1
 546 753 l 1
 384 602 l 1xe8
331 554 m 0xf4
 470 554 545 488 545 401 c 0
 545 252 362 205 206 191 c 1
 211 137 244 120 287 120 c 0
 331 120 369 137 419 169 c 1
 486 56 l 1
 427 13 351 -20 261 -20 c 0
 90 -20 12 75 12 211 c 0
 12 356 94 554 331 554 c 0xf4
214 302 m 1
 335 309 351 372 351 389 c 0
 351 413 341 429 308 429 c 0
 254 429 226 367 214 302 c 1
EndSplineSet
Substitution2: "'smcp' Lowercase to Small Capitals lookup 28 subtable" ecaron.sc
Substitution2: "'aalt' Access All Alternates lookup 0 subtable" ecaron.sc
EndChar
StartChar: Gcircumflex
Encoding: 284 284 101
Width: 640
GlyphClass: 2
Flags: MW
HStem: -20 146<290 333 290 352.5> 270 139<345 412 343 626> 572 144<343.5 446.5>
VStem: 24 207<198.5 312.5 198.5 365.5>
AnchorPoint: "Anchor-14" 0 0 basechar 0
AnchorPoint: "Anchor-13" 521 856 basechar 0
AnchorPoint: "Anchor-12" 433 970 basechar 0
AnchorPoint: "Anchor-11" 0 0 basechar 0
AnchorPoint: "Anchor-10" 306 0 basechar 0
LayerCount: 2
Back
Fore
SplineSet
541 752 m 1
 419 839 l 1
 273 752 l 1
 214 829 l 1
 376 970 l 1
 492 970 l 1
 614 829 l 1
 541 752 l 1
425 716 m 0
 529 716 607 675 654 622 c 1
 540 519 l 1
 504 555 472 572 421 572 c 0
 266 572 231 382 231 243 c 0
 231 154 261 126 319 126 c 0
 347 126 370 132 394 142 c 1
 412 270 l 1
 343 270 l 1
 345 409 l 1
 626 409 l 1
 578 58 l 1
 498 8 395 -20 310 -20 c 0
 113 -20 24 79 24 259 c 0
 24 472 131 716 425 716 c 0
EndSplineSet
Substitution2: "'c2sc' Capitals to Small Capitals lookup 27 subtable" gcircumflex.sc
Substitution2: "'aalt' Access All Alternates lookup 0 subtable" gcircumflex.sc
Position2: "'cpsp' Capital Spacing lookup 0 subtable" dx=5 dy=0 dh=10 dv=0
EndChar

StartChar: Gbreve
Encoding: 286 286 36
Width: 640
GlyphClass: 2
Flags: MW
HStem: -20 146<290 333 290 352.5> 270 139<345 412 343 626> 572 144<343.5 446.5> 746 134<391.5 435.5 391.5 459.5>
VStem: 24 207<198.5 312.5 198.5 365.5> 244 100<933 948>
AnchorPoint: "Anchor-11" 306 0 basechar 0
AnchorPoint: "Anchor-10" 0 0 basechar 0
AnchorPoint: "Anchor-9" 403 696 basechar 0
AnchorPoint: "Anchor-8" 0 0 basechar 0
LayerCount: 2
Fore
SplineSet
401 746 m 0
 282 746 238 841 244 933 c 1
 344 948 l 1
 348 911 370 880 413 880 c 0
 458 880 488 913 503 950 c 1
 606 931 l 1
 586 839 518 746 401 746 c 0
425 716 m 0xe8
 529 716 607 675 654 622 c 1
 540 519 l 1
 504 555 472 572 421 572 c 0
 266 572 231 382 231 243 c 0
 231 154 261 126 319 126 c 0
 347 126 370 132 394 142 c 1
 412 270 l 1
 343 270 l 1
 345 409 l 1
 626 409 l 1
 578 58 l 1
 498 8 395 -20 310 -20 c 0
 113 -20 24 79 24 259 c 0
 24 472 131 716 425 716 c 0xe8
EndSplineSet
Substitution2: "'c2sc' Capitals to Small Capitals lookup 23 subtable" gbreve.sc
Substitution2: "'aalt' Access All Alternates lookup 0 subtable" gbreve.sc
Position2: "'cpsp' Capital Spacing lookup 0 subtable" dx=5 dy=0 dh=10 dv=0
EndChar

StartChar: gbreve
Encoding: 287 287 169
Width: 574
GlyphClass: 2
Flags: MW
HStem: -227 145<185 230.5 185 303> 0 21G 0 144<129 270> 418 136<282 334.5> 626 134<341.5 385.5 341.5 407.5>
VStem: 11 199<186.5 255 186.5 281.5> 192 102<823 838>
AnchorPoint: "Anchor-11" 0 0 basechar 0
AnchorPoint: "Anchor-10" 0 0 basechar 0
AnchorPoint: "Anchor-9" 333 534 basechar 0
AnchorPoint: "Anchor-8" 0 0 basechar 0
LayerCount: 2
Fore
SplineSet
349 626 m 0xda
 230 626 186 721 192 823 c 1
 294 838 l 1
 297 791 320 760 363 760 c 0
 408 760 439 793 456 840 c 1
 554 821 l 1
 534 719 466 626 349 626 c 0xda
334 554 m 0
 409 554 496 535 570 491 c 1
 509 58 l 2
 481 -139 400 -227 206 -227 c 0
 139 -227 58 -203 -4 -164 c 1
 59 -40 l 1
 119 -72 165 -82 205 -82 c 0
 256 -82 303 -67 316 21 c 1
 323 63 l 1
 290 26 245 0 188 0 c 0
 70 0 11 87 11 211 c 0xdc
 11 352 93 554 334 554 c 0
327 418 m 0xbc
 237 418 210 292 210 218 c 0
 210 155 234 144 256 144 c 0
 284 144 312 166 336 202 c 1
 368 412 l 1
 353 416 342 418 327 418 c 0xbc
EndSplineSet
Substitution2: "'smcp' Lowercase to Small Capitals lookup 24 subtable" gbreve.sc
Substitution2: "'aalt' Access All Alternates lookup 0 subtable" gbreve.sc
EndChar
StartChar: Gdotaccent
Encoding: 288 288 103
Width: 640
GlyphClass: 2
Flags: MW
HStem: -20 146<290 333 290 352.5> 270 139<345 412 343 626> 572 144<343.5 446.5> 743 212<410.5 447.5>
VStem: 24 207<198.5 312.5 198.5 365.5>
AnchorPoint: "Anchor-14" 0 0 basechar 0
AnchorPoint: "Anchor-13" 0 0 basechar 0
AnchorPoint: "Anchor-12" 441 955 basechar 0
AnchorPoint: "Anchor-11" 0 0 basechar 0
AnchorPoint: "Anchor-10" 306 0 basechar 0
LayerCount: 2
Back
Fore
SplineSet
442 955 m 0
 507 955 546 908 538 846 c 0
 530 788 479 743 416 743 c 0
 351 743 312 790 320 852 c 0
 328 910 379 955 442 955 c 0
425 716 m 0xe8
 529 716 607 675 654 622 c 1
 540 519 l 1
 504 555 472 572 421 572 c 0
 266 572 231 382 231 243 c 0
 231 154 261 126 319 126 c 0
 347 126 370 132 394 142 c 1
 412 270 l 1
 343 270 l 1
 345 409 l 1
 626 409 l 1
 578 58 l 1
 498 8 395 -20 310 -20 c 0
 113 -20 24 79 24 259 c 0
 24 472 131 716 425 716 c 0xe8
EndSplineSet
Substitution2: "'c2sc' Capitals to Small Capitals lookup 27 subtable" gdotaccent.sc
Substitution2: "'aalt' Access All Alternates lookup 0 subtable" gdotaccent.sc
Position2: "'cpsp' Capital Spacing lookup 0 subtable" dx=5 dy=0 dh=10 dv=0
EndChar

StartChar: Hcircumflex
Encoding: 292 292 42
Width: 645
GlyphClass: 2
Flags: MW
HStem: 0 21G<6 208 6 6 363 363 363 565> 281 158<269 401 247 424> 676 20G<103 305 305 305 460 662 662 662>
VStem: 6 656
AnchorPoint: "Anchor-11" 0 0 basechar 0
AnchorPoint: "Anchor-10" -50 534 basechar 0
AnchorPoint: "Anchor-9" 383 696 basechar 0
AnchorPoint: "Anchor-8" 0 0 basechar 0
LayerCount: 2
Fore
SplineSet
411 839 m 1
 265 752 l 1
 206 829 l 1
 368 970 l 1
 484 970 l 1
 606 829 l 1
 533 752 l 1
 411 839 l 1
401 281 m 1
 247 281 l 1
 208 0 l 1
 6 0 l 1
 103 696 l 1
 305 696 l 1
 269 439 l 1
 424 439 l 1
 460 696 l 1
 662 696 l 1
 565 0 l 1
 363 0 l 1
 401 281 l 1
EndSplineSet
Substitution2: "'c2sc' Capitals to Small Capitals lookup 23 subtable" hcircumflex.sc
Substitution2: "'aalt' Access All Alternates lookup 0 subtable" hcircumflex.sc
Position2: "'cpsp' Capital Spacing lookup 0 subtable" dx=5 dy=0 dh=10 dv=0
EndChar
StartChar: hcircumflex
Encoding: 293 293 471
Width: 559
GlyphClass: 2
Flags: MW
HStem: 0 21G<3 197 3 3 292 486 292 292> 534 20G<393 467.5> 744 20G
VStem: 3 554 340 203.47
AnchorPoint: "Anchor-14" 279 267 basechar 0
AnchorPoint: "Anchor-13" 464 904 basechar 0
AnchorPoint: "Anchor-12" 376 1018 basechar 0
AnchorPoint: "Anchor-11" 0 0 basechar 0
AnchorPoint: "Anchor-10" 245 0 basechar 0
LayerCount: 2
Back
Fore
SplineSet
484 800 m 1xf0
 362 887 l 1
 216 800 l 1
 157 877 l 1
 319 1018 l 1
 435 1018 l 1
 557 877 l 1
 484 800 l 1xf0
426 554 m 0xe8
 509 554 555 495 541 393 c 2
 486 0 l 1
 292 0 l 1
 340 341 l 2
 346 383 337 393 324 393 c 0
 300 393 272 353 237 278 c 1
 197 0 l 1
 3 0 l 1
 107 744 l 1
 303 764 l 1
 260 451 l 1
 294 512 360 554 426 554 c 0xe8
EndSplineSet
Substitution2: "'smcp' Lowercase to Small Capitals lookup 28 subtable" hcircumflex.sc
Substitution2: "'aalt' Access All Alternates lookup 0 subtable" hcircumflex.sc
EndChar

StartChar: Hbar
Encoding: 294 294 41
Width: 669
GlyphClass: 2
Flags: MW
HStem: 0 21G<16 218 16 16 373 575 373 373> 281 158<279 411 257 434> 495 106<51 85 36 100 302 442 659 693> 495 201<36 315 36 315 287 287 287 315 113 442 644 672 644 644>
VStem: 16 692<0 601>
AnchorPoint: "Anchor-11" 0 0 basechar 0
AnchorPoint: "Anchor-10" -40 534 basechar 0
AnchorPoint: "Anchor-9" 393 696 basechar 0
AnchorPoint: "Anchor-8" 0 0 basechar 0
LayerCount: 2
Fore
SplineSet
693 495 m 1xd8
 644 495 l 1
 575 0 l 1
 373 0 l 1
 411 281 l 1
 257 281 l 1
 218 0 l 1
 16 0 l 1
 85 495 l 1
 36 495 l 1xd8
 51 601 l 1
 100 601 l 1xe8
 113 696 l 1
 315 696 l 1xd8
 302 601 l 1
 457 601 l 1xe8
 470 696 l 1
 672 696 l 1xd8
 659 601 l 1
 708 601 l 1xe8
 693 495 l 1xd8
442 495 m 1
 287 495 l 1
 279 439 l 1
 434 439 l 1
 442 495 l 1
EndSplineSet
Substitution2: "'c2sc' Capitals to Small Capitals lookup 23 subtable" hbar.sc
Substitution2: "'aalt' Access All Alternates lookup 0 subtable" hbar.sc
Position2: "'cpsp' Capital Spacing lookup 0 subtable" dx=5 dy=0 dh=10 dv=0
EndChar

StartChar: hbar
Encoding: 295 295 174
Width: 570
GlyphClass: 2
Flags: MW
HStem: 0 21G<14 208 14 14 303 497 303 303> 534 20G<403.5 476> 590 106<61 96 46 111 304 404> 724 20G<118 118> 744 20G
VStem: 357.26 197.21
AnchorPoint: "Anchor-11" 253 0 basechar 0
AnchorPoint: "Anchor-10" 0 0 basechar 0
AnchorPoint: "Anchor-9" 357 744 basechar 0
AnchorPoint: "Anchor-8" 0 0 basechar 0
LayerCount: 2
Fore
SplineSet
432 554 m 0xec
 520 554 566 495 552 393 c 2
 497 0 l 1
 303 0 l 1
 355 341 l 2
 362 383 352 393 338 393 c 0
 315 393 283 353 248 278 c 1
 208 0 l 1
 14 0 l 1
 96 590 l 1
 46 590 l 1
 61 696 l 1
 111 696 l 1
 118 744 l 1xf4
 314 764 l 1
 304 696 l 1
 434 696 l 1
 404 590 l 1
 289 590 l 1
 269 448 l 1
 305 511 375 554 432 554 c 0xec
EndSplineSet
Substitution2: "'smcp' Lowercase to Small Capitals lookup 24 subtable" hbar.sc
Substitution2: "'aalt' Access All Alternates lookup 0 subtable" hbar.sc
EndChar

StartChar: Itilde
Encoding: 296 296 53
Width: 288
GlyphClass: 2
Flags: MW
HStem: 0 21G<6 208 6 6> 676 20G<103 305 305 305> 748 138<269.5 296 269.5 304.5> 791 138<153.5 180.5>
VStem: 6 422
AnchorPoint: "Anchor-11" 0 0 basechar 0
AnchorPoint: "Anchor-10" -49 534 basechar 0
AnchorPoint: "Anchor-9" 204 696 basechar 0
AnchorPoint: "Anchor-8" 173 0 basechar 0
LayerCount: 2
Fore
SplineSet
273 748 m 0xe8
 226 748 195 791 166 791 c 0
 141 791 126 775 106 747 c 1
 21 794 l 1
 56 867 112 929 176 929 c 0xd8
 233 929 255 886 284 886 c 0
 308 886 323 902 343 930 c 1
 428 883 l 1
 393 810 336 748 273 748 c 0xe8
208 0 m 1xd8
 6 0 l 1
 103 696 l 1
 305 696 l 1
 208 0 l 1xd8
EndSplineSet
Substitution2: "'c2sc' Capitals to Small Capitals lookup 23 subtable" itilde.sc
Substitution2: "'aalt' Access All Alternates lookup 0 subtable" itilde.sc
Position2: "'cpsp' Capital Spacing lookup 0 subtable" dx=5 dy=0 dh=10 dv=0
EndChar
StartChar: itilde
Encoding: 297 297 496
Width: 276
GlyphClass: 2
Flags: MW
HStem: 0 21G<4 198 4 4> 514 20G<78 272 272 272> 622 138<245.5 272 245.5 280.5> 665 138<129.5 156.5> 737 20G<404 404>
VStem: -3 407<668 757>
AnchorPoint: "Anchor-14" 0 0 basechar 0
AnchorPoint: "Anchor-13" 0 0 basechar 0
AnchorPoint: "Anchor-12" 203 804 basechar 0
AnchorPoint: "Anchor-11" 169 0 basechar 0
AnchorPoint: "Anchor-10" 101 0 basechar 0
LayerCount: 2
Back
Fore
SplineSet
249 622 m 0xe4
 202 622 171 665 142 665 c 0
 117 665 102 649 82 621 c 1
 -3 668 l 1xd4
 32 741 88 803 152 803 c 0
 209 803 231 760 260 760 c 0
 284 760 299 776 319 804 c 1xe4
 404 757 l 1xcc
 369 684 312 622 249 622 c 0xe4
272 534 m 1xcc
 198 0 l 1
 4 0 l 1
 78 534 l 1
 272 534 l 1xcc
EndSplineSet
Substitution2: "'smcp' Lowercase to Small Capitals lookup 28 subtable" itilde.sc
Substitution2: "'aalt' Access All Alternates lookup 0 subtable" itilde.sc
EndChar

StartChar: Imacron
Encoding: 298 298 51
Width: 288
GlyphClass: 2
Flags: MW
HStem: 0 21G<6 208 6 6> 676 20G<103 305 305 305> 774 134<55 393 74 374>
VStem: 6 387
AnchorPoint: "Anchor-11" 0 0 basechar 0
AnchorPoint: "Anchor-10" -49 534 basechar 0
AnchorPoint: "Anchor-9" 204 696 basechar 0
AnchorPoint: "Anchor-8" 173 0 basechar 0
LayerCount: 2
Fore
SplineSet
55 774 m 1
 74 908 l 1
 393 908 l 1
 374 774 l 1
 55 774 l 1
208 0 m 1
 6 0 l 1
 103 696 l 1
 305 696 l 1
 208 0 l 1
EndSplineSet
Substitution2: "'c2sc' Capitals to Small Capitals lookup 23 subtable" imacron.sc
Substitution2: "'aalt' Access All Alternates lookup 0 subtable" imacron.sc
Position2: "'cpsp' Capital Spacing lookup 0 subtable" dx=5 dy=0 dh=10 dv=0
EndChar

StartChar: imacron
Encoding: 299 299 185
Width: 276
GlyphClass: 2
Flags: MW
HStem: 0 21G<4 198 4 4> 514 20G<78 272 272 272> 648 134<31 369 50 350>
VStem: 4 365
AnchorPoint: "Anchor-11" 0 0 basechar 0
AnchorPoint: "Anchor-10" 0 0 basechar 0
AnchorPoint: "Anchor-9" 175 534 basechar 0
AnchorPoint: "Anchor-8" 169 0 basechar 0
LayerCount: 2
Fore
SplineSet
31 648 m 1
 50 782 l 1
 369 782 l 1
 350 648 l 1
 31 648 l 1
198 0 m 1
 4 0 l 1
 78 534 l 1
 272 534 l 1
 198 0 l 1
EndSplineSet
Substitution2: "'smcp' Lowercase to Small Capitals lookup 24 subtable" imacron.sc
Substitution2: "'aalt' Access All Alternates lookup 0 subtable" imacron.sc
EndChar

StartChar: Ibreve
Encoding: 300 300 46
Width: 288
GlyphClass: 2
Flags: MW
HStem: 0 21G<6 208 6 6> 676 20G<103 305 305 305> 746 134<192.5 236.5 192.5 260.5>
VStem: 45 100<933 948>
AnchorPoint: "Anchor-11" 0 0 basechar 0
AnchorPoint: "Anchor-10" -49 534 basechar 0
AnchorPoint: "Anchor-9" 204 696 basechar 0
AnchorPoint: "Anchor-8" 173 0 basechar 0
LayerCount: 2
Fore
SplineSet
202 746 m 0
 83 746 39 841 45 933 c 1
 145 948 l 1
 149 911 171 880 214 880 c 0
 259 880 289 913 304 950 c 1
 407 931 l 1
 387 839 319 746 202 746 c 0
208 0 m 1
 6 0 l 1
 103 696 l 1
 305 696 l 1
 208 0 l 1
EndSplineSet
Substitution2: "'c2sc' Capitals to Small Capitals lookup 23 subtable" ibreve.sc
Substitution2: "'aalt' Access All Alternates lookup 0 subtable" ibreve.sc
Position2: "'cpsp' Capital Spacing lookup 0 subtable" dx=5 dy=0 dh=10 dv=0
EndChar

StartChar: ibreve
Encoding: 301 301 179
Width: 276
GlyphClass: 2
Flags: MW
HStem: 0 21G<4 198 4 4> 514 20G<78 272 272 272> 626 134<183.5 227.5 183.5 249.5>
VStem: 34 102<823 838>
AnchorPoint: "Anchor-11" 0 0 basechar 0
AnchorPoint: "Anchor-10" 0 0 basechar 0
AnchorPoint: "Anchor-9" 175 534 basechar 0
AnchorPoint: "Anchor-8" 169 0 basechar 0
LayerCount: 2
Fore
SplineSet
191 626 m 0
 72 626 28 721 34 823 c 1
 136 838 l 1
 139 791 162 760 205 760 c 0
 250 760 281 793 298 840 c 1
 396 821 l 1
 376 719 308 626 191 626 c 0
198 0 m 1
 4 0 l 1
 78 534 l 1
 272 534 l 1
 198 0 l 1
EndSplineSet
Substitution2: "'smcp' Lowercase to Small Capitals lookup 24 subtable" ibreve.sc
Substitution2: "'aalt' Access All Alternates lookup 0 subtable" ibreve.sc
EndChar
StartChar: Iogonek
Encoding: 302 302 130
Width: 288
GlyphClass: 2
Flags: MW
HStem: -254 115<1 88.5> 0 21G<165 208 165 165> 676 20G<103 305 305 305>
VStem: -101 137<-117.5 -112.5> -101 406
AnchorPoint: "Anchor-14" 0 0 basechar 0
AnchorPoint: "Anchor-13" 0 0 basechar 0
AnchorPoint: "Anchor-12" 204 696 basechar 0
AnchorPoint: "Anchor-11" 173 0 basechar 0
AnchorPoint: "Anchor-10" 107 0 basechar 0
LayerCount: 2
Back
Fore
SplineSet
103 696 m 1xe8
 305 696 l 1
 208 0 l 1
 165 0 l 1
 54 -36 36 -82 36 -106 c 0
 36 -129 51 -139 79 -139 c 0
 98 -139 119 -136 141 -131 c 1
 115 -246 l 1
 93 -251 68 -254 42 -254 c 0
 -40 -254 -101 -214 -101 -143 c 0xf0
 -101 -82 -67 -30 8 11 c 1
 103 696 l 1xe8
EndSplineSet
Substitution2: "'c2sc' Capitals to Small Capitals lookup 27 subtable" iogonek.sc
Substitution2: "'aalt' Access All Alternates lookup 0 subtable" iogonek.sc
Position2: "'cpsp' Capital Spacing lookup 0 subtable" dx=5 dy=0 dh=10 dv=0
EndChar
StartChar: iogonek
Encoding: 303 303 493
Width: 276
GlyphClass: 2
Flags: MW
HStem: -254 115<-3 84.5> 0 21G<161 198 161 161> 514 20G<78 272 272 272> 617 212<183.5 220.5>
VStem: -105 137<-117.5 -112> -105 416.83
AnchorPoint: "Anchor-14" 0 0 basechar 0
AnchorPoint: "Anchor-13" 0 0 basechar 0
AnchorPoint: "Anchor-12" 215 829 basechar 0
AnchorPoint: "Anchor-11" 169 0 basechar 0
AnchorPoint: "Anchor-10" 101 0 basechar 0
LayerCount: 2
Back
Fore
SplineSet
215 829 m 0xf4
 280 829 319 782 311 720 c 0
 303 662 252 617 189 617 c 0
 124 617 85 664 93 726 c 0
 101 784 152 829 215 829 c 0xf4
6 12 m 1
 78 534 l 1
 272 534 l 1
 198 0 l 1
 161 0 l 1
 50 -36 32 -82 32 -106 c 0
 32 -129 47 -139 75 -139 c 0
 94 -139 115 -136 137 -131 c 1
 111 -246 l 1
 89 -251 64 -254 38 -254 c 0
 -44 -254 -105 -214 -105 -143 c 0xf8
 -105 -81 -70 -29 6 12 c 1
EndSplineSet
Substitution2: "'smcp' Lowercase to Small Capitals lookup 28 subtable" iogonek.sc
Substitution2: "'aalt' Access All Alternates lookup 0 subtable" iogonek.sc
EndChar

StartChar: Idotaccent
Encoding: 304 304 49
Width: 288
GlyphClass: 2
Flags: MW
HStem: 0 21G<6 208 6 6> 676 20G<103 305 305 305> 743 212<207.5 244.5>
VStem: 117 218
AnchorPoint: "Anchor-11" 0 0 basechar 0
AnchorPoint: "Anchor-10" -49 534 basechar 0
AnchorPoint: "Anchor-9" 204 696 basechar 0
AnchorPoint: "Anchor-8" 173 0 basechar 0
LayerCount: 2
Fore
SplineSet
239 955 m 0
 304 955 343 908 335 846 c 0
 327 788 276 743 213 743 c 0
 148 743 109 790 117 852 c 0
 125 910 176 955 239 955 c 0
208 0 m 1
 6 0 l 1
 103 696 l 1
 305 696 l 1
 208 0 l 1
EndSplineSet
Substitution2: "'c2sc' Capitals to Small Capitals lookup 23 subtable" i.sc.loclTRK
Substitution2: "'aalt' Access All Alternates lookup 0 subtable" i.sc.loclTRK
Position2: "'cpsp' Capital Spacing lookup 0 subtable" dx=5 dy=0 dh=10 dv=0
EndChar

StartChar: dotlessi
Encoding: 305 305 177
Width: 276
GlyphClass: 2
Flags: MW
HStem: 0 21G<4 198 4 4> 514 20G<78 272 272 272>
VStem: 4 268
AnchorPoint: "Anchor-11" 0 0 basechar 0
AnchorPoint: "Anchor-10" 0 0 basechar 0
AnchorPoint: "Anchor-9" 175 534 basechar 0
AnchorPoint: "Anchor-8" 169 0 basechar 0
LayerCount: 2
Fore
SplineSet
198 0 m 1
 4 0 l 1
 78 534 l 1
 272 534 l 1
 198 0 l 1
EndSplineSet
Substitution2: "'smcp' Lowercase to Small Capitals lookup 24 subtable" dotlessi.sc
Substitution2: "'aalt' Access All Alternates lookup 0 subtable" dotlessi.sc
EndChar

StartChar: IJ
Encoding: 306 306 44
Width: 604
GlyphClass: 2
Flags: MW
HStem: 0 21G<6 208 6 6> 676 20G<103 305 305 305 421 623 623 623>
VStem: 6 617
AnchorPoint: "Anchor-11" 0 0 basechar 0
AnchorPoint: "Anchor-10" -49 534 basechar 0
AnchorPoint: "Anchor-9" 522 696 basechar 0
AnchorPoint: "Anchor-8" 173 0 basechar 0
LayerCount: 2
Fore
SplineSet
208 0 m 1
 6 0 l 1
 103 696 l 1
 305 696 l 1
 208 0 l 1
542 110 m 1
 514 -84 380 -149 256 -189 c 1
 220 -44 l 1
 312 -10 329 42 340 119 c 2
 421 696 l 1
 623 696 l 1
 542 110 l 1
EndSplineSet
Substitution2: "'c2sc' Capitals to Small Capitals lookup 23 subtable" ij.sc
Substitution2: "'aalt' Access All Alternates lookup 0 subtable" ij.sc
Position2: "'cpsp' Capital Spacing lookup 0 subtable" dx=5 dy=0 dh=10 dv=0
EndChar
StartChar: ij
Encoding: 307 307 491
Width: 547
GlyphClass: 2
Flags: MW
HStem: -227 21G<202 202> 0 21G<4 198 4 4> 514 20G<78 272 272 272 350 544 544 544> 617 212<183.5 220.5 455.5 492.5>
VStem: 4 579.83
AnchorPoint: "Anchor-14" 0 0 basechar 0
AnchorPoint: "Anchor-13" 0 0 basechar 0
AnchorPoint: "Anchor-12" 487 829 basechar 0
AnchorPoint: "Anchor-11" 169 0 basechar 0
AnchorPoint: "Anchor-10" 339 -215 basechar 0
LayerCount: 2
Back
Fore
SplineSet
215 829 m 0
 280 829 319 782 311 720 c 0
 303 662 252 617 189 617 c 0
 124 617 85 664 93 726 c 0
 101 784 152 829 215 829 c 0
487 829 m 0
 552 829 591 782 583 720 c 0
 575 662 524 617 461 617 c 0
 396 617 357 664 365 726 c 0
 373 784 424 829 487 829 c 0
272 534 m 1
 198 0 l 1
 4 0 l 1
 78 534 l 1
 272 534 l 1
544 534 m 1
 480 76 l 2
 454 -112 337 -184 202 -227 c 1
 155 -86 l 1
 233 -59 273 -21 285 66 c 2
 350 534 l 1
 544 534 l 1
EndSplineSet
Substitution2: "'smcp' Lowercase to Small Capitals lookup 28 subtable" ij.sc
Substitution2: "'aalt' Access All Alternates lookup 0 subtable" ij.sc
EndChar
StartChar: Jcircumflex
Encoding: 308 308 135
Width: 316
GlyphClass: 2
Flags: MW
HStem: 676 20G<133 335 335 335>
VStem: -68 513
AnchorPoint: "Anchor-14" 0 0 basechar 0
AnchorPoint: "Anchor-13" 352 856 basechar 0
AnchorPoint: "Anchor-12" 264 970 basechar 0
AnchorPoint: "Anchor-11" 0 0 basechar 0
AnchorPoint: "Anchor-10" 0 0 basechar 0
LayerCount: 2
Back
Fore
SplineSet
372 752 m 1
 250 839 l 1
 104 752 l 1
 45 829 l 1
 207 970 l 1
 323 970 l 1
 445 829 l 1
 372 752 l 1
335 696 m 1
 254 110 l 2
 226 -84 92 -149 -32 -189 c 1
 -68 -44 l 1
 24 -10 41 42 52 119 c 2
 133 696 l 1
 335 696 l 1
EndSplineSet
Substitution2: "'c2sc' Capitals to Small Capitals lookup 27 subtable" jcircumflex.sc
Substitution2: "'aalt' Access All Alternates lookup 0 subtable" jcircumflex.sc
Position2: "'cpsp' Capital Spacing lookup 0 subtable" dx=5 dy=0 dh=10 dv=0
EndChar
StartChar: Kcommaaccent
Encoding: 310 310 139
Width: 647
GlyphClass: 2
Flags: MW
HStem: -226 21G<211 211> 0 21G<6 208 6 6 402 402 402 630> 676 20G<103 305 305 305 499 709 709 709>
VStem: 6 703<0 696> 179 182<-160 -134>
AnchorPoint: "Anchor-14" 0 0 basechar 0
AnchorPoint: "Anchor-13" 0 0 basechar 0
AnchorPoint: "Anchor-12" 385 696 basechar 0
AnchorPoint: "Anchor-11" 0 0 basechar 0
AnchorPoint: "Anchor-10" 288 0 basechar 0
LayerCount: 2
Back
Fore
SplineSet
305 696 m 1xf0
 208 0 l 1
 6 0 l 1
 103 696 l 1
 305 696 l 1xf0
709 696 m 1
 471 377 l 1
 630 0 l 1
 402 0 l 1
 266 371 l 1
 499 696 l 1
 709 696 l 1
276 -62 m 0xe8
 325 -62 361 -94 361 -142 c 0
 361 -178 348 -204 322 -244 c 2
 259 -342 l 1
 167 -342 l 1
 211 -226 l 1
 191 -212 179 -193 179 -165 c 0
 179 -103 223 -62 276 -62 c 0xe8
EndSplineSet
Substitution2: "'c2sc' Capitals to Small Capitals lookup 27 subtable" kcommaaccent.sc
Substitution2: "'aalt' Access All Alternates lookup 0 subtable" kcommaaccent.sc
Position2: "'cpsp' Capital Spacing lookup 0 subtable" dx=5 dy=0 dh=10 dv=0
EndChar
StartChar: kcommaaccent
Encoding: 311 311 507
Width: 579
GlyphClass: 2
Flags: MW
HStem: -226 21G<182 182> 0 21G<3 198 3 3 330 542 330 330> 421 133<339 485> 534 20G<405.5 485> 744 20G
VStem: 3 586<0 462> 150 182<-160 -134> 393 196<382 397>
AnchorPoint: "Anchor-14" 0 0 basechar 0
AnchorPoint: "Anchor-13" 0 0 basechar 0
AnchorPoint: "Anchor-12" 383 744 basechar 0
AnchorPoint: "Anchor-11" 0 0 basechar 0
AnchorPoint: "Anchor-10" 263 0 basechar 0
LayerCount: 2
Back
Fore
SplineSet
304 764 m 1xdc
 264 478 l 1
 319 533 374 554 437 554 c 0
 533 554 589 501 589 423 c 0
 589 341 546 280 456 238 c 1
 542 0 l 1
 330 0 l 1
 252 256 l 1
 364 295 393 340 393 385 c 0
 393 409 379 421 355 421 c 0xeb
 323 421 287 398 244 337 c 1xec
 198 0 l 1
 3 0 l 1
 107 744 l 1
 304 764 l 1xdc
247 -62 m 0
 296 -62 332 -94 332 -142 c 0
 332 -178 319 -204 293 -244 c 2
 230 -342 l 1
 138 -342 l 1
 182 -226 l 1
 162 -212 150 -193 150 -165 c 0
 150 -103 194 -62 247 -62 c 0
EndSplineSet
Substitution2: "'smcp' Lowercase to Small Capitals lookup 28 subtable" kcommaaccent.sc
Substitution2: "'aalt' Access All Alternates lookup 0 subtable" kcommaaccent.sc
EndChar

StartChar: kgreenlandic
Encoding: 312 312 193
Width: 563
GlyphClass: 2
Flags: MW
HStem: 0 21G<4 199 4 4 333 333 333 543> 514 20G<78 273 273 273 405 609 609 609>
VStem: 4 605<0 534>
LayerCount: 2
Fore
SplineSet
199 0 m 1
 4 0 l 1
 78 534 l 1
 273 534 l 1
 199 0 l 1
439 285 m 1
 543 0 l 1
 333 0 l 1
 241 282 l 1
 405 534 l 1
 609 534 l 1
 439 285 l 1
EndSplineSet
Substitution2: "'smcp' Lowercase to Small Capitals lookup 24 subtable" kgreenlandic.sc
Substitution2: "'aalt' Access All Alternates lookup 0 subtable" kgreenlandic.sc
EndChar

StartChar: lacute
Encoding: 314 314 195
Width: 289
GlyphClass: 2
Flags: MW
HStem: -20 21G 1 21G<273 273> 744 20G
VStem: 17.14 356.86
AnchorPoint: "Anchor-11" 145 0 basechar 0
AnchorPoint: "Anchor-10" 0 0 basechar 0
AnchorPoint: "Anchor-9" 200 744 basechar 0
AnchorPoint: "Anchor-8" 0 0 basechar 0
LayerCount: 2
Fore
SplineSet
374 889 m 1x70
 123 790 l 1
 70 889 l 1
 300 1033 l 1
 374 889 l 1x70
216 171 m 2
 212 142 222 135 235 135 c 0
 240 135 248 137 255 139 c 1
 273 1 l 1
 243 -12 198 -20 157 -20 c 0xb0
 56 -20 4 41 20 152 c 2
 103 744 l 1
 299 764 l 1
 216 171 l 2
EndSplineSet
Substitution2: "'smcp' Lowercase to Small Capitals lookup 24 subtable" lacute.sc
Substitution2: "'aalt' Access All Alternates lookup 0 subtable" lacute.sc
EndChar

StartChar: Lcommaaccent
Encoding: 315 315 61
Width: 514
GlyphClass: 2
Flags: MW
HStem: -226 21G<148 148> 0 158<230 445> 676 20G<103 305 305 305>
VStem: 6 481<0 158> 116 182<-160 -133.5>
AnchorPoint: "Anchor-11" 225 0 basechar 0
AnchorPoint: "Anchor-10" 0 0 basechar 0
AnchorPoint: "Anchor-9" 204 696 basechar 0
AnchorPoint: "Anchor-8" 0 0 basechar 0
LayerCount: 2
Fore
SplineSet
230 158 m 1xf0
 487 158 l 1
 445 0 l 1
 6 0 l 1
 103 696 l 1
 305 696 l 1
 230 158 l 1xf0
218 -62 m 0xe8
 266 -62 298 -95 298 -142 c 0
 298 -178 285 -204 259 -244 c 2
 196 -342 l 1
 104 -342 l 1
 148 -226 l 1
 128 -212 116 -193 116 -165 c 0
 116 -102 163 -62 218 -62 c 0xe8
EndSplineSet
Substitution2: "'c2sc' Capitals to Small Capitals lookup 23 subtable" lcommaaccent.sc
Substitution2: "'aalt' Access All Alternates lookup 0 subtable" lcommaaccent.sc
Position2: "'cpsp' Capital Spacing lookup 0 subtable" dx=5 dy=0 dh=10 dv=0
EndChar
StartChar: lcommaaccent
Encoding: 316 316 518
Width: 288
GlyphClass: 2
Flags: MW
HStem: -226 21G<63 63> -20 21G 744 20G
VStem: 16.14 281.86 31 182<-160 -134>
AnchorPoint: "Anchor-14" 395 373 basechar 0
AnchorPoint: "Anchor-13" 315 744 basechar 0
AnchorPoint: "Anchor-12" 199 744 basechar 0
AnchorPoint: "Anchor-11" 0 0 basechar 0
AnchorPoint: "Anchor-10" 144 0 basechar 0
LayerCount: 2
Back
Fore
SplineSet
298 764 m 1xf0
 215 171 l 2
 211 142 221 135 234 135 c 0
 239 135 247 137 254 139 c 1
 272 1 l 1
 242 -12 197 -20 156 -20 c 0
 55 -20 3 41 19 152 c 2
 102 744 l 1
 298 764 l 1xf0
128 -62 m 0xe8
 177 -62 213 -94 213 -142 c 0
 213 -178 200 -204 174 -244 c 2
 111 -342 l 1
 19 -342 l 1
 63 -226 l 1
 43 -212 31 -193 31 -165 c 0
 31 -103 75 -62 128 -62 c 0xe8
EndSplineSet
Substitution2: "'smcp' Lowercase to Small Capitals lookup 28 subtable" lcommaaccent.sc
Substitution2: "'aalt' Access All Alternates lookup 0 subtable" lcommaaccent.sc
EndChar

StartChar: Lcaron
Encoding: 317 317 60
Width: 514
GlyphClass: 2
Flags: MW
HStem: 0 158<230 445> 675 20G<521 521> 676 20G<103 305 305 305> 692 20G<385 385>
VStem: 6 515
AnchorPoint: "Anchor-11" 225 0 basechar 0
AnchorPoint: "Anchor-10" 0 0 basechar 0
AnchorPoint: "Anchor-9" 204 696 basechar 0
AnchorPoint: "Anchor-8" 0 0 basechar 0
LayerCount: 2
Fore
SplineSet
521 695 m 1xc8
 442 461 l 1
 345 469 l 1
 385 712 l 1x98
 521 695 l 1xc8
230 158 m 1
 487 158 l 1
 445 0 l 1
 6 0 l 1
 103 696 l 1
 305 696 l 1xa8
 230 158 l 1
EndSplineSet
Substitution2: "'c2sc' Capitals to Small Capitals lookup 23 subtable" lcaron.sc
Substitution2: "'aalt' Access All Alternates lookup 0 subtable" lcaron.sc
Position2: "'cpsp' Capital Spacing lookup 0 subtable" dx=5 dy=0 dh=10 dv=0
EndChar

StartChar: lcaron
Encoding: 318 318 196
Width: 428
GlyphClass: 2
Flags: MW
HStem: -20 21G 1 21G<230 230> 740 20G<334 334> 744 20G
VStem: -25.86 495.86
AnchorPoint: "Anchor-11" 102 0 basechar 0
AnchorPoint: "Anchor-10" 0 0 basechar 0
AnchorPoint: "Anchor-9" 157 744 basechar 0
AnchorPoint: "Anchor-8" 0 0 basechar 0
LayerCount: 2
Fore
SplineSet
173 171 m 2x58
 169 142 179 135 192 135 c 0
 197 135 205 137 212 139 c 1
 230 1 l 1
 200 -12 155 -20 114 -20 c 0x98
 13 -20 -39 41 -23 152 c 2
 60 744 l 1
 256 764 l 1
 173 171 l 2x58
470 743 m 1
 391 509 l 1
 294 517 l 1
 334 760 l 1x68
 470 743 l 1
EndSplineSet
Substitution2: "'smcp' Lowercase to Small Capitals lookup 24 subtable" lcaron.sc
Substitution2: "'aalt' Access All Alternates lookup 0 subtable" lcaron.sc
EndChar
StartChar: Ldot
Encoding: 319 319 148
Width: 514
GlyphClass: 2
Flags: MW
HStem: 0 158<230 445> 298 212<396.5 433.5> 676 20G<103 305 305 305>
VStem: 6 518.83
AnchorPoint: "Anchor-14" 415 404 basechar 0
AnchorPoint: "Anchor-13" 324 696 basechar 0
AnchorPoint: "Anchor-12" 428 510 basechar 0
AnchorPoint: "Anchor-11" 0 0 basechar 0
AnchorPoint: "Anchor-10" 226 0 basechar 0
LayerCount: 2
Back
Fore
SplineSet
305 696 m 1
 230 158 l 1
 487 158 l 1
 445 0 l 1
 6 0 l 1
 103 696 l 1
 305 696 l 1
428 510 m 0
 493 510 532 463 524 401 c 0
 516 343 465 298 402 298 c 0
 337 298 298 345 306 407 c 0
 314 465 365 510 428 510 c 0
EndSplineSet
Ligature2: "Ligature Substitution lookup 40 subtable" L periodcentered
Substitution2: "'c2sc' Capitals to Small Capitals lookup 27 subtable" ldot.sc
Substitution2: "'aalt' Access All Alternates lookup 0 subtable" ldot.sc
Position2: "'cpsp' Capital Spacing lookup 0 subtable" dx=5 dy=0 dh=10 dv=0
EndChar
StartChar: ldot
Encoding: 320 320 520
Width: 499
GlyphClass: 2
Flags: MW
HStem: -20 21G 267 212<376.5 413.5> 744 20G
VStem: 16.14 488.69
AnchorPoint: "Anchor-14" 395 373 basechar 0
AnchorPoint: "Anchor-13" 315 744 basechar 0
AnchorPoint: "Anchor-12" 408 479 basechar 0
AnchorPoint: "Anchor-11" 0 0 basechar 0
AnchorPoint: "Anchor-10" 144 0 basechar 0
LayerCount: 2
Back
Fore
SplineSet
298 764 m 1
 215 171 l 2
 211 142 221 135 234 135 c 0
 239 135 247 137 254 139 c 1
 272 1 l 1
 242 -12 197 -20 156 -20 c 0
 55 -20 3 41 19 152 c 2
 102 744 l 1
 298 764 l 1
408 479 m 0
 473 479 512 432 504 370 c 0
 496 312 445 267 382 267 c 0
 317 267 278 314 286 376 c 0
 294 434 345 479 408 479 c 0
EndSplineSet
Ligature2: "Ligature Substitution lookup 40 subtable" l periodcentered
Substitution2: "'smcp' Lowercase to Small Capitals lookup 28 subtable" ldot.sc
Substitution2: "'aalt' Access All Alternates lookup 0 subtable" ldot.sc
EndChar
StartChar: Lslash
Encoding: 321 321 151
Width: 562
GlyphClass: 2
Flags: MW
HStem: 0 158<278 493> 521 20G<437 437> 676 20G<151 353 353 353>
VStem: 0 535<158 287>
LayerCount: 2
Back
Fore
SplineSet
535 158 m 1
 493 0 l 1
 54 0 l 1
 83 205 l 1
 47 184 l 1
 0 287 l 1
 102 346 l 1
 151 696 l 1
 353 696 l 1
 322 474 l 1
 437 541 l 1
 486 439 l 1
 302 332 l 1
 278 158 l 1
 535 158 l 1
EndSplineSet
Substitution2: "'c2sc' Capitals to Small Capitals lookup 27 subtable" lslash.sc
Substitution2: "'aalt' Access All Alternates lookup 0 subtable" lslash.sc
Position2: "'cpsp' Capital Spacing lookup 0 subtable" dx=5 dy=0 dh=10 dv=0
EndChar
StartChar: lslash
Encoding: 322 322 527
Width: 359
GlyphClass: 2
Flags: MW
HStem: -20 21G 534 20G<360 360> 744 20G
VStem: -4 389<343 435>
AnchorPoint: "Anchor-14" 431 373 basechar 0
AnchorPoint: "Anchor-13" 351 744 basechar 0
AnchorPoint: "Anchor-12" 235 744 basechar 0
AnchorPoint: "Anchor-11" 0 0 basechar 0
AnchorPoint: "Anchor-10" 180 0 basechar 0
LayerCount: 2
Back
Fore
SplineSet
270 135 m 0
 275 135 283 137 290 139 c 1
 308 1 l 1
 278 -12 233 -20 192 -20 c 0
 91 -20 39 41 55 152 c 2
 69 253 l 1
 24 227 l 1
 -4 343 l 1
 89 397 l 1
 138 744 l 1
 334 764 l 1
 300 519 l 1
 360 554 l 1
 385 435 l 1
 279 374 l 1
 251 171 l 2
 247 142 257 135 270 135 c 0
EndSplineSet
Substitution2: "'smcp' Lowercase to Small Capitals lookup 28 subtable" lslash.sc
Substitution2: "'aalt' Access All Alternates lookup 0 subtable" lslash.sc
EndChar

StartChar: nacute
Encoding: 324 324 202
Width: 560
GlyphClass: 2
Flags: MW
HStem: 0 21G<4 198 4 4 293 487 293 293> 393 141<78 335> 514 20G<78 247 247 247> 534 20G
VStem: 347.26 197.21
AnchorPoint: "Anchor-11" 243 0 basechar 0
AnchorPoint: "Anchor-10" 70 534 basechar 0
AnchorPoint: "Anchor-9" 322 534 basechar 0
AnchorPoint: "Anchor-8" 0 0 basechar 0
LayerCount: 2
Fore
SplineSet
487 712 m 1x98
 227 613 l 1
 189 712 l 1
 433 856 l 1
 487 712 l 1x98
422 554 m 0
 510 554 556 495 542 393 c 2
 487 0 l 1
 293 0 l 1
 345 341 l 2
 352 383 342 393 328 393 c 0xc8
 305 393 273 353 238 278 c 1
 198 0 l 1
 4 0 l 1
 78 534 l 1
 247 534 l 1xa8
 248 446 l 1
 290 511 364 554 422 554 c 0
EndSplineSet
Substitution2: "'smcp' Lowercase to Small Capitals lookup 24 subtable" nacute.sc
Substitution2: "'locl' Localized Forms in Latin lookup 7 subtable" nacute.loclPLK
AlternateSubs2: "'aalt' Access All Alternates lookup 1 subtable" nacute.loclPLK nacute.sc
EndChar

StartChar: Ncommaaccent
Encoding: 325 325 68
Width: 639
GlyphClass: 2
Flags: MW
HStem: -226 21G<206 206> 0 21G<6 182 6 6 305 559 305 305> 0 169<442 442 442 559 305 442> 527 169<220 220> 676 20G<103 353 353 353 480 656 656 656>
VStem: 6 650 174 182<-160 -133.5>
AnchorPoint: "Anchor-11" 283 0 basechar 0
AnchorPoint: "Anchor-10" 0 0 basechar 0
AnchorPoint: "Anchor-9" 380 696 basechar 0
AnchorPoint: "Anchor-8" 0 0 basechar 0
LayerCount: 2
Fore
SplineSet
559 0 m 1xcc
 305 0 l 1
 220 527 l 1xd4
 225 440 230 344 211 205 c 2
 182 0 l 1
 6 0 l 1
 103 696 l 1
 353 696 l 1
 442 169 l 1xac
 435 268 431 348 450 484 c 2
 480 696 l 1
 656 696 l 1
 559 0 l 1xcc
276 -62 m 0xca
 324 -62 356 -95 356 -142 c 0
 356 -178 343 -204 317 -244 c 2
 254 -342 l 1
 162 -342 l 1
 206 -226 l 1
 186 -212 174 -193 174 -165 c 0
 174 -102 221 -62 276 -62 c 0xca
EndSplineSet
Substitution2: "'c2sc' Capitals to Small Capitals lookup 23 subtable" ncommaaccent.sc
Substitution2: "'aalt' Access All Alternates lookup 0 subtable" ncommaaccent.sc
Position2: "'cpsp' Capital Spacing lookup 0 subtable" dx=5 dy=0 dh=10 dv=0
EndChar

StartChar: ncommaaccent
Encoding: 326 326 205
Width: 560
GlyphClass: 2
Flags: MW
HStem: -226 21G<162 162> 0 21G<4 198 4 4 293 487 293 293> 393 141<78 335> 514 20G<78 247 247 247> 534 20G
VStem: 130 182<-160 -133.5> 347.26 197.21
AnchorPoint: "Anchor-11" 243 0 basechar 0
AnchorPoint: "Anchor-10" 70 534 basechar 0
AnchorPoint: "Anchor-9" 322 534 basechar 0
AnchorPoint: "Anchor-8" 0 0 basechar 0
LayerCount: 2
Fore
SplineSet
422 554 m 0xce
 510 554 556 495 542 393 c 2
 487 0 l 1
 293 0 l 1
 345 341 l 2
 352 383 342 393 328 393 c 0xe6
 305 393 273 353 238 278 c 1
 198 0 l 1
 4 0 l 1
 78 534 l 1
 247 534 l 1xd6
 248 446 l 1
 290 511 364 554 422 554 c 0xce
232 -62 m 0
 280 -62 312 -95 312 -142 c 0
 312 -178 299 -204 273 -244 c 2
 210 -342 l 1
 118 -342 l 1
 162 -226 l 1
 142 -212 130 -193 130 -165 c 0
 130 -102 177 -62 232 -62 c 0
EndSplineSet
Substitution2: "'smcp' Lowercase to Small Capitals lookup 24 subtable" ncommaaccent.sc
Substitution2: "'aalt' Access All Alternates lookup 0 subtable" ncommaaccent.sc
EndChar
StartChar: Ncaron
Encoding: 327 327 159
Width: 639
GlyphClass: 2
Flags: MW
HStem: 0 21G<6 182 6 6 305 559 305 305> 0 169<442 442 442 559 305 442> 527 169<220 220> 676 20G<103 353 353 353 480 656 656 656>
VStem: 6 650
AnchorPoint: "Anchor-14" 0 0 basechar 0
AnchorPoint: "Anchor-13" 0 0 basechar 0
AnchorPoint: "Anchor-12" 404 964 basechar 0
AnchorPoint: "Anchor-11" 0 0 basechar 0
AnchorPoint: "Anchor-10" 283 0 basechar 0
LayerCount: 2
Back
Fore
SplineSet
544 964 m 1x98
 602 888 l 1
 441 747 l 1
 325 747 l 1
 202 888 l 1
 276 964 l 1
 398 878 l 1
 544 964 l 1x98
656 696 m 1
 559 0 l 1
 305 0 l 1
 220 527 l 1xa8
 225 440 230 344 211 205 c 2
 182 0 l 1
 6 0 l 1
 103 696 l 1
 353 696 l 1
 442 169 l 1x58
 435 268 431 348 450 484 c 2
 480 696 l 1
 656 696 l 1
EndSplineSet
Substitution2: "'c2sc' Capitals to Small Capitals lookup 27 subtable" ncaron.sc
Substitution2: "'aalt' Access All Alternates lookup 0 subtable" ncaron.sc
Position2: "'cpsp' Capital Spacing lookup 0 subtable" dx=5 dy=0 dh=10 dv=0
EndChar

StartChar: ncaron
Encoding: 328 328 204
Width: 560
GlyphClass: 2
Flags: MW
HStem: 0 21G<4 198 4 4 293 487 293 293> 393 141<78 335> 514 20G<78 247 247 247> 534 20G 733 20G<153 153 553 553>
VStem: 347.26 197.21
AnchorPoint: "Anchor-11" 243 0 basechar 0
AnchorPoint: "Anchor-10" 70 534 basechar 0
AnchorPoint: "Anchor-9" 322 534 basechar 0
AnchorPoint: "Anchor-8" 0 0 basechar 0
LayerCount: 2
Fore
SplineSet
553 753 m 1x9c
 391 602 l 1
 275 602 l 1
 153 753 l 1
 225 830 l 1
 345 734 l 1
 493 830 l 1
 553 753 l 1x9c
422 554 m 0
 510 554 556 495 542 393 c 2
 487 0 l 1
 293 0 l 1
 345 341 l 2
 352 383 342 393 328 393 c 0xcc
 305 393 273 353 238 278 c 1
 198 0 l 1
 4 0 l 1
 78 534 l 1
 247 534 l 1xac
 248 446 l 1
 290 511 364 554 422 554 c 0
EndSplineSet
Substitution2: "'smcp' Lowercase to Small Capitals lookup 24 subtable" ncaron.sc
Substitution2: "'aalt' Access All Alternates lookup 0 subtable" ncaron.sc
EndChar
StartChar: napostrophe
Encoding: 329 329 537
Width: 693
GlyphClass: 2
Flags: MW
HStem: 0 21G<137 331 137 137 426 620 426 426> 393 141<211 464.5> 514 20G<211 380 380 380> 534 20G 744 20G<147 190>
VStem: 73 604.47 85 150 474 203.47
AnchorPoint: "Anchor-14" 0 0 basechar 0
AnchorPoint: "Anchor-13" 0 0 basechar 0
AnchorPoint: "Anchor-12" 455 534 basechar 0
AnchorPoint: "Anchor-11" 0 0 basechar 0
AnchorPoint: "Anchor-10" 379 0 basechar 0
LayerCount: 2
Back
Fore
SplineSet
168 764 m 0x9b
 212 764 241 731 235 686 c 0
 232 662 222 643 203 614 c 2
 151 535 l 1
 73 535 l 1
 108 627 l 1
 92 641 81 661 85 692 c 0
 90 730 126 764 168 764 c 0x9b
560 554 m 0
 643 554 689 495 675 393 c 2
 620 0 l 1
 426 0 l 1
 474 341 l 2
 480 383 471 393 458 393 c 0xc9
 434 393 406 353 371 278 c 1
 331 0 l 1
 137 0 l 1
 211 534 l 1
 380 534 l 1xac
 381 446 l 1
 423 511 492 554 560 554 c 0
EndSplineSet
Substitution2: "'smcp' Lowercase to Small Capitals lookup 28 subtable" napostrophe.sc
Ligature2: "'locl' Localized Forms in Latin lookup 12 subtable" quoteright n
Ligature2: "'locl' Localized Forms in Latin lookup 12 subtable" quotesingle n
Substitution2: "'aalt' Access All Alternates lookup 0 subtable" napostrophe.sc
EndChar
StartChar: Eng
Encoding: 330 330 165
Width: 639
GlyphClass: 2
Flags: MW
HStem: -227 145<281 310 281 370> 0 21G<6 182 6 6 305 357 305 305 559 559> 527 169<220 220> 676 20G<103 353 353 353 480 656 656 656>
VStem: 6 650
AnchorPoint: "Anchor-14" 0 0 basechar 0
AnchorPoint: "Anchor-13" 0 0 basechar 0
AnchorPoint: "Anchor-12" 380 696 basechar 0
AnchorPoint: "Anchor-11" 0 0 basechar 0
AnchorPoint: "Anchor-10" 283 0 basechar 0
LayerCount: 2
Back
Fore
SplineSet
480 696 m 1xd8
 656 696 l 1
 559 0 l 1
 556 -18 l 2
 532 -159 437 -227 303 -227 c 0
 231 -227 185 -207 153 -181 c 1
 232 -63 l 1
 253 -75 268 -82 294 -82 c 0
 326 -82 347 -64 353 -28 c 2
 357 0 l 1
 305 0 l 1
 220 527 l 1xe8
 225 440 230 344 211 205 c 2
 182 0 l 1
 6 0 l 1
 103 696 l 1
 353 696 l 1
 442 169 l 1
 435 268 431 348 450 484 c 2
 480 696 l 1xd8
EndSplineSet
Substitution2: "'ss01' Style Set 1 lookup 34 subtable" Eng.ss01
Substitution2: "'salt' Stylistic Alternatives lookup 33 subtable" Eng.ss01
Substitution2: "'c2sc' Capitals to Small Capitals lookup 27 subtable" eng.sc
AlternateSubs2: "'aalt' Access All Alternates lookup 1 subtable" eng.sc Eng.ss01
Position2: "'cpsp' Capital Spacing lookup 0 subtable" dx=5 dy=0 dh=10 dv=0
EndChar
StartChar: eng
Encoding: 331 331 545
Width: 560
GlyphClass: 2
Flags: MW
HStem: -227 140<215 245 215 302> 0 21G<4 198 4 4 293 293 487 487> 393 141<78 331.5> 514 20G<78 247 247 247> 534 20G
VStem: 4 540.47 341 203.47
AnchorPoint: "Anchor-14" 0 0 basechar 0
AnchorPoint: "Anchor-13" 0 0 basechar 0
AnchorPoint: "Anchor-12" 322 534 basechar 0
AnchorPoint: "Anchor-11" 0 0 basechar 0
AnchorPoint: "Anchor-10" 219 -215 basechar 0
LayerCount: 2
Back
Fore
SplineSet
427 554 m 0xca
 510 554 556 495 542 393 c 2
 487 0 l 1
 484 -18 l 2
 461 -158 367 -227 237 -227 c 0
 165 -227 119 -207 87 -181 c 1
 164 -68 l 1
 187 -80 202 -87 228 -87 c 0
 262 -87 283 -68 288 -33 c 2
 293 0 l 1
 341 341 l 2
 347 383 338 393 325 393 c 0xe2
 301 393 273 353 238 278 c 1
 198 0 l 1
 4 0 l 1
 78 534 l 1
 247 534 l 1xd4
 248 446 l 1
 290 511 359 554 427 554 c 0xca
EndSplineSet
Substitution2: "'smcp' Lowercase to Small Capitals lookup 28 subtable" eng.sc
Substitution2: "'aalt' Access All Alternates lookup 0 subtable" eng.sc
EndChar

StartChar: Omacron
Encoding: 332 332 78
Width: 678
GlyphClass: 2
Flags: MW
HStem: -20 146<288.5 381.5 288.5 446> 570 146<319.5 412.5> 774 134<250 588 269 569>
VStem: 25 208<203.5 297 203.5 363> 468 208<399 494>
AnchorPoint: "Anchor-11" 0 0 basechar 0
AnchorPoint: "Anchor-10" -15 534 basechar 0
AnchorPoint: "Anchor-9" 399 696 basechar 0
AnchorPoint: "Anchor-8" 0 0 basechar 0
LayerCount: 2
Fore
SplineSet
250 774 m 1
 269 908 l 1
 588 908 l 1
 569 774 l 1
 250 774 l 1
400 716 m 0
 580 716 676 609 676 429 c 0
 676 241 591 -20 301 -20 c 0
 121 -20 25 89 25 268 c 0
 25 458 112 716 400 716 c 0
384 570 m 0
 255 570 233 348 233 246 c 0
 233 161 260 126 317 126 c 0
 446 126 468 346 468 452 c 0
 468 536 441 570 384 570 c 0
EndSplineSet
Substitution2: "'c2sc' Capitals to Small Capitals lookup 23 subtable" omacron.sc
Substitution2: "'aalt' Access All Alternates lookup 0 subtable" omacron.sc
Position2: "'cpsp' Capital Spacing lookup 0 subtable" dx=5 dy=0 dh=10 dv=0
EndChar

StartChar: omacron
Encoding: 333 333 215
Width: 572
GlyphClass: 2
Flags: MW
HStem: -20 142<245 305.5 245 364> 412 142<264.5 325.5> 648 134<170 508 189 489>
VStem: 13 198<172.5 235.5 172.5 290.5> 360 198
AnchorPoint: "Anchor-11" 0 0 basechar 0
AnchorPoint: "Anchor-10" 0 0 basechar 0
AnchorPoint: "Anchor-9" 314 534 basechar 0
AnchorPoint: "Anchor-8" 0 0 basechar 0
LayerCount: 2
Fore
SplineSet
170 648 m 1
 189 782 l 1
 508 782 l 1
 489 648 l 1
 170 648 l 1
323 554 m 0
 471 554 559 465 558 323 c 0
 557 165 481 -20 247 -20 c 0
 100 -20 13 66 13 211 c 0
 13 370 89 554 323 554 c 0
307 412 m 0
 222 412 211 270 211 201 c 0
 211 144 227 122 263 122 c 0
 348 122 359 264 360 333 c 0
 361 390 344 412 307 412 c 0
EndSplineSet
Substitution2: "'smcp' Lowercase to Small Capitals lookup 24 subtable" omacron.sc
Substitution2: "'aalt' Access All Alternates lookup 0 subtable" omacron.sc
EndChar
StartChar: Obreve
Encoding: 334 334 173
Width: 678
GlyphClass: 2
Flags: MW
HStem: -20 146<288.5 381.5 288.5 446> 570 146<319.5 412.5> 746 134<399.5 443.5 399.5 467.5>
VStem: 25 208<206 299.5 206 363> 252 100<933 948> 468 208<396.5 491.5>
AnchorPoint: "Anchor-14" 0 0 basechar 0
AnchorPoint: "Anchor-13" 644 696 basechar 0
AnchorPoint: "Anchor-12" 435 950 basechar 0
AnchorPoint: "Anchor-11" 0 0 basechar 0
AnchorPoint: "Anchor-10" 303 0 basechar 0
LayerCount: 2
Back
Fore
SplineSet
409 746 m 0
 290 746 246 841 252 933 c 1
 352 948 l 1
 356 911 378 880 421 880 c 0
 466 880 496 913 511 950 c 1
 614 931 l 1
 594 839 526 746 409 746 c 0
400 716 m 0xd4
 580 716 676 609 676 429 c 0
 676 241 591 -20 301 -20 c 0
 121 -20 25 89 25 268 c 0
 25 458 112 716 400 716 c 0xd4
384 570 m 0
 255 570 233 348 233 251 c 0
 233 161 260 126 317 126 c 0
 446 126 468 346 468 447 c 0
 468 536 441 570 384 570 c 0
EndSplineSet
Substitution2: "'c2sc' Capitals to Small Capitals lookup 27 subtable" obreve.sc
Substitution2: "'aalt' Access All Alternates lookup 0 subtable" obreve.sc
Position2: "'cpsp' Capital Spacing lookup 0 subtable" dx=5 dy=0 dh=10 dv=0
EndChar

StartChar: obreve
Encoding: 335 335 210
Width: 572
GlyphClass: 2
Flags: MW
HStem: -20 142<245 305.5 245 364> 412 142<264.5 325.5> 626 134<322.5 366.5 322.5 388.5>
VStem: 13 198<172.5 235.5 172.5 290.5> 173 102<823 838> 360 198
AnchorPoint: "Anchor-11" 0 0 basechar 0
AnchorPoint: "Anchor-10" 0 0 basechar 0
AnchorPoint: "Anchor-9" 314 534 basechar 0
AnchorPoint: "Anchor-8" 0 0 basechar 0
LayerCount: 2
Fore
SplineSet
330 626 m 0xec
 211 626 167 721 173 823 c 1
 275 838 l 1
 278 791 301 760 344 760 c 0
 389 760 420 793 437 840 c 1
 535 821 l 1
 515 719 447 626 330 626 c 0xec
323 554 m 0
 471 554 559 465 558 323 c 0
 557 165 481 -20 247 -20 c 0
 100 -20 13 66 13 211 c 0xf4
 13 370 89 554 323 554 c 0
307 412 m 0xf4
 222 412 211 270 211 201 c 0
 211 144 227 122 263 122 c 0
 348 122 359 264 360 333 c 0
 361 390 344 412 307 412 c 0xf4
EndSplineSet
Substitution2: "'smcp' Lowercase to Small Capitals lookup 24 subtable" obreve.sc
Substitution2: "'aalt' Access All Alternates lookup 0 subtable" obreve.sc
EndChar

StartChar: OE
Encoding: 338 338 82
Width: 890
GlyphClass: 2
Flags: MW
HStem: -20 146<281.5 302.5> 0 126<281.5 831 281.5 393> 0 144<573 831> 284 139<650 827 638 845> 553 143<622 622 622 892> 570 146<315 396.5>
VStem: 25 207<202 317 202 360.5> 447 203<423 423 423 496>
LayerCount: 2
Fore
SplineSet
622 553 m 1x3b
 639 515 648 471 650 423 c 1
 845 423 l 1
 827 284 l 1
 638 284 l 1
 627 236 607 187 573 144 c 1
 851 144 l 1
 831 0 l 1
 393 0 l 1x3b
 359 -13 322 -20 283 -20 c 0
 118 -20 25 86 25 267 c 0
 25 454 113 716 382 716 c 0x97
 422 716 459 709 488 696 c 1
 932 696 l 1
 892 553 l 1
 622 553 l 1x3b
306 126 m 0x57
 417 126 447 306 447 455 c 0
 447 537 421 570 372 570 c 0
 258 570 232 390 232 244 c 0
 232 160 257 126 306 126 c 0x57
EndSplineSet
Substitution2: "'c2sc' Capitals to Small Capitals lookup 23 subtable" oe.sc
Substitution2: "'aalt' Access All Alternates lookup 0 subtable" oe.sc
Position2: "'cpsp' Capital Spacing lookup 0 subtable" dx=5 dy=0 dh=10 dv=0
EndChar
StartChar: oe
Encoding: 339 339 592
Width: 886
GlyphClass: 2
Flags: MW
HStem: -20 142<247 289.5> 412 142<266.5 327.5> 429 125<632.5 667.5>
VStem: 13 198<172.5 235.5 172.5 290.5> 694 194<380.5 401>
AnchorPoint: "Anchor-14" 0 0 basechar 0
AnchorPoint: "Anchor-13" 0 0 basechar 0
AnchorPoint: "Anchor-12" 481 534 basechar 0
AnchorPoint: "Anchor-11" 0 0 basechar 0
AnchorPoint: "Anchor-10" 433 0 basechar 0
LayerCount: 2
Back
Fore
SplineSet
888 401 m 0xd8
 888 252 705 205 549 191 c 1
 554 137 587 120 630 120 c 0
 674 120 712 137 762 169 c 1
 829 56 l 1
 770 13 694 -20 604 -20 c 0
 518 -20 463 7 426 49 c 1
 386 8 330 -20 249 -20 c 0
 102 -20 13 66 13 211 c 0
 13 370 91 554 315 554 c 0
 394 554 448 521 484 479 c 1
 530 523 591 554 674 554 c 0
 813 554 888 488 888 401 c 0xd8
557 302 m 1
 678 309 694 372 694 389 c 0
 694 413 684 429 651 429 c 0xb8
 597 429 569 367 557 302 c 1
265 122 m 0
 350 122 363 264 364 333 c 0
 365 390 346 412 309 412 c 0
 224 412 211 270 211 201 c 0
 211 144 229 122 265 122 c 0
EndSplineSet
Substitution2: "'smcp' Lowercase to Small Capitals lookup 28 subtable" oe.sc
Substitution2: "'aalt' Access All Alternates lookup 0 subtable" oe.sc
EndChar

StartChar: Racute
Encoding: 340 340 87
Width: 612
GlyphClass: 2
Flags: MW
HStem: 0 21G<6 208 6 6 375 595 375 375> 248 138<262 283 242 314> 555 141<285 329 285 285>
VStem: 410 208<474.5 515.5>
AnchorPoint: "Anchor-11" 270 0 basechar 0
AnchorPoint: "Anchor-10" 0 0 basechar 0
AnchorPoint: "Anchor-9" 367 696 basechar 0
AnchorPoint: "Anchor-8" 0 0 basechar 0
LayerCount: 2
Fore
SplineSet
290 742 m 1
 237 841 l 1
 467 985 l 1
 541 841 l 1
 290 742 l 1
618 515 m 0
 618 423 596 348 470 282 c 1
 595 0 l 1
 375 0 l 1
 283 248 l 1
 242 248 l 1
 208 0 l 1
 6 0 l 1
 103 696 l 1
 354 696 l 2
 528 696 618 640 618 515 c 0
262 386 m 1
 314 386 l 2
 395 386 410 454 410 495 c 0
 410 536 382 555 329 555 c 2
 285 555 l 1
 262 386 l 1
EndSplineSet
Substitution2: "'c2sc' Capitals to Small Capitals lookup 23 subtable" racute.sc
Substitution2: "'aalt' Access All Alternates lookup 0 subtable" racute.sc
Position2: "'cpsp' Capital Spacing lookup 0 subtable" dx=5 dy=0 dh=10 dv=0
EndChar
StartChar: racute
Encoding: 341 341 604
Width: 399
GlyphClass: 2
Flags: MW
HStem: 0 21G<4 198 4 4> 359 175<78 356> 514 20G<78 247 247 247> 522 20G<449 449> 531 20G<369.5 407>
VStem: 4 445
AnchorPoint: "Anchor-14" 0 0 basechar 0
AnchorPoint: "Anchor-13" 0 0 basechar 0
AnchorPoint: "Anchor-12" 293 856 basechar 0
AnchorPoint: "Anchor-11" 0 0 basechar 0
AnchorPoint: "Anchor-10" 101 0 basechar 0
LayerCount: 2
Back
Fore
SplineSet
386 856 m 1x8c
 440 712 l 1
 180 613 l 1
 142 712 l 1
 386 856 l 1x8c
396 551 m 0
 418 551 432 548 449 542 c 1x94
 394 351 l 1
 377 356 364 359 348 359 c 0xc4
 284 359 254 296 230 225 c 1
 198 0 l 1
 4 0 l 1
 78 534 l 1
 247 534 l 1xa4
 248 439 l 1
 282 507 343 551 396 551 c 0
EndSplineSet
Substitution2: "'smcp' Lowercase to Small Capitals lookup 28 subtable" racute.sc
Substitution2: "'aalt' Access All Alternates lookup 0 subtable" racute.sc
EndChar

StartChar: Rcommaaccent
Encoding: 342 342 89
Width: 612
GlyphClass: 2
Flags: MW
HStem: -226 21G<193 193> 0 21G<6 208 6 6 375 595 375 375> 248 138<262 283 242 314> 555 141<285 329 285 285>
VStem: 161 182<-160 -133.5> 410 208<474.5 515.5>
AnchorPoint: "Anchor-11" 270 0 basechar 0
AnchorPoint: "Anchor-10" 0 0 basechar 0
AnchorPoint: "Anchor-9" 367 696 basechar 0
AnchorPoint: "Anchor-8" 0 0 basechar 0
LayerCount: 2
Fore
SplineSet
618 515 m 0
 618 423 596 348 470 282 c 1
 595 0 l 1
 375 0 l 1
 283 248 l 1
 242 248 l 1
 208 0 l 1
 6 0 l 1
 103 696 l 1
 354 696 l 2
 528 696 618 640 618 515 c 0
262 386 m 1
 314 386 l 2
 395 386 410 454 410 495 c 0
 410 536 382 555 329 555 c 2
 285 555 l 1
 262 386 l 1
263 -62 m 0
 311 -62 343 -95 343 -142 c 0
 343 -178 330 -204 304 -244 c 2
 241 -342 l 1
 149 -342 l 1
 193 -226 l 1
 173 -212 161 -193 161 -165 c 0
 161 -102 208 -62 263 -62 c 0
EndSplineSet
Substitution2: "'c2sc' Capitals to Small Capitals lookup 23 subtable" rcommaaccent.sc
Substitution2: "'aalt' Access All Alternates lookup 0 subtable" rcommaaccent.sc
Position2: "'cpsp' Capital Spacing lookup 0 subtable" dx=5 dy=0 dh=10 dv=0
EndChar
StartChar: rcommaaccent
Encoding: 343 343 607
Width: 399
GlyphClass: 2
Flags: MW
HStem: -226 21G<20 20> 0 21G<4 198 4 4> 359 175<78 356> 514 20G<78 247 247 247> 522 20G<449 449> 531 20G<369.5 407>
VStem: -24 473 -12 182<-160 -134>
AnchorPoint: "Anchor-14" 0 0 basechar 0
AnchorPoint: "Anchor-13" 0 0 basechar 0
AnchorPoint: "Anchor-12" 263 534 basechar 0
AnchorPoint: "Anchor-11" 0 0 basechar 0
AnchorPoint: "Anchor-10" 101 0 basechar 0
LayerCount: 2
Back
Fore
SplineSet
396 551 m 0xc6
 418 551 432 548 449 542 c 1xca
 394 351 l 1
 377 356 364 359 348 359 c 0xe2
 284 359 254 296 230 225 c 1
 198 0 l 1
 4 0 l 1
 78 534 l 1
 247 534 l 1xd2
 248 439 l 1
 282 507 343 551 396 551 c 0xc6
85 -62 m 0xc5
 134 -62 170 -94 170 -142 c 0
 170 -178 157 -204 131 -244 c 2
 68 -342 l 1
 -24 -342 l 1
 20 -226 l 1
 0 -212 -12 -193 -12 -165 c 0
 -12 -103 32 -62 85 -62 c 0xc5
EndSplineSet
Substitution2: "'smcp' Lowercase to Small Capitals lookup 28 subtable" rcommaaccent.sc
Substitution2: "'aalt' Access All Alternates lookup 0 subtable" rcommaaccent.sc
EndChar
StartChar: Rcaron
Encoding: 344 344 220
Width: 612
GlyphClass: 2
Flags: MW
HStem: 0 21G<6 208 6 6 375 595 375 375> 248 138<262 283 242 314> 555 141<285 285 285 329>
VStem: 410 208<471.5 514.5>
AnchorPoint: "Anchor-14" 0 0 basechar 0
AnchorPoint: "Anchor-13" 0 0 basechar 0
AnchorPoint: "Anchor-12" 391 964 basechar 0
AnchorPoint: "Anchor-11" 0 0 basechar 0
AnchorPoint: "Anchor-10" 270 0 basechar 0
LayerCount: 2
Back
Fore
SplineSet
428 747 m 1
 312 747 l 1
 189 888 l 1
 263 964 l 1
 385 878 l 1
 531 964 l 1
 589 888 l 1
 428 747 l 1
618 512 m 0
 618 423 596 348 470 282 c 1
 595 0 l 1
 375 0 l 1
 283 248 l 1
 242 248 l 1
 208 0 l 1
 6 0 l 1
 103 696 l 1
 354 696 l 2
 528 696 618 638 618 512 c 0
285 555 m 1
 262 386 l 1
 314 386 l 2
 391 386 410 449 410 494 c 0
 410 535 382 555 329 555 c 2
 285 555 l 1
EndSplineSet
Substitution2: "'c2sc' Capitals to Small Capitals lookup 27 subtable" rcaron.sc
Substitution2: "'aalt' Access All Alternates lookup 0 subtable" rcaron.sc
Position2: "'cpsp' Capital Spacing lookup 0 subtable" dx=5 dy=0 dh=10 dv=0
EndChar
StartChar: rcaron
Encoding: 345 345 606
Width: 399
GlyphClass: 2
Flags: MW
HStem: 0 21G<4 198 4 4> 359 175<78 356> 514 20G<78 247 247 247> 522 20G<449 449> 531 20G<369.5 407> 733 20G<93 93 493 493>
VStem: 4 489
AnchorPoint: "Anchor-14" 0 0 basechar 0
AnchorPoint: "Anchor-13" 0 0 basechar 0
AnchorPoint: "Anchor-12" 295 830 basechar 0
AnchorPoint: "Anchor-11" 0 0 basechar 0
AnchorPoint: "Anchor-10" 101 0 basechar 0
LayerCount: 2
Back
Fore
SplineSet
433 830 m 1x8e
 493 753 l 1
 331 602 l 1
 215 602 l 1
 93 753 l 1
 165 830 l 1
 285 734 l 1
 433 830 l 1x8e
396 551 m 0
 418 551 432 548 449 542 c 1x96
 394 351 l 1
 377 356 364 359 348 359 c 0xc6
 284 359 254 296 230 225 c 1
 198 0 l 1
 4 0 l 1
 78 534 l 1
 247 534 l 1xa6
 248 439 l 1
 282 507 343 551 396 551 c 0
EndSplineSet
Substitution2: "'smcp' Lowercase to Small Capitals lookup 28 subtable" rcaron.sc
Substitution2: "'aalt' Access All Alternates lookup 0 subtable" rcaron.sc
EndChar

StartChar: Sacute
Encoding: 346 346 91
Width: 576
GlyphClass: 2
Flags: MW
HStem: -20 154<213 277 213 361> 570 146<327 380.5>
VStem: 58 213<497.5 530.5 497.5 545> 342 214<178.5 216>
AnchorPoint: "Anchor-11" 250 0 basechar 0
AnchorPoint: "Anchor-10" 0 0 basechar 0
AnchorPoint: "Anchor-9" 361 696 basechar 0
AnchorPoint: "Anchor-8" 0 0 basechar 0
LayerCount: 2
Fore
SplineSet
535 841 m 1
 284 742 l 1
 231 841 l 1
 461 985 l 1
 535 841 l 1
353 716 m 0
 457 716 537 681 594 620 c 1
 492 515 l 1
 451 552 407 570 354 570 c 0
 300 570 271 547 271 514 c 0
 271 481 297 470 380 440 c 1
 500 400 556 337 556 238 c 0
 556 118 478 -20 244 -20 c 0
 115 -20 29 31 -25 86 c 1
 88 201 l 1
 131 158 182 134 244 134 c 0
 310 134 342 160 342 197 c 0
 342 235 319 259 244 285 c 1
 105 331 58 399 58 488 c 0
 58 602 144 716 353 716 c 0
EndSplineSet
Substitution2: "'c2sc' Capitals to Small Capitals lookup 23 subtable" sacute.sc
Substitution2: "'locl' Localized Forms in Latin lookup 7 subtable" Sacute.loclPLK
AlternateSubs2: "'aalt' Access All Alternates lookup 1 subtable" Sacute.loclPLK sacute.sc
Position2: "'cpsp' Capital Spacing lookup 0 subtable" dx=5 dy=0 dh=10 dv=0
EndChar

StartChar: Scedilla
Encoding: 350 350 93
Width: 576
GlyphClass: 2
Flags: MW
HStem: -275 102<197.5 223 197.5 283.5> -17 21G<196 196 301 301> 570 146<327 380.5>
VStem: 58 213<497.5 530.5 497.5 545> 258 135 342 214<183 216>
AnchorPoint: "Anchor-11" 250 0 basechar 0
AnchorPoint: "Anchor-10" 0 0 basechar 0
AnchorPoint: "Anchor-9" 361 696 basechar 0
AnchorPoint: "Anchor-8" 0 0 basechar 0
LayerCount: 2
Fore
SplineSet
380 440 m 1xf4
 500 400 556 337 556 238 c 0xf4
 556 128 491 4 301 -17 c 1
 297 -43 l 1
 360 -51 393 -85 393 -139 c 0
 393 -193 352 -275 215 -275 c 0
 163 -275 122 -258 96 -240 c 1
 149 -156 l 1
 168 -167 186 -173 209 -173 c 0
 237 -173 257 -166 258 -146 c 0
 259 -126 233 -120 170 -120 c 1
 196 -17 l 1xe8
 93 -7 22 38 -25 86 c 1
 88 201 l 1
 131 158 182 134 244 134 c 0
 310 134 342 160 342 197 c 0
 342 235 319 259 244 285 c 1
 105 331 58 399 58 488 c 0
 58 602 144 716 353 716 c 0
 457 716 537 681 594 620 c 1
 492 515 l 1
 451 552 407 570 354 570 c 0
 300 570 271 547 271 514 c 0
 271 481 297 470 380 440 c 1xf4
EndSplineSet
Substitution2: "'c2sc' Capitals to Small Capitals lookup 23 subtable" scedilla.sc
Substitution2: "'locl' Localized Forms in Latin lookup 5 subtable" Scommaaccent
Substitution2: "'locl' Localized Forms in Latin lookup 4 subtable" Scommaaccent
AlternateSubs2: "'aalt' Access All Alternates lookup 1 subtable" Scommaaccent scedilla.sc
Position2: "'cpsp' Capital Spacing lookup 0 subtable" dx=5 dy=0 dh=10 dv=0
EndChar
StartChar: scedilla
Encoding: 351 351 623
Width: 481
GlyphClass: 2
Flags: MW
HStem: -275 102<150.5 176 150.5 236.5> -18 21G<254 254> -15 21G<149 149> 417 137<258.5 296.5>
VStem: 35 192<380.5 398 380.5 421.5> 211 135 268 191<137.5 161.5>
AnchorPoint: "Anchor-14" 0 0 basechar 0
AnchorPoint: "Anchor-13" 0 0 basechar 0
AnchorPoint: "Anchor-12" 282 534 basechar 0
AnchorPoint: "Anchor-11" 0 0 basechar 0
AnchorPoint: "Anchor-10" 184 -275 basechar 0
LayerCount: 2
Back
Fore
SplineSet
327 337 m 0xba
 411 309 459 258 459 174 c 0xd2
 459 94 413 -3 254 -18 c 1
 250 -43 l 1xd4
 313 -51 346 -85 346 -139 c 0
 346 -193 305 -275 168 -275 c 0
 116 -275 75 -258 49 -240 c 1
 102 -156 l 1
 121 -167 139 -173 162 -173 c 0
 190 -173 210 -166 211 -146 c 0
 212 -126 186 -120 123 -120 c 1
 149 -15 l 1xb4
 76 -3 12 30 -27 74 c 1
 67 173 l 1
 101 143 148 117 209 117 c 0
 241 117 268 125 268 150 c 0
 268 173 251 179 167 209 c 0
 81 240 35 287 35 370 c 0
 35 473 122 554 275 554 c 0
 358 554 432 525 482 484 c 1
 399 380 l 1
 362 403 316 417 277 417 c 0
 240 417 227 406 227 390 c 0
 227 371 240 366 327 337 c 0xba
EndSplineSet
Substitution2: "'smcp' Lowercase to Small Capitals lookup 28 subtable" scedilla.sc
Substitution2: "'locl' Localized Forms in Latin lookup 5 subtable" scommaaccent
Substitution2: "'locl' Localized Forms in Latin lookup 4 subtable" scommaaccent
AlternateSubs2: "'aalt' Access All Alternates lookup 1 subtable" scommaaccent scedilla.sc
EndChar
StartChar: Scaron
Encoding: 352 352 230
Width: 576
GlyphClass: 2
Flags: MW
HStem: -20 154<213 277 213 361> 570 146<327 380.5>
VStem: -25 619<86 620> 58 213<497.5 530.5 497.5 545> 342 214<178.5 216>
AnchorPoint: "Anchor-14" 0 0 basechar 0
AnchorPoint: "Anchor-13" 0 0 basechar 0
AnchorPoint: "Anchor-12" 385 964 basechar 0
AnchorPoint: "Anchor-11" 0 0 basechar 0
AnchorPoint: "Anchor-10" 250 0 basechar 0
LayerCount: 2
Back
Fore
SplineSet
525 964 m 1xe0
 583 888 l 1
 422 747 l 1
 306 747 l 1
 183 888 l 1
 257 964 l 1
 379 878 l 1
 525 964 l 1xe0
353 716 m 0
 457 716 537 681 594 620 c 1
 492 515 l 1
 451 552 407 570 354 570 c 0
 300 570 271 547 271 514 c 0
 271 481 297 470 380 440 c 0
 500 400 556 337 556 238 c 0
 556 118 478 -20 244 -20 c 0
 115 -20 29 31 -25 86 c 1
 88 201 l 1
 131 158 182 134 244 134 c 0
 310 134 342 160 342 197 c 0
 342 235 319 259 244 285 c 0
 105 331 58 399 58 488 c 0xd8
 58 602 144 716 353 716 c 0
EndSplineSet
Substitution2: "'c2sc' Capitals to Small Capitals lookup 27 subtable" scaron.sc
Substitution2: "'aalt' Access All Alternates lookup 0 subtable" scaron.sc
Position2: "'cpsp' Capital Spacing lookup 0 subtable" dx=5 dy=0 dh=10 dv=0
EndChar
StartChar: scaron
Encoding: 353 353 622
Width: 481
GlyphClass: 2
Flags: MW
HStem: -20 137<178.5 225 178.5 307> 417 137<258.5 296.5> 733 20G<112 112 512 512>
VStem: -27 539 35 192<380.5 398 380.5 421.5> 268 191<137.5 161.5>
AnchorPoint: "Anchor-14" 0 0 basechar 0
AnchorPoint: "Anchor-13" 0 0 basechar 0
AnchorPoint: "Anchor-12" 314 830 basechar 0
AnchorPoint: "Anchor-11" 0 0 basechar 0
AnchorPoint: "Anchor-10" 203 0 basechar 0
LayerCount: 2
Back
Fore
SplineSet
452 830 m 1xf0
 512 753 l 1
 350 602 l 1
 234 602 l 1
 112 753 l 1
 184 830 l 1
 304 734 l 1
 452 830 l 1xf0
275 554 m 0
 358 554 432 525 482 484 c 1
 399 380 l 1
 362 403 316 417 277 417 c 0
 240 417 227 406 227 390 c 0
 227 371 240 366 327 337 c 0
 411 309 459 258 459 174 c 0
 459 87 405 -20 209 -20 c 0
 113 -20 22 18 -27 74 c 1
 67 173 l 1
 101 143 148 117 209 117 c 0
 241 117 268 125 268 150 c 0
 268 173 251 179 167 209 c 0
 81 240 35 287 35 370 c 0xec
 35 473 122 554 275 554 c 0
EndSplineSet
Substitution2: "'smcp' Lowercase to Small Capitals lookup 28 subtable" scaron.sc
Substitution2: "'aalt' Access All Alternates lookup 0 subtable" scaron.sc
EndChar
